{
.appVersion = "3133";
.formatVersion = 3;
axes = (
{
name = weight;
tag = wght;
},
{
name = width;
tag = wdth;
},
{
name = slant;
tag = slnt;
}
);
classes = (
{
automatic = 1;

glyphs = (
{
glyphname = A;
lastChange = "2024-04-27 00:07:48 +0000";
layers = (
{
layerId = "2B3680FA-30B6-467C-955F-2315D5D255F4";
shapes = (
{
closed = 1;
nodes = (
(689,1460,l),
(551,1460,l),
(72,0,l),
(196,0,l),
(614,1309,l),
(625,1309,l),
(1042,0,l),
(1168,0,l)
);
},
{
closed = 1;
nodes = (
(949,447,l),
(949,552,l),
(286,552,l),
(286,447,l)
);
}
);
width = 1240;
},
{
layerId = "DA5CBF49-7F7A-4926-B587-2652260B0ABD";
shapes = (
{
closed = 1;
nodes = (
(793,1460,l),
(441,1460,l),
(18,0,l),
(353,0,l),
(599,985,l),
(614,985,l),
(868,0,l),
(1222,0,l)
);
},
{
closed = 1;
nodes = (
(989,303,l),
(989,537,l),
(278,537,l),
(278,303,l)
);
}
);
width = 1240;
},
{
layerId = "DC524FA5-69B0-4541-AEAA-64C37A6100D8";
shapes = (
{
closed = 1;
nodes = (
(847,1460,l),
(709,1460,l),
(90,0,l),
(214,0,l),
(772,1309,l),
(783,1309,l),
(1340,0,l),
(1466,0,l)
);
},
{
closed = 1;
nodes = (
(1197,449,l),
(1197,552,l),
(364,552,l),
(364,449,l)
);
}
);
width = 1555;
},
{
layerId = "0C0B9A44-4D66-4C06-AB4A-20867B2FE8E0";
shapes = (
{
closed = 1;
nodes = (
(942,1460,l),
(590,1460,l),
(43,0,l),
(378,0,l),
(748,1053,l),
(763,1053,l),
(1158,0,l),
(1512,0,l)
);
},
{
closed = 1;
nodes = (
(1155,309,l),
(1155,543,l),
(388,543,l),
(388,309,l)
);
}
);
width = 1555;
},
{
layerId = "FCEBCCDD-9F1F-4D06-95BC-5606E8CBB848";
shapes = (
{
closed = 1;
nodes = (
(876,1460,l),
(738,1460,l),
(-25,0,l),
(99,0,l),
(771,1309,l),
(782,1309,l),
(945,0,l),
(1071,0,l)
);
},
{
closed = 1;
nodes = (
(939,447,l),
(959,552,l),
(296,552,l),
(276,447,l)
);
}
);
width = 1240;
},
{
layerId = "8B99F5F8-0F2E-47D1-851D-9A55DF2AB712";
shapes = (
{
closed = 1;
nodes = (
(972,1460,l),
(620,1460,l),
(-87,0,l),
(258,0,l),
(695,985,l),
(710,985,l),
(773,0,l),
(1117,0,l)
);
},
{
closed = 1;
nodes = (
(943,303,l),
(988,537,l),
(277,537,l),
(232,303,l)
);
}
);
width = 1240;
},
{
layerId = "58E9293A-5120-4E1E-8451-D6ECB5204CAC";
shapes = (
{
closed = 1;
nodes = (
(1034,1460,l),
(896,1460,l),
(-7,0,l),
(117,0,l),
(929,1309,l),
(940,1309,l),
(1243,0,l),
(1369,0,l)
);
},
{
closed = 1;
nodes = (
(1187,449,l),
(1207,552,l),
(374,552,l),
(354,449,l)
);
}
);
width = 1555;
},
{
layerId = "8D453742-7B49-41B2-AE2A-3EBD26173AE1";
shapes = (
{
closed = 1;
nodes = (
(1121,1460,l),
(769,1460,l),
(-62,0,l),
(273,0,l),
(848,1053,l),
(863,1053,l),
(1053,0,l),
(1407,0,l)
);
},
{
closed = 1;
nodes = (
(1110,309,l),
(1156,543,l),
(389,543,l),
(343,309,l)
);
}
);
width = 1555;
}
);
unicode = 65;
},
{
glyphname = Aacute;
lastChange = "2024-04-27 00:07:48 +0000";
layers = (
{
layerId = "DA5CBF49-7F7A-4926-B587-2652260B0ABD";
shapes = (
{
closed = 1;
nodes = (
(793,1460,l),
(441,1460,l),
(18,0,l),
(353,0,l),
(599,985,l),
(614,985,l),
(868,0,l),
(1222,0,l)
);
},
{
closed = 1;
nodes = (
(989,303,l),
(989,537,l),
(278,537,l),
(278,303,l)
);
},
{
closed = 1;
nodes = (
(668,1877.386,l),
(1013,1877.386,l),
(764,1619.05,l),
(485,1619.05,l)
);
}
);
width = 1240;
},
{
layerId = "DC524FA5-69B0-4541-AEAA-64C37A6100D8";
shapes = (
{
closed = 1;
nodes = (
(847,1460,l),
(709,1460,l),
(90,0,l),
(214,0,l),
(772,1309,l),
(783,1309,l),
(1340,0,l),
(1466,0,l)
);
},
{
closed = 1;
nodes = (
(1197,449,l),
(1197,552,l),
(364,552,l),
(364,449,l)
);
},
{
closed = 1;
nodes = (
(980,1883.57,l),
(1133,1883.57,l),
(827,1652.076,l),
(708,1652.076,l)
);
}
);
width = 1555;
},
{
layerId = "0C0B9A44-4D66-4C06-AB4A-20867B2FE8E0";
shapes = (
{
closed = 1;
nodes = (
(942,1460,l),
(590,1460,l),
(43,0,l),
(378,0,l),
(748,1053,l),
(763,1053,l),
(1158,0,l),
(1512,0,l)
);
},
{
closed = 1;
nodes = (
(1155,309,l),
(1155,543,l),
(388,543,l),
(388,309,l)
);
},
{
closed = 1;
nodes = (
(843,1917.966,l),
(1228,1917.966,l),
(937,1619.408,l),
(626,1619.408,l)
);
}
);
width = 1555;
},
{
layerId = "2B3680FA-30B6-467C-955F-2315D5D255F4";
shapes = (
{
closed = 1;
nodes = (
(689,1460,l),
(551,1460,l),
(72,0,l),
(196,0,l),
(614,1309,l),
(625,1309,l),
(1042,0,l),
(1168,0,l)
);
},
{
closed = 1;
nodes = (
(949,447,l),
(949,552,l),
(286,552,l),
(286,447,l)
);
},
{
closed = 1;
nodes = (
(778,1883.236,l),
(918,1883.236,l),
(665,1650.191,l),
(556,1650.191,l)
);
}
);
width = 1240;
},
{
layerId = "8B99F5F8-0F2E-47D1-851D-9A55DF2AB712";
shapes = (
{
closed = 1;
nodes = (
(972,1460,l),
(620,1460,l),
(-87,0,l),
(258,0,l),
(695,985,l),
(710,985,l),
(773,0,l),
(1117,0,l)
);
},
{
closed = 1;
nodes = (
(943,303,l),
(988,537,l),
(277,537,l),
(232,303,l)
);
},
{
closed = 1;
nodes = (
(928,1877,l),
(1273,1877,l),
(974,1619,l),
(695,1619,l)
);
}
);
width = 1240;
},
{
layerId = "8D453742-7B49-41B2-AE2A-3EBD26173AE1";
shapes = (
{
closed = 1;
nodes = (
(1121,1460,l),
(769,1460,l),
(-62,0,l),
(273,0,l),
(848,1053,l),
(863,1053,l),
(1053,0,l),
(1407,0,l)
);
},
{
closed = 1;
nodes = (
(1110,309,l),
(1156,543,l),
(389,543,l),
(343,309,l)
);
},
{
closed = 1;
nodes = (
(1111,1918,l),
(1496,1918,l),
(1147,1619,l),
(836,1619,l)
);
}
);
width = 1555;
},
{
layerId = "FCEBCCDD-9F1F-4D06-95BC-5606E8CBB848";
shapes = (
{
closed = 1;
nodes = (
(876,1460,l),
(738,1460,l),
(-25,0,l),
(99,0,l),
(771,1309,l),
(782,1309,l),
(945,0,l),
(1071,0,l)
);
},
{
closed = 1;
nodes = (
(939,447,l),
(959,552,l),
(296,552,l),
(276,447,l)
);
},
{
closed = 1;
nodes = (
(1047,1883,l),
(1187,1883,l),
(889,1650,l),
(780,1650,l)
);
}
);
width = 1240;
},
{
layerId = "58E9293A-5120-4E1E-8451-D6ECB5204CAC";
shapes = (
{
closed = 1;
nodes = (
(1034,1460,l),
(896,1460,l),
(-7,0,l),
(117,0,l),
(929,1309,l),
(940,1309,l),
(1243,0,l),
(1369,0,l)
);
},
{
closed = 1;
nodes = (
(1187,449,l),
(1207,552,l),
(374,552,l),
(354,449,l)
);
},
{
closed = 1;
nodes = (
(1249,1884,l),
(1402,1884,l),
(1051,1652,l),
(932,1652,l)
);
}
);
width = 1555;
}
);
unicode = 193;
},
{
glyphname = Abreve;
lastChange = "2024-04-27 00:07:48 +0000";
layers = (
{
layerId = "DA5CBF49-7F7A-4926-B587-2652260B0ABD";
shapes = (
{
closed = 1;
nodes = (
(793,1460,l),
(441,1460,l),
(18,0,l),
(353,0,l),
(599,985,l),
(614,985,l),
(868,0,l),
(1222,0,l)
);
},
{
closed = 1;
nodes = (
(989,303,l),
(989,537,l),
(278,537,l),
(278,303,l)
);
},
{
closed = 1;
nodes = (
(252,1696,o),
(374,1600,o),
(620,1600,cs),
(866,1600,o),
(988,1696,o),
(980,1878,c),
(782,1878,l),
(782,1802,o),
(734,1755,o),
(620,1755,cs),
(506,1755,o),
(458,1802,o),
(458,1878,c),
(260,1878,l)
);
}
);
width = 1240;
},
{
layerId = "DC524FA5-69B0-4541-AEAA-64C37A6100D8";
shapes = (
{
closed = 1;
nodes = (
(847,1460,l),
(709,1460,l),
(90,0,l),
(214,0,l),
(772,1309,l),
(783,1309,l),
(1340,0,l),
(1466,0,l)
);
},
{
closed = 1;
nodes = (
(1197,449,l),
(1197,552,l),
(364,552,l),
(364,449,l)
);
},
{
closed = 1;
nodes = (
(449,1722,o),
(560,1643,o),
(777,1643,cs),
(994,1643,o),
(1106,1722,o),
(1104,1883,c),
(1008,1883,l),
(1008,1790,o),
(940,1731,o),
(777,1731,cs),
(613,1731,o),
(547,1790,o),
(547,1883,c),
(451,1883,l)
);
}
);
width = 1555;
},
{
layerId = "0C0B9A44-4D66-4C06-AB4A-20867B2FE8E0";
shapes = (
{
closed = 1;
nodes = (
(942,1460,l),
(590,1460,l),
(43,0,l),
(378,0,l),
(748,1053,l),
(763,1053,l),
(1158,0,l),
(1512,0,l)
);
},
{
closed = 1;
nodes = (
(1155,309,l),
(1155,543,l),
(388,543,l),
(388,309,l)
);
},
{
closed = 1;
nodes = (
(359,1682,o),
(505,1598,o),
(778,1598,cs),
(1051,1598,o),
(1196,1682,o),
(1193,1908,c),
(969,1908,l),
(969,1809,o),
(922,1752,o),
(778,1752,cs),
(635,1752,o),
(586,1809,o),
(586,1908,c),
(362,1908,l)
);
}
);
width = 1555;
},
{
layerId = "2B3680FA-30B6-467C-955F-2315D5D255F4";
shapes = (
{
closed = 1;
nodes = (
(689,1460,l),
(551,1460,l),
(72,0,l),
(196,0,l),
(614,1309,l),
(625,1309,l),
(1042,0,l),
(1168,0,l)
);
},
{
closed = 1;
nodes = (
(949,447,l),
(949,552,l),
(286,552,l),
(286,447,l)
);
},
{
closed = 1;
nodes = (
(344,1743,o),
(435,1643,o),
(620,1643,cs),
(805,1643,o),
(896,1743,o),
(887,1883,c),
(797,1883,l),
(797,1796,o),
(748,1722,o),
(620,1722,cs),
(492,1722,o),
(443,1796,o),
(443,1883,c),
(353,1883,l)
);
}
);
width = 1240;
},
{
layerId = "8B99F5F8-0F2E-47D1-851D-9A55DF2AB712";
shapes = (
{
closed = 1;
nodes = (
(972,1460,l),
(620,1460,l),
(-87,0,l),
(258,0,l),
(695,985,l),
(710,985,l),
(773,0,l),
(1117,0,l)
);
},
{
closed = 1;
nodes = (
(943,303,l),
(988,537,l),
(277,537,l),
(232,303,l)
);
},
{
closed = 1;
nodes = (
(477,1696,o),
(580,1600,o),
(826,1600,cs),
(1072,1600,o),
(1213,1696,o),
(1240,1878,c),
(1042,1878,l),
(1027,1802,o),
(970,1755,o),
(856,1755,cs),
(742,1755,o),
(703,1802,o),
(718,1878,c),
(520,1878,l)
);
}
);
width = 1240;
},
{
layerId = "8D453742-7B49-41B2-AE2A-3EBD26173AE1";
shapes = (
{
closed = 1;
nodes = (
(1121,1460,l),
(769,1460,l),
(-62,0,l),
(273,0,l),
(848,1053,l),
(863,1053,l),
(1053,0,l),
(1407,0,l)
);
},
{
closed = 1;
nodes = (
(1110,309,l),
(1156,543,l),
(389,543,l),
(343,309,l)
);
},
{
closed = 1;
nodes = (
(581,1682,o),
(711,1598,o),
(984,1598,cs),
(1257,1598,o),
(1418,1682,o),
(1459,1908,c),
(1235,1908,l),
(1216,1809,o),
(1158,1752,o),
(1014,1752,cs),
(871,1752,o),
(833,1809,o),
(852,1908,c),
(628,1908,l)
);
}
);
width = 1555;
},
{
layerId = "FCEBCCDD-9F1F-4D06-95BC-5606E8CBB848";
shapes = (
{
closed = 1;
nodes = (
(876,1460,l),
(738,1460,l),
(-25,0,l),
(99,0,l),
(771,1309,l),
(782,1309,l),
(945,0,l),
(1071,0,l)
);
},
{
closed = 1;
nodes = (
(939,447,l),
(959,552,l),
(296,552,l),
(276,447,l)
);
},
{
closed = 1;
nodes = (
(586,1743,o),
(657,1643,o),
(842,1643,cs),
(1027,1643,o),
(1138,1743,o),
(1156,1883,c),
(1066,1883,l),
(1049,1796,o),
(986,1722,o),
(858,1722,cs),
(730,1722,o),
(695,1796,o),
(712,1883,c),
(622,1883,l)
);
}
);
width = 1240;
},
{
layerId = "58E9293A-5120-4E1E-8451-D6ECB5204CAC";
shapes = (
{
closed = 1;
nodes = (
(1034,1460,l),
(896,1460,l),
(-7,0,l),
(117,0,l),
(929,1309,l),
(940,1309,l),
(1243,0,l),
(1369,0,l)
);
},
{
closed = 1;
nodes = (
(1187,449,l),
(1207,552,l),
(374,552,l),
(354,449,l)
);
},
{
closed = 1;
nodes = (
(687,1722,o),
(782,1643,o),
(999,1643,cs),
(1216,1643,o),
(1344,1722,o),
(1373,1883,c),
(1277,1883,l),
(1259,1790,o),
(1179,1731,o),
(1016,1731,cs),
(852,1731,o),
(798,1790,o),
(816,1883,c),
(720,1883,l)
);
}
);
width = 1555;
}
);
unicode = 258;
},
{
glyphname = Acircumflex;
lastChange = "2024-04-27 00:07:48 +0000";
layers = (
{
layerId = "DA5CBF49-7F7A-4926-B587-2652260B0ABD";
shapes = (
{
closed = 1;
nodes = (
(793,1460,l),
(441,1460,l),
(18,0,l),
(353,0,l),
(599,985,l),
(614,985,l),
(868,0,l),
(1222,0,l)
);
},
{
closed = 1;
nodes = (
(989,303,l),
(989,537,l),
(278,537,l),
(278,303,l)
);
},
{
closed = 1;
nodes = (
(483,1620,l),
(644,1824,l),
(596,1824,l),
(757,1620,l),
(1041,1620,l),
(813,1878,l),
(427,1878,l),
(199,1620,l)
);
}
);
width = 1240;
},
{
layerId = "DC524FA5-69B0-4541-AEAA-64C37A6100D8";
shapes = (
{
closed = 1;
nodes = (
(847,1460,l),
(709,1460,l),
(90,0,l),
(214,0,l),
(772,1309,l),
(783,1309,l),
(1340,0,l),
(1466,0,l)
);
},
{
closed = 1;
nodes = (
(1197,449,l),
(1197,552,l),
(364,552,l),
(364,449,l)
);
},
{
closed = 1;
nodes = (
(533,1650,l),
(808,1859,l),
(746,1859,l),
(1022,1650,l),
(1169,1650,l),
(855,1883,l),
(699,1883,l),
(386,1650,l)
);
}
);
width = 1555;
},
{
layerId = "0C0B9A44-4D66-4C06-AB4A-20867B2FE8E0";
shapes = (
{
closed = 1;
nodes = (
(942,1460,l),
(590,1460,l),
(43,0,l),
(378,0,l),
(748,1053,l),
(763,1053,l),
(1158,0,l),
(1512,0,l)
);
},
{
closed = 1;
nodes = (
(1155,309,l),
(1155,543,l),
(388,543,l),
(388,309,l)
);
},
{
closed = 1;
nodes = (
(611,1620,l),
(811,1866,l),
(743,1866,l),
(944,1620,l),
(1258,1620,l),
(970,1908,l),
(584,1908,l),
(297,1620,l)
);
}
);
width = 1555;
},
{
layerId = "2B3680FA-30B6-467C-955F-2315D5D255F4";
shapes = (
{
closed = 1;
nodes = (
(689,1460,l),
(551,1460,l),
(72,0,l),
(196,0,l),
(614,1309,l),
(625,1309,l),
(1042,0,l),
(1168,0,l)
);
},
{
closed = 1;
nodes = (
(949,447,l),
(949,552,l),
(286,552,l),
(286,447,l)
);
},
{
closed = 1;
nodes = (
(429,1650,l),
(648,1854,l),
(592,1854,l),
(811,1650,l),
(942,1650,l),
(678,1883,l),
(562,1883,l),
(298,1650,l)
);
}
);
width = 1240;
},
{
layerId = "8B99F5F8-0F2E-47D1-851D-9A55DF2AB712";
shapes = (
{
closed = 1;
nodes = (
(972,1460,l),
(620,1460,l),
(-87,0,l),
(258,0,l),
(695,985,l),
(710,985,l),
(773,0,l),
(1117,0,l)
);
},
{
closed = 1;
nodes = (
(943,303,l),
(988,537,l),
(277,537,l),
(232,303,l)
);
},
{
closed = 1;
nodes = (
(693,1620,l),
(894,1824,l),
(846,1824,l),
(967,1620,l),
(1251,1620,l),
(1073,1878,l),
(687,1878,l),
(409,1620,l)
);
}
);
width = 1240;
},
{
layerId = "8D453742-7B49-41B2-AE2A-3EBD26173AE1";
shapes = (
{
closed = 1;
nodes = (
(1121,1460,l),
(769,1460,l),
(-62,0,l),
(273,0,l),
(848,1053,l),
(863,1053,l),
(1053,0,l),
(1407,0,l)
);
},
{
closed = 1;
nodes = (
(1110,309,l),
(1156,543,l),
(389,543,l),
(343,309,l)
);
},
{
closed = 1;
nodes = (
(821,1620,l),
(1069,1866,l),
(1001,1866,l),
(1154,1620,l),
(1468,1620,l),
(1236,1908,l),
(850,1908,l),
(507,1620,l)
);
}
);
width = 1555;
},
{
layerId = "FCEBCCDD-9F1F-4D06-95BC-5606E8CBB848";
shapes = (
{
closed = 1;
nodes = (
(876,1460,l),
(738,1460,l),
(-25,0,l),
(99,0,l),
(771,1309,l),
(782,1309,l),
(945,0,l),
(1071,0,l)
);
},
{
closed = 1;
nodes = (
(939,447,l),
(959,552,l),
(296,552,l),
(276,447,l)
);
},
{
closed = 1;
nodes = (
(653,1650,l),
(911,1854,l),
(855,1854,l),
(1035,1650,l),
(1166,1650,l),
(947,1883,l),
(831,1883,l),
(522,1650,l)
);
}
);
width = 1240;
},
{
layerId = "58E9293A-5120-4E1E-8451-D6ECB5204CAC";
shapes = (
{
closed = 1;
nodes = (
(1034,1460,l),
(896,1460,l),
(-7,0,l),
(117,0,l),
(929,1309,l),
(940,1309,l),
(1243,0,l),
(1369,0,l)
);
},
{
closed = 1;
nodes = (
(1187,449,l),
(1207,552,l),
(374,552,l),
(354,449,l)
);
},
{
closed = 1;
nodes = (
(757,1650,l),
(1072,1859,l),
(1010,1859,l),
(1246,1650,l),
(1393,1650,l),
(1124,1883,l),
(968,1883,l),
(610,1650,l)
);
}
);
width = 1555;
}
);
unicode = 194;
},
{
glyphname = Adieresis;
lastChange = "2024-04-27 00:07:48 +0000";
layers = (
{
layerId = "DA5CBF49-7F7A-4926-B587-2652260B0ABD";
shapes = (
{
closed = 1;
nodes = (
(793,1460,l),
(441,1460,l),
(18,0,l),
(353,0,l),
(599,985,l),
(614,985,l),
(868,0,l),
(1222,0,l)
);
},
{
closed = 1;
nodes = (
(989,303,l),
(989,537,l),
(278,537,l),
(278,303,l)
);
},
{
closed = 1;
nodes = (
(436.112,1618.8,o),
(501.184,1678.8,o),
(501.184,1771.6,cs),
(501.184,1864.4,o),
(436.112,1922,o),
(339.68,1922,cs),
(243.248,1922,o),
(178.176,1864.4,o),
(178.176,1771.6,cs),
(178.176,1678.8,o),
(243.248,1618.8,o),
(339.68,1618.8,cs)
);
},
{
closed = 1;
nodes = (
(997.112,1618.8,o),
(1062.184,1678.8,o),
(1062.184,1771.6,cs),
(1062.184,1864.4,o),
(997.112,1922,o),
(900.68,1922,cs),
(804.248,1922,o),
(739.176,1864.4,o),
(739.176,1771.6,cs),
(739.176,1678.8,o),
(804.248,1618.8,o),
(900.68,1618.8,cs)
);
}
);
width = 1240;
},
{
layerId = "DC524FA5-69B0-4541-AEAA-64C37A6100D8";
shapes = (
{
closed = 1;
nodes = (
(847,1460,l),
(709,1460,l),
(90,0,l),
(214,0,l),
(772,1309,l),
(783,1309,l),
(1340,0,l),
(1466,0,l)
);
},
{
closed = 1;
nodes = (
(1197,449,l),
(1197,552,l),
(364,552,l),
(364,449,l)
);
},
{
closed = 1;
nodes = (
(534,1663,o),
(578,1699,o),
(578,1761,cs),
(578,1823,o),
(534,1859,o),
(472,1859,cs),
(410,1859,o),
(366,1823,o),
(366,1761,cs),
(366,1699,o),
(410,1663,o),
(472,1663,cs)
);
},
{
closed = 1;
nodes = (
(1146,1663,o),
(1190,1699,o),
(1190,1761,cs),
(1190,1823,o),
(1146,1859,o),
(1084,1859,cs),
(1022,1859,o),
(978,1823,o),
(978,1761,cs),
(978,1699,o),
(1022,1663,o),
(1084,1663,cs)
);
}
);
width = 1555;
},
{
layerId = "0C0B9A44-4D66-4C06-AB4A-20867B2FE8E0";
shapes = (
{
closed = 1;
nodes = (
(942,1460,l),
(590,1460,l),
(43,0,l),
(378,0,l),
(748,1053,l),
(763,1053,l),
(1158,0,l),
(1512,0,l)
);
},
{
closed = 1;
nodes = (
(1155,309,l),
(1155,543,l),
(388,543,l),
(388,309,l)
);
},
{
closed = 1;
nodes = (
(542.284,1644.8,o),
(607.356,1704.8,o),
(607.356,1797.6,cs),
(607.356,1890.4,o),
(542.284,1948,o),
(445.852,1948,cs),
(349.42,1948,o),
(284.348,1890.4,o),
(284.348,1797.6,cs),
(284.348,1704.8,o),
(349.42,1644.8,o),
(445.852,1644.8,cs)
);
},
{
closed = 1;
nodes = (
(1215.284,1644.8,o),
(1280.356,1704.8,o),
(1280.356,1797.6,cs),
(1280.356,1890.4,o),
(1215.284,1948,o),
(1118.852,1948,cs),
(1022.42,1948,o),
(957.348,1890.4,o),
(957.348,1797.6,cs),
(957.348,1704.8,o),
(1022.42,1644.8,o),
(1118.852,1644.8,cs)
);
}
);
width = 1555;
},
{
layerId = "2B3680FA-30B6-467C-955F-2315D5D255F4";
shapes = (
{
closed = 1;
nodes = (
(689,1460,l),
(551,1460,l),
(72,0,l),
(196,0,l),
(614,1309,l),
(625,1309,l),
(1042,0,l),
(1168,0,l)
);
},
{
closed = 1;
nodes = (
(949,447,l),
(949,552,l),
(286,552,l),
(286,447,l)
);
},
{
closed = 1;
nodes = (
(434.36,1663,o),
(477.48,1699,o),
(477.48,1761,cs),
(477.48,1823,o),
(434.36,1859,o),
(373.6,1859,cs),
(312.84,1859,o),
(269.72,1823,o),
(269.72,1761,cs),
(269.72,1699,o),
(312.84,1663,o),
(373.6,1663,cs)
);
},
{
closed = 1;
nodes = (
(927.36,1663,o),
(970.48,1699,o),
(970.48,1761,cs),
(970.48,1823,o),
(927.36,1859,o),
(866.6,1859,cs),
(805.84,1859,o),
(762.72,1823,o),
(762.72,1761,cs),
(762.72,1699,o),
(805.84,1663,o),
(866.6,1663,cs)
);
}
);
width = 1240;
},
{
layerId = "8B99F5F8-0F2E-47D1-851D-9A55DF2AB712";
shapes = (
{
closed = 1;
nodes = (
(972,1460,l),
(620,1460,l),
(-87,0,l),
(258,0,l),
(695,985,l),
(710,985,l),
(773,0,l),
(1117,0,l)
);
},
{
closed = 1;
nodes = (
(943,303,l),
(988,537,l),
(277,537,l),
(232,303,l)
);
},
{
closed = 1;
nodes = (
(646,1619,o),
(723,1679,o),
(741,1772,cs),
(759,1864,o),
(705,1922,o),
(608,1922,cs),
(512,1922,o),
(436,1864,o),
(418,1772,cs),
(400,1679,o),
(453,1619,o),
(549,1619,cs)
);
},
{
closed = 1;
nodes = (
(1207,1619,o),
(1284,1679,o),
(1302,1772,cs),
(1320,1864,o),
(1266,1922,o),
(1169,1922,cs),
(1073,1922,o),
(997,1864,o),
(979,1772,cs),
(961,1679,o),
(1014,1619,o),
(1110,1619,cs)
);
}
);
width = 1240;
},
{
layerId = "8D453742-7B49-41B2-AE2A-3EBD26173AE1";
shapes = (
{
closed = 1;
nodes = (
(1121,1460,l),
(769,1460,l),
(-62,0,l),
(273,0,l),
(848,1053,l),
(863,1053,l),
(1053,0,l),
(1407,0,l)
);
},
{
closed = 1;
nodes = (
(1110,309,l),
(1156,543,l),
(389,543,l),
(343,309,l)
);
},
{
closed = 1;
nodes = (
(757,1645,o),
(834,1705,o),
(852,1798,cs),
(870,1890,o),
(816,1948,o),
(720,1948,cs),
(623,1948,o),
(547,1890,o),
(529,1798,cs),
(511,1705,o),
(564,1645,o),
(661,1645,cs)
);
},
{
closed = 1;
nodes = (
(1430,1645,o),
(1507,1705,o),
(1525,1798,cs),
(1543,1890,o),
(1489,1948,o),
(1393,1948,cs),
(1296,1948,o),
(1220,1890,o),
(1202,1798,cs),
(1184,1705,o),
(1237,1645,o),
(1334,1645,cs)
);
}
);
width = 1555;
},
{
layerId = "FCEBCCDD-9F1F-4D06-95BC-5606E8CBB848";
shapes = (
{
closed = 1;
nodes = (
(876,1460,l),
(738,1460,l),
(-25,0,l),
(99,0,l),
(771,1309,l),
(782,1309,l),
(945,0,l),
(1071,0,l)
);
},
{
closed = 1;
nodes = (
(939,447,l),
(959,552,l),
(296,552,l),
(276,447,l)
);
},
{
closed = 1;
nodes = (
(661,1663,o),
(711,1699,o),
(723,1761,cs),
(735,1823,o),
(699,1859,o),
(638,1859,cs),
(577,1859,o),
(527,1823,o),
(515,1761,cs),
(503,1699,o),
(539,1663,o),
(600,1663,cs)
);
},
{
closed = 1;
nodes = (
(1154,1663,o),
(1204,1699,o),
(1216,1761,cs),
(1228,1823,o),
(1192,1859,o),
(1131,1859,cs),
(1070,1859,o),
(1020,1823,o),
(1008,1761,cs),
(996,1699,o),
(1032,1663,o),
(1093,1663,cs)
);
}
);
width = 1240;
},
{
layerId = "58E9293A-5120-4E1E-8451-D6ECB5204CAC";
shapes = (
{
closed = 1;
nodes = (
(1034,1460,l),
(896,1460,l),
(-7,0,l),
(117,0,l),
(929,1309,l),
(940,1309,l),
(1243,0,l),
(1369,0,l)
);
},
{
closed = 1;
nodes = (
(1187,449,l),
(1207,552,l),
(374,552,l),
(354,449,l)
);
},
{
closed = 1;
nodes = (
(760,1663,o),
(811,1699,o),
(823,1761,cs),
(835,1823,o),
(798,1859,o),
(736,1859,cs),
(674,1859,o),
(623,1823,o),
(611,1761,cs),
(599,1699,o),
(636,1663,o),
(698,1663,cs)
);
},
{
closed = 1;
nodes = (
(1372,1663,o),
(1423,1699,o),
(1435,1761,cs),
(1447,1823,o),
(1410,1859,o),
(1348,1859,cs),
(1286,1859,o),
(1235,1823,o),
(1223,1761,cs),
(1211,1699,o),
(1248,1663,o),
(1310,1663,cs)
);
}
);
width = 1555;
}
);
unicode = 196;
},
{
glyphname = Adotbelow;
lastChange = "2024-04-27 00:07:48 +0000";
layers = (
{
layerId = "DA5CBF49-7F7A-4926-B587-2652260B0ABD";
shapes = (
{
closed = 1;
nodes = (
(793,1460,l),
(441,1460,l),
(18,0,l),
(353,0,l),
(599,985,l),
(614,985,l),
(868,0,l),
(1222,0,l)
);
},
{
closed = 1;
nodes = (
(989,303,l),
(989,537,l),
(278,537,l),
(278,303,l)
);
},
{
closed = 1;
nodes = (
(743,-528,o),
(826,-453,o),
(826,-337,cs),
(826,-221,o),
(743,-149,o),
(620,-149,cs),
(497,-149,o),
(414,-221,o),
(414,-337,cs),
(414,-453,o),
(497,-528,o),
(620,-528,cs)
);
}
);
width = 1240;
},
{
layerId = "DC524FA5-69B0-4541-AEAA-64C37A6100D8";
shapes = (
{
closed = 1;
nodes = (
(847,1460,l),
(709,1460,l),
(90,0,l),
(214,0,l),
(772,1309,l),
(783,1309,l),
(1340,0,l),
(1466,0,l)
);
},
{
closed = 1;
nodes = (
(1197,449,l),
(1197,552,l),
(364,552,l),
(364,449,l)
);
},
{
closed = 1;
nodes = (
(840,-509,o),
(884,-473,o),
(884,-411,cs),
(884,-349,o),
(840,-313,o),
(778,-313,cs),
(716,-313,o),
(672,-349,o),
(672,-411,cs),
(672,-473,o),
(716,-509,o),
(778,-509,cs)
);
}
);
width = 1555;
},
{
layerId = "0C0B9A44-4D66-4C06-AB4A-20867B2FE8E0";
shapes = (
{
closed = 1;
nodes = (
(942,1460,l),
(590,1460,l),
(43,0,l),
(378,0,l),
(748,1053,l),
(763,1053,l),
(1158,0,l),
(1512,0,l)
);
},
{
closed = 1;
nodes = (
(1155,309,l),
(1155,543,l),
(388,543,l),
(388,309,l)
);
},
{
closed = 1;
nodes = (
(901,-508,o),
(984,-433,o),
(984,-317,cs),
(984,-201,o),
(901,-129,o),
(778,-129,cs),
(655,-129,o),
(572,-201,o),
(572,-317,cs),
(572,-433,o),
(655,-508,o),
(778,-508,cs)
);
}
);
width = 1555;
},
{
layerId = "2B3680FA-30B6-467C-955F-2315D5D255F4";
shapes = (
{
closed = 1;
nodes = (
(689,1460,l),
(551,1460,l),
(72,0,l),
(196,0,l),
(614,1309,l),
(625,1309,l),
(1042,0,l),
(1168,0,l)
);
},
{
closed = 1;
nodes = (
(949,447,l),
(949,552,l),
(286,552,l),
(286,447,l)
);
},
{
closed = 1;
nodes = (
(682,-509,o),
(726,-473,o),
(726,-411,cs),
(726,-349,o),
(682,-313,o),
(620,-313,cs),
(558,-313,o),
(514,-349,o),
(514,-411,cs),
(514,-473,o),
(558,-509,o),
(620,-509,cs)
);
}
);
width = 1240;
},
{
layerId = "8B99F5F8-0F2E-47D1-851D-9A55DF2AB712";
shapes = (
{
closed = 1;
nodes = (
(972,1460,l),
(620,1460,l),
(-87,0,l),
(258,0,l),
(695,985,l),
(710,985,l),
(773,0,l),
(1117,0,l)
);
},
{
closed = 1;
nodes = (
(943,303,l),
(988,537,l),
(277,537,l),
(232,303,l)
);
},
{
closed = 1;
nodes = (
(535,-528,o),
(633,-453,o),
(655,-337,cs),
(678,-221,o),
(609,-149,o),
(486,-149,cs),
(363,-149,o),
(266,-221,o),
(243,-337,cs),
(221,-453,o),
(289,-528,o),
(412,-528,cs)
);
}
);
width = 1240;
},
{
layerId = "8D453742-7B49-41B2-AE2A-3EBD26173AE1";
shapes = (
{
closed = 1;
nodes = (
(1121,1460,l),
(769,1460,l),
(-62,0,l),
(273,0,l),
(848,1053,l),
(863,1053,l),
(1053,0,l),
(1407,0,l)
);
},
{
closed = 1;
nodes = (
(1110,309,l),
(1156,543,l),
(389,543,l),
(343,309,l)
);
},
{
closed = 1;
nodes = (
(697,-508,o),
(795,-433,o),
(817,-317,cs),
(840,-201,o),
(771,-129,o),
(648,-129,cs),
(525,-129,o),
(428,-201,o),
(405,-317,cs),
(383,-433,o),
(451,-508,o),
(574,-508,cs)
);
}
);
width = 1555;
},
{
layerId = "FCEBCCDD-9F1F-4D06-95BC-5606E8CBB848";
shapes = (
{
closed = 1;
nodes = (
(876,1460,l),
(738,1460,l),
(-25,0,l),
(99,0,l),
(771,1309,l),
(782,1309,l),
(945,0,l),
(1071,0,l)
);
},
{
closed = 1;
nodes = (
(939,447,l),
(959,552,l),
(296,552,l),
(276,447,l)
);
},
{
closed = 1;
nodes = (
(486,-509,o),
(537,-473,o),
(549,-411,cs),
(561,-349,o),
(524,-313,o),
(462,-313,cs),
(400,-313,o),
(349,-349,o),
(337,-411,cs),
(325,-473,o),
(362,-509,o),
(424,-509,cs)
);
}
);
width = 1240;
},
{
layerId = "58E9293A-5120-4E1E-8451-D6ECB5204CAC";
shapes = (
{
closed = 1;
nodes = (
(1034,1460,l),
(896,1460,l),
(-7,0,l),
(117,0,l),
(929,1309,l),
(940,1309,l),
(1243,0,l),
(1369,0,l)
);
},
{
closed = 1;
nodes = (
(1187,449,l),
(1207,552,l),
(374,552,l),
(354,449,l)
);
},
{
closed = 1;
nodes = (
(644,-509,o),
(695,-473,o),
(707,-411,cs),
(719,-349,o),
(682,-313,o),
(620,-313,cs),
(558,-313,o),
(507,-349,o),
(495,-411,cs),
(483,-473,o),
(520,-509,o),
(582,-509,cs)
);
}
);
width = 1555;
}
);
unicode = 7840;
},
{
glyphname = Agrave;
lastChange = "2024-04-27 00:07:48 +0000";
layers = (
{
layerId = "DA5CBF49-7F7A-4926-B587-2652260B0ABD";
shapes = (
{
closed = 1;
nodes = (
(793,1460,l),
(441,1460,l),
(18,0,l),
(353,0,l),
(599,985,l),
(614,985,l),
(868,0,l),
(1222,0,l)
);
},
{
closed = 1;
nodes = (
(989,303,l),
(989,537,l),
(278,537,l),
(278,303,l)
);
},
{
closed = 1;
nodes = (
(572,1877.386,l),
(227,1877.386,l),
(476,1619.05,l),
(755,1619.05,l)
);
}
);
width = 1240;
},
{
layerId = "DC524FA5-69B0-4541-AEAA-64C37A6100D8";
shapes = (
{
closed = 1;
nodes = (
(847,1460,l),
(709,1460,l),
(90,0,l),
(214,0,l),
(772,1309,l),
(783,1309,l),
(1340,0,l),
(1466,0,l)
);
},
{
closed = 1;
nodes = (
(1197,449,l),
(1197,552,l),
(364,552,l),
(364,449,l)
);
},
{
closed = 1;
nodes = (
(575,1883.57,l),
(422,1883.57,l),
(728,1652.076,l),
(847,1652.076,l)
);
}
);
width = 1555;
},
{
layerId = "0C0B9A44-4D66-4C06-AB4A-20867B2FE8E0";
shapes = (
{
closed = 1;
nodes = (
(942,1460,l),
(590,1460,l),
(43,0,l),
(378,0,l),
(748,1053,l),
(763,1053,l),
(1158,0,l),
(1512,0,l)
);
},
{
closed = 1;
nodes = (
(1155,309,l),
(1155,543,l),
(388,543,l),
(388,309,l)
);
},
{
closed = 1;
nodes = (
(712,1917.966,l),
(327,1917.966,l),
(618,1619.408,l),
(929,1619.408,l)
);
}
);
width = 1555;
},
{
layerId = "2B3680FA-30B6-467C-955F-2315D5D255F4";
shapes = (
{
closed = 1;
nodes = (
(689,1460,l),
(551,1460,l),
(72,0,l),
(196,0,l),
(614,1309,l),
(625,1309,l),
(1042,0,l),
(1168,0,l)
);
},
{
closed = 1;
nodes = (
(949,447,l),
(949,552,l),
(286,552,l),
(286,447,l)
);
},
{
closed = 1;
nodes = (
(462,1883.236,l),
(322,1883.236,l),
(575,1650.191,l),
(684,1650.191,l)
);
}
);
width = 1240;
},
{
layerId = "8B99F5F8-0F2E-47D1-851D-9A55DF2AB712";
shapes = (
{
closed = 1;
nodes = (
(972,1460,l),
(620,1460,l),
(-87,0,l),
(258,0,l),
(695,985,l),
(710,985,l),
(773,0,l),
(1117,0,l)
);
},
{
closed = 1;
nodes = (
(943,303,l),
(988,537,l),
(277,537,l),
(232,303,l)
);
},
{
closed = 1;
nodes = (
(832,1877,l),
(487,1877,l),
(686,1619,l),
(965,1619,l)
);
}
);
width = 1240;
},
{
layerId = "8D453742-7B49-41B2-AE2A-3EBD26173AE1";
shapes = (
{
closed = 1;
nodes = (
(1121,1460,l),
(769,1460,l),
(-62,0,l),
(273,0,l),
(848,1053,l),
(863,1053,l),
(1053,0,l),
(1407,0,l)
);
},
{
closed = 1;
nodes = (
(1110,309,l),
(1156,543,l),
(389,543,l),
(343,309,l)
);
},
{
closed = 1;
nodes = (
(980,1918,l),
(595,1918,l),
(828,1619,l),
(1139,1619,l)
);
}
);
width = 1555;
},
{
layerId = "FCEBCCDD-9F1F-4D06-95BC-5606E8CBB848";
shapes = (
{
closed = 1;
nodes = (
(876,1460,l),
(738,1460,l),
(-25,0,l),
(99,0,l),
(771,1309,l),
(782,1309,l),
(945,0,l),
(1071,0,l)
);
},
{
closed = 1;
nodes = (
(939,447,l),
(959,552,l),
(296,552,l),
(276,447,l)
);
},
{
closed = 1;
nodes = (
(731,1883,l),
(591,1883,l),
(799,1650,l),
(908,1650,l)
);
}
);
width = 1240;
},
{
layerId = "58E9293A-5120-4E1E-8451-D6ECB5204CAC";
shapes = (
{
closed = 1;
nodes = (
(1034,1460,l),
(896,1460,l),
(-7,0,l),
(117,0,l),
(929,1309,l),
(940,1309,l),
(1243,0,l),
(1369,0,l)
);
},
{
closed = 1;
nodes = (
(1187,449,l),
(1207,552,l),
(374,552,l),
(354,449,l)
);
},
{
closed = 1;
nodes = (
(844,1884,l),
(691,1884,l),
(952,1652,l),
(1071,1652,l)
);
}
);
width = 1555;
}
);
unicode = 192;
},
{
glyphname = Amacron;
lastChange = "2024-04-27 00:07:48 +0000";
layers = (
{
layerId = "DA5CBF49-7F7A-4926-B587-2652260B0ABD";
shapes = (
{
closed = 1;
nodes = (
(793,1460,l),
(441,1460,l),
(18,0,l),
(353,0,l),
(599,985,l),
(614,985,l),
(868,0,l),
(1222,0,l)
);
},
{
closed = 1;
nodes = (
(989,303,l),
(989,537,l),
(278,537,l),
(278,303,l)
);
},
{
closed = 1;
nodes = (
(271,1884,l),
(271,1691,l),
(969,1691,l),
(969,1884,l)
);
}
);
width = 1240;
},
{
layerId = "DC524FA5-69B0-4541-AEAA-64C37A6100D8";
shapes = (
{
closed = 1;
nodes = (
(847,1460,l),
(709,1460,l),
(90,0,l),
(214,0,l),
(772,1309,l),
(783,1309,l),
(1340,0,l),
(1466,0,l)
);
},
{
closed = 1;
nodes = (
(1197,449,l),
(1197,552,l),
(364,552,l),
(364,449,l)
);
},
{
closed = 1;
nodes = (
(363,1831,l),
(363,1731,l),
(1192,1731,l),
(1192,1831,l)
);
}
);
width = 1555;
},
{
layerId = "0C0B9A44-4D66-4C06-AB4A-20867B2FE8E0";
shapes = (
{
closed = 1;
nodes = (
(942,1460,l),
(590,1460,l),
(43,0,l),
(378,0,l),
(748,1053,l),
(763,1053,l),
(1158,0,l),
(1512,0,l)
);
},
{
closed = 1;
nodes = (
(1155,309,l),
(1155,543,l),
(388,543,l),
(388,309,l)
);
},
{
closed = 1;
nodes = (
(347,1884,l),
(347,1691,l),
(1208,1691,l),
(1208,1884,l)
);
}
);
width = 1555;
},
{
layerId = "2B3680FA-30B6-467C-955F-2315D5D255F4";
shapes = (
{
closed = 1;
nodes = (
(689,1460,l),
(551,1460,l),
(72,0,l),
(196,0,l),
(614,1309,l),
(625,1309,l),
(1042,0,l),
(1168,0,l)
);
},
{
closed = 1;
nodes = (
(949,447,l),
(949,552,l),
(286,552,l),
(286,447,l)
);
},
{
closed = 1;
nodes = (
(313,1831,l),
(313,1731,l),
(927,1731,l),
(927,1831,l)
);
}
);
width = 1240;
},
{
layerId = "8B99F5F8-0F2E-47D1-851D-9A55DF2AB712";
shapes = (
{
closed = 1;
nodes = (
(972,1460,l),
(620,1460,l),
(-87,0,l),
(258,0,l),
(695,985,l),
(710,985,l),
(773,0,l),
(1117,0,l)
);
},
{
closed = 1;
nodes = (
(943,303,l),
(988,537,l),
(277,537,l),
(232,303,l)
);
},
{
closed = 1;
nodes = (
(532,1884,l),
(495,1691,l),
(1193,1691,l),
(1230,1884,l)
);
}
);
width = 1240;
},
{
layerId = "8D453742-7B49-41B2-AE2A-3EBD26173AE1";
shapes = (
{
closed = 1;
nodes = (
(1121,1460,l),
(769,1460,l),
(-62,0,l),
(273,0,l),
(848,1053,l),
(863,1053,l),
(1053,0,l),
(1407,0,l)
);
},
{
closed = 1;
nodes = (
(1110,309,l),
(1156,543,l),
(389,543,l),
(343,309,l)
);
},
{
closed = 1;
nodes = (
(608,1884,l),
(571,1691,l),
(1432,1691,l),
(1469,1884,l)
);
}
);
width = 1555;
},
{
layerId = "FCEBCCDD-9F1F-4D06-95BC-5606E8CBB848";
shapes = (
{
closed = 1;
nodes = (
(876,1460,l),
(738,1460,l),
(-25,0,l),
(99,0,l),
(771,1309,l),
(782,1309,l),
(945,0,l),
(1071,0,l)
);
},
{
closed = 1;
nodes = (
(939,447,l),
(959,552,l),
(296,552,l),
(276,447,l)
);
},
{
closed = 1;
nodes = (
(572,1831,l),
(552,1731,l),
(1166,1731,l),
(1186,1831,l)
);
}
);
width = 1240;
},
{
layerId = "58E9293A-5120-4E1E-8451-D6ECB5204CAC";
shapes = (
{
closed = 1;
nodes = (
(1034,1460,l),
(896,1460,l),
(-7,0,l),
(117,0,l),
(929,1309,l),
(940,1309,l),
(1243,0,l),
(1369,0,l)
);
},
{
closed = 1;
nodes = (
(1187,449,l),
(1207,552,l),
(374,552,l),
(354,449,l)
);
},
{
closed = 1;
nodes = (
(622,1831,l),
(602,1731,l),
(1431,1731,l),
(1451,1831,l)
);
}
);
width = 1555;
}
);
unicode = 256;
},
{
glyphname = Aogonek;
lastChange = "2024-04-27 00:07:48 +0000";
layers = (
{
layerId = "DA5CBF49-7F7A-4926-B587-2652260B0ABD";
shapes = (
{
closed = 1;
nodes = (
(793,1460,l),
(441,1460,l),
(18,0,l),
(353,0,l),
(599,985,l),
(614,985,l),
(868,0,l),
(1222,0,l)
);
},
{
closed = 1;
nodes = (
(989,303,l),
(989,537,l),
(278,537,l),
(278,303,l)
);
},
{
closed = 1;
nodes = (
(852,-61,o),
(791,-145,o),
(791,-245,cs),
(791,-345,o),
(852,-443,o),
(1112,-443,cs),
(1222,-443,l),
(1222,-260,l),
(1193,-260,ls),
(1104,-260,o),
(1077,-227,o),
(1077,-181,cs),
(1077,-129,o),
(1112,-75,o),
(1222,0,c),
(987,37,l)
);
}
);
width = 1240;
},
{
layerId = "DC524FA5-69B0-4541-AEAA-64C37A6100D8";
shapes = (
{
closed = 1;
nodes = (
(847,1460,l),
(709,1460,l),
(90,0,l),
(214,0,l),
(772,1309,l),
(783,1309,l),
(1340,0,l),
(1466,0,l)
);
},
{
closed = 1;
nodes = (
(1197,449,l),
(1197,552,l),
(364,552,l),
(364,449,l)
);
},
{
closed = 1;
nodes = (
(1254,-70,o),
(1182,-146,o),
(1182,-248,cs),
(1182,-328,o),
(1227,-400,o),
(1412,-400,cs),
(1466,-400,l),
(1466,-293,l),
(1437,-293,ls),
(1325,-293,o),
(1288,-270,o),
(1288,-218,cs),
(1288,-159,o),
(1335,-95,o),
(1466,0,c),
(1408,37,l)
);
}
);
width = 1555;
},
{
layerId = "0C0B9A44-4D66-4C06-AB4A-20867B2FE8E0";
shapes = (
{
closed = 1;
nodes = (
(942,1460,l),
(590,1460,l),
(43,0,l),
(378,0,l),
(748,1053,l),
(763,1053,l),
(1158,0,l),
(1512,0,l)
);
},
{
closed = 1;
nodes = (
(1155,309,l),
(1155,543,l),
(388,543,l),
(388,309,l)
);
},
{
closed = 1;
nodes = (
(1113,-69,o),
(1040,-161,o),
(1040,-267,cs),
(1040,-354,o),
(1089,-455,o),
(1344,-455,cs),
(1512,-455,l),
(1512,-272,l),
(1486,-272,ls),
(1383,-272,o),
(1342,-249,o),
(1342,-198,cs),
(1342,-142,o),
(1392,-77,o),
(1512,0,c),
(1306,49,l)
);
}
);
width = 1555;
},
{
layerId = "2B3680FA-30B6-467C-955F-2315D5D255F4";
shapes = (
{
closed = 1;
nodes = (
(689,1460,l),
(551,1460,l),
(72,0,l),
(196,0,l),
(614,1309,l),
(625,1309,l),
(1042,0,l),
(1168,0,l)
);
},
{
closed = 1;
nodes = (
(949,447,l),
(949,552,l),
(286,552,l),
(286,447,l)
);
},
{
closed = 1;
nodes = (
(986,-70,o),
(924,-152,o),
(924,-248,cs),
(924,-324,o),
(963,-400,o),
(1114,-400,cs),
(1168,-400,l),
(1168,-293,l),
(1139,-293,ls),
(1059,-293,o),
(1030,-265,o),
(1030,-218,cs),
(1030,-165,o),
(1067,-95,o),
(1168,0,c),
(1110,37,l)
);
}
);
width = 1240;
},
{
layerId = "8B99F5F8-0F2E-47D1-851D-9A55DF2AB712";
shapes = (
{
closed = 1;
nodes = (
(972,1460,l),
(620,1460,l),
(-87,0,l),
(258,0,l),
(695,985,l),
(710,985,l),
(773,0,l),
(1117,0,l)
);
},
{
closed = 1;
nodes = (
(943,303,l),
(988,537,l),
(277,537,l),
(232,303,l)
);
},
{
closed = 1;
nodes = (
(735,-61,o),
(658,-145,o),
(638,-245,cs),
(619,-345,o),
(661,-443,o),
(921,-443,cs),
(1031,-443,l),
(1066,-260,l),
(1037,-260,ls),
(948,-260,o),
(928,-227,o),
(937,-181,cs),
(947,-129,o),
(992,-75,o),
(1117,0,c),
(889,37,l)
);
}
);
width = 1240;
},
{
layerId = "8D453742-7B49-41B2-AE2A-3EBD26173AE1";
shapes = (
{
closed = 1;
nodes = (
(1121,1460,l),
(769,1460,l),
(-62,0,l),
(273,0,l),
(848,1053,l),
(863,1053,l),
(1053,0,l),
(1407,0,l)
);
},
{
closed = 1;
nodes = (
(1110,309,l),
(1156,543,l),
(389,543,l),
(343,309,l)
);
},
{
closed = 1;
nodes = (
(995,-69,o),
(904,-161,o),
(883,-267,cs),
(866,-354,o),
(896,-455,o),
(1151,-455,cs),
(1319,-455,l),
(1354,-272,l),
(1328,-272,ls),
(1225,-272,o),
(1189,-249,o),
(1199,-198,cs),
(1209,-142,o),
(1272,-77,o),
(1407,0,c),
(1211,49,l)
);
}
);
width = 1555;
},
{
layerId = "FCEBCCDD-9F1F-4D06-95BC-5606E8CBB848";
shapes = (
{
closed = 1;
nodes = (
(876,1460,l),
(738,1460,l),
(-25,0,l),
(99,0,l),
(771,1309,l),
(782,1309,l),
(945,0,l),
(1071,0,l)
);
},
{
closed = 1;
nodes = (
(939,447,l),
(959,552,l),
(296,552,l),
(276,447,l)
);
},
{
closed = 1;
nodes = (
(875,-70,o),
(797,-152,o),
(779,-248,cs),
(764,-324,o),
(788,-400,o),
(939,-400,cs),
(993,-400,l),
(1014,-293,l),
(985,-293,ls),
(905,-293,o),
(881,-265,o),
(891,-218,cs),
(901,-165,o),
(952,-95,o),
(1071,0,c),
(1020,37,l)
);
}
);
width = 1240;
},
{
layerId = "58E9293A-5120-4E1E-8451-D6ECB5204CAC";
shapes = (
{
closed = 1;
nodes = (
(1034,1460,l),
(896,1460,l),
(-7,0,l),
(117,0,l),
(929,1309,l),
(940,1309,l),
(1243,0,l),
(1369,0,l)
);
},
{
closed = 1;
nodes = (
(1187,449,l),
(1207,552,l),
(374,552,l),
(354,449,l)
);
},
{
closed = 1;
nodes = (
(1143,-70,o),
(1057,-146,o),
(1037,-248,cs),
(1021,-328,o),
(1052,-400,o),
(1237,-400,cs),
(1291,-400,l),
(1312,-293,l),
(1283,-293,ls),
(1171,-293,o),
(1139,-270,o),
(1149,-218,cs),
(1160,-159,o),
(1220,-95,o),
(1369,0,c),
(1318,37,l)
);
}
);
width = 1555;
}
);
unicode = 260;
},
{
glyphname = Aring;
lastChange = "2024-04-27 00:07:48 +0000";
layers = (
{
layerId = "DA5CBF49-7F7A-4926-B587-2652260B0ABD";
shapes = (
{
closed = 1;
nodes = (
(793,1460,l),
(441,1460,l),
(18,0,l),
(353,0,l),
(599,985,l),
(614,985,l),
(868,0,l),
(1222,0,l)
);
},
{
closed = 1;
nodes = (
(989,303,l),
(989,537,l),
(278,537,l),
(278,303,l)
);
},
{
closed = 1;
nodes = (
(764,1387,o),
(865,1494,o),
(865,1639,cs),
(865,1784,o),
(764,1890,o),
(620,1890,cs),
(476,1890,o),
(375,1784,o),
(375,1639,cs),
(375,1494,o),
(476,1387,o),
(620,1387,cs)
);
},
{
closed = 1;
nodes = (
(545,1513,o),
(497,1567,o),
(497,1639,cs),
(497,1711,o),
(545,1764,o),
(620,1764,cs),
(695,1764,o),
(742,1711,o),
(742,1639,cs),
(742,1567,o),
(695,1513,o),
(620,1513,cs)
);
}
);
width = 1240;
},
{
layerId = "DC524FA5-69B0-4541-AEAA-64C37A6100D8";
shapes = (
{
closed = 1;
nodes = (
(847,1460,l),
(709,1460,l),
(90,0,l),
(214,0,l),
(772,1309,l),
(783,1309,l),
(1340,0,l),
(1466,0,l)
);
},
{
closed = 1;
nodes = (
(1197,449,l),
(1197,552,l),
(364,552,l),
(364,449,l)
);
},
{
closed = 1;
nodes = (
(905,1413,o),
(995,1508,o),
(995,1637,cs),
(995,1766,o),
(905,1860,o),
(777,1860,cs),
(649,1860,o),
(559,1766,o),
(559,1637,cs),
(559,1508,o),
(649,1413,o),
(777,1413,cs)
);
},
{
closed = 1;
nodes = (
(693,1495,o),
(639,1556,o),
(639,1637,cs),
(639,1718,o),
(693,1778,o),
(777,1778,cs),
(861,1778,o),
(914,1718,o),
(914,1637,cs),
(914,1556,o),
(861,1495,o),
(777,1495,cs)
);
}
);
width = 1555;
},
{
layerId = "0C0B9A44-4D66-4C06-AB4A-20867B2FE8E0";
shapes = (
{
closed = 1;
nodes = (
(942,1460,l),
(590,1460,l),
(43,0,l),
(378,0,l),
(748,1053,l),
(763,1053,l),
(1158,0,l),
(1512,0,l)
);
},
{
closed = 1;
nodes = (
(1155,309,l),
(1155,543,l),
(388,543,l),
(388,309,l)
);
},
{
closed = 1;
nodes = (
(910,1388,o),
(1011,1495,o),
(1011,1640,cs),
(1011,1785,o),
(910,1891,o),
(766,1891,cs),
(622,1891,o),
(521,1785,o),
(521,1640,cs),
(521,1495,o),
(622,1388,o),
(766,1388,cs)
);
},
{
closed = 1;
nodes = (
(691,1514,o),
(643,1568,o),
(643,1640,cs),
(643,1712,o),
(691,1765,o),
(766,1765,cs),
(841,1765,o),
(888,1712,o),
(888,1640,cs),
(888,1568,o),
(841,1514,o),
(766,1514,cs)
);
}
);
width = 1555;
},
{
layerId = "2B3680FA-30B6-467C-955F-2315D5D255F4";
shapes = (
{
closed = 1;
nodes = (
(689,1460,l),
(551,1460,l),
(72,0,l),
(196,0,l),
(614,1309,l),
(625,1309,l),
(1042,0,l),
(1168,0,l)
);
},
{
closed = 1;
nodes = (
(949,447,l),
(949,552,l),
(286,552,l),
(286,447,l)
);
},
{
closed = 1;
nodes = (
(748,1413,o),
(838,1508,o),
(838,1637,cs),
(838,1766,o),
(748,1860,o),
(620,1860,cs),
(492,1860,o),
(402,1766,o),
(402,1637,cs),
(402,1508,o),
(492,1413,o),
(620,1413,cs)
);
},
{
closed = 1;
nodes = (
(536,1495,o),
(482,1556,o),
(482,1637,cs),
(482,1718,o),
(536,1778,o),
(620,1778,cs),
(704,1778,o),
(757,1718,o),
(757,1637,cs),
(757,1556,o),
(704,1495,o),
(620,1495,cs)
);
}
);
width = 1240;
},
{
layerId = "8B99F5F8-0F2E-47D1-851D-9A55DF2AB712";
shapes = (
{
closed = 1;
nodes = (
(972,1460,l),
(620,1460,l),
(-87,0,l),
(258,0,l),
(695,985,l),
(710,985,l),
(773,0,l),
(1117,0,l)
);
},
{
closed = 1;
nodes = (
(943,303,l),
(988,537,l),
(277,537,l),
(232,303,l)
);
},
{
closed = 1;
nodes = (
(929,1387,o),
(1050,1494,o),
(1079,1639,cs),
(1107,1784,o),
(1026,1890,o),
(882,1890,cs),
(738,1890,o),
(617,1784,o),
(589,1639,cs),
(560,1494,o),
(641,1387,o),
(785,1387,cs)
);
},
{
closed = 1;
nodes = (
(734,1513,o),
(697,1567,o),
(711,1639,cs),
(725,1711,o),
(783,1764,o),
(858,1764,cs),
(933,1764,o),
(970,1711,o),
(956,1639,cs),
(942,1567,o),
(884,1513,o),
(809,1513,cs)
);
}
);
width = 1240;
},
{
layerId = "8D453742-7B49-41B2-AE2A-3EBD26173AE1";
shapes = (
{
closed = 1;
nodes = (
(1121,1460,l),
(769,1460,l),
(-62,0,l),
(273,0,l),
(848,1053,l),
(863,1053,l),
(1053,0,l),
(1407,0,l)
);
},
{
closed = 1;
nodes = (
(1110,309,l),
(1156,543,l),
(389,543,l),
(343,309,l)
);
},
{
closed = 1;
nodes = (
(1075,1388,o),
(1197,1495,o),
(1225,1640,cs),
(1253,1785,o),
(1173,1891,o),
(1029,1891,cs),
(885,1891,o),
(763,1785,o),
(735,1640,cs),
(707,1495,o),
(787,1388,o),
(931,1388,cs)
);
},
{
closed = 1;
nodes = (
(880,1514,o),
(843,1568,o),
(857,1640,cs),
(871,1712,o),
(929,1765,o),
(1004,1765,cs),
(1079,1765,o),
(1116,1712,o),
(1102,1640,cs),
(1088,1568,o),
(1030,1514,o),
(955,1514,cs)
);
}
);
width = 1555;
},
{
layerId = "FCEBCCDD-9F1F-4D06-95BC-5606E8CBB848";
shapes = (
{
closed = 1;
nodes = (
(876,1460,l),
(738,1460,l),
(-25,0,l),
(99,0,l),
(771,1309,l),
(782,1309,l),
(945,0,l),
(1071,0,l)
);
},
{
closed = 1;
nodes = (
(939,447,l),
(959,552,l),
(296,552,l),
(276,447,l)
);
},
{
closed = 1;
nodes = (
(926,1413,o),
(1034,1508,o),
(1059,1637,cs),
(1084,1766,o),
(1013,1860,o),
(885,1860,cs),
(757,1860,o),
(648,1766,o),
(623,1637,cs),
(598,1508,o),
(670,1413,o),
(798,1413,cs)
);
},
{
closed = 1;
nodes = (
(730,1495,o),
(687,1556,o),
(703,1637,cs),
(719,1718,o),
(785,1778,o),
(869,1778,cs),
(953,1778,o),
(994,1718,o),
(978,1637,cs),
(962,1556,o),
(898,1495,o),
(814,1495,cs)
);
}
);
width = 1240;
},
{
layerId = "58E9293A-5120-4E1E-8451-D6ECB5204CAC";
shapes = (
{
closed = 1;
nodes = (
(1034,1460,l),
(896,1460,l),
(-7,0,l),
(117,0,l),
(929,1309,l),
(940,1309,l),
(1243,0,l),
(1369,0,l)
);
},
{
closed = 1;
nodes = (
(1187,449,l),
(1207,552,l),
(374,552,l),
(354,449,l)
);
},
{
closed = 1;
nodes = (
(1083,1413,o),
(1191,1508,o),
(1216,1637,cs),
(1241,1766,o),
(1170,1860,o),
(1042,1860,cs),
(914,1860,o),
(805,1766,o),
(780,1637,cs),
(755,1508,o),
(827,1413,o),
(955,1413,cs)
);
},
{
closed = 1;
nodes = (
(887,1495,o),
(844,1556,o),
(860,1637,cs),
(876,1718,o),
(942,1778,o),
(1026,1778,cs),
(1110,1778,o),
(1151,1718,o),
(1135,1637,cs),
(1119,1556,o),
(1055,1495,o),
(971,1495,cs)
);
}
);
width = 1555;
}
);
unicode = 197;
},
{
glyphname = Atilde;
lastChange = "2024-04-27 00:07:48 +0000";
layers = (
{
layerId = "DA5CBF49-7F7A-4926-B587-2652260B0ABD";
shapes = (
{
closed = 1;
nodes = (
(793,1460,l),
(441,1460,l),
(18,0,l),
(353,0,l),
(599,985,l),
(614,985,l),
(868,0,l),
(1222,0,l)
);
},
{
closed = 1;
nodes = (
(989,303,l),
(989,537,l),
(278,537,l),
(278,303,l)
);
},
{
closed = 1;
nodes = (
(291,1903,o),
(197,1807,o),
(178,1642,c),
(388,1603,l),
(400,1685,o),
(441,1723,o),
(496,1723,cs),
(595,1723,o),
(658,1599,o),
(812,1599,cs),
(948,1599,o),
(1043,1695,o),
(1062,1860,c),
(852,1899,l),
(840,1816,o),
(799,1779,o),
(744,1779,cs),
(644,1779,o),
(581,1903,o),
(427,1903,cs)
);
}
);
width = 1240;
},
{
layerId = "DC524FA5-69B0-4541-AEAA-64C37A6100D8";
shapes = (
{
closed = 1;
nodes = (
(847,1460,l),
(709,1460,l),
(90,0,l),
(214,0,l),
(772,1309,l),
(783,1309,l),
(1340,0,l),
(1466,0,l)
);
},
{
closed = 1;
nodes = (
(1197,449,l),
(1197,552,l),
(364,552,l),
(364,449,l)
);
},
{
closed = 1;
nodes = (
(437,1894,o),
(344,1821,o),
(318,1688,c),
(416,1662,l),
(439,1754,o),
(502,1802,o),
(582,1802,cs),
(727,1802,o),
(772,1643,o),
(978,1643,cs),
(1117,1643,o),
(1211,1716,o),
(1237,1850,c),
(1140,1875,l),
(1116,1783,o),
(1054,1735,o),
(974,1735,cs),
(829,1735,o),
(782,1894,o),
(576,1894,cs)
);
}
);
width = 1555;
},
{
layerId = "0C0B9A44-4D66-4C06-AB4A-20867B2FE8E0";
shapes = (
{
closed = 1;
nodes = (
(942,1460,l),
(590,1460,l),
(43,0,l),
(378,0,l),
(748,1053,l),
(763,1053,l),
(1158,0,l),
(1512,0,l)
);
},
{
closed = 1;
nodes = (
(1155,309,l),
(1155,543,l),
(388,543,l),
(388,309,l)
);
},
{
closed = 1;
nodes = (
(404,1905,o),
(312,1809,o),
(289,1644,c),
(510,1605,l),
(525,1687,o),
(554,1725,o),
(619,1725,cs),
(737,1725,o),
(804,1601,o),
(988,1601,cs),
(1150,1601,o),
(1244,1697,o),
(1266,1862,c),
(1045,1901,l),
(1030,1818,o),
(1001,1781,o),
(936,1781,cs),
(817,1781,o),
(750,1905,o),
(566,1905,cs)
);
}
);
width = 1555;
},
{
layerId = "2B3680FA-30B6-467C-955F-2315D5D255F4";
shapes = (
{
closed = 1;
nodes = (
(689,1460,l),
(551,1460,l),
(72,0,l),
(196,0,l),
(614,1309,l),
(625,1309,l),
(1042,0,l),
(1168,0,l)
);
},
{
closed = 1;
nodes = (
(949,447,l),
(949,552,l),
(286,552,l),
(286,447,l)
);
},
{
closed = 1;
nodes = (
(359,1894,o),
(288,1821,o),
(268,1688,c),
(358,1662,l),
(376,1746,o),
(417,1795,o),
(476,1795,cs),
(580,1795,o),
(614,1643,o),
(771,1643,cs),
(880,1643,o),
(952,1716,o),
(972,1849,c),
(882,1875,l),
(864,1791,o),
(824,1742,o),
(765,1742,cs),
(661,1742,o),
(625,1894,o),
(468,1894,cs)
);
}
);
width = 1240;
},
{
layerId = "8B99F5F8-0F2E-47D1-851D-9A55DF2AB712";
shapes = (
{
closed = 1;
nodes = (
(972,1460,l),
(620,1460,l),
(-87,0,l),
(258,0,l),
(695,985,l),
(710,985,l),
(773,0,l),
(1117,0,l)
);
},
{
closed = 1;
nodes = (
(943,303,l),
(988,537,l),
(277,537,l),
(232,303,l)
);
},
{
closed = 1;
nodes = (
(556,1903,o),
(443,1807,o),
(392,1642,c),
(595,1603,l),
(623,1685,o),
(671,1723,o),
(726,1723,cs),
(825,1723,o),
(864,1599,o),
(1018,1599,cs),
(1154,1599,o),
(1267,1695,o),
(1319,1860,c),
(1116,1899,l),
(1088,1816,o),
(1040,1779,o),
(985,1779,cs),
(885,1779,o),
(846,1903,o),
(692,1903,cs)
);
}
);
width = 1240;
},
{
layerId = "8D453742-7B49-41B2-AE2A-3EBD26173AE1";
shapes = (
{
closed = 1;
nodes = (
(1121,1460,l),
(769,1460,l),
(-62,0,l),
(273,0,l),
(848,1053,l),
(863,1053,l),
(1053,0,l),
(1407,0,l)
);
},
{
closed = 1;
nodes = (
(1110,309,l),
(1156,543,l),
(389,543,l),
(343,309,l)
);
},
{
closed = 1;
nodes = (
(669,1905,o),
(559,1809,o),
(504,1644,c),
(717,1605,l),
(748,1687,o),
(784,1725,o),
(849,1725,cs),
(967,1725,o),
(1010,1601,o),
(1194,1601,cs),
(1356,1601,o),
(1469,1697,o),
(1523,1862,c),
(1310,1901,l),
(1278,1818,o),
(1242,1781,o),
(1177,1781,cs),
(1058,1781,o),
(1015,1905,o),
(831,1905,cs)
);
}
);
width = 1555;
},
{
layerId = "FCEBCCDD-9F1F-4D06-95BC-5606E8CBB848";
shapes = (
{
closed = 1;
nodes = (
(876,1460,l),
(738,1460,l),
(-25,0,l),
(99,0,l),
(771,1309,l),
(782,1309,l),
(945,0,l),
(1071,0,l)
);
},
{
closed = 1;
nodes = (
(939,447,l),
(959,552,l),
(296,552,l),
(276,447,l)
);
},
{
closed = 1;
nodes = (
(630,1894,o),
(545,1821,o),
(499,1688,c),
(584,1662,l),
(618,1746,o),
(669,1795,o),
(728,1795,cs),
(832,1795,o),
(836,1643,o),
(993,1643,cs),
(1102,1643,o),
(1189,1716,o),
(1234,1849,c),
(1149,1875,l),
(1115,1791,o),
(1066,1742,o),
(1007,1742,cs),
(903,1742,o),
(896,1894,o),
(739,1894,cs)
);
}
);
width = 1240;
},
{
layerId = "58E9293A-5120-4E1E-8451-D6ECB5204CAC";
shapes = (
{
closed = 1;
nodes = (
(1034,1460,l),
(896,1460,l),
(-7,0,l),
(117,0,l),
(929,1309,l),
(940,1309,l),
(1243,0,l),
(1369,0,l)
);
},
{
closed = 1;
nodes = (
(1187,449,l),
(1207,552,l),
(374,552,l),
(354,449,l)
);
},
{
closed = 1;
nodes = (
(708,1894,o),
(601,1821,o),
(549,1688,c),
(642,1662,l),
(683,1754,o),
(755,1802,o),
(835,1802,cs),
(980,1802,o),
(994,1643,o),
(1200,1643,cs),
(1339,1643,o),
(1448,1716,o),
(1500,1850,c),
(1407,1875,l),
(1366,1783,o),
(1294,1735,o),
(1214,1735,cs),
(1069,1735,o),
(1053,1894,o),
(847,1894,cs)
);
}
);
width = 1555;
}
);
unicode = 195;
},
{
glyphname = AE;
lastChange = "2024-04-27 00:07:48 +0000";
layers = (
{
layerId = "DA5CBF49-7F7A-4926-B587-2652260B0ABD";
shapes = (
{
closed = 1;
nodes = (
(911,1460,l),
(612,1460,l),
(612,0,l),
(911,0,l)
);
},
{
closed = 1;
nodes = (
(743,271,l),
(743,0,l),
(1180,0,l),
(1180,271,l)
);
},
{
closed = 1;
nodes = (
(773,856,l),
(773,599,l),
(1105,599,l),
(1105,856,l)
);
},
{
closed = 1;
nodes = (
(1180,1460,l),
(743,1460,l),
(743,1189,l),
(1180,1189,l)
);
},
{
closed = 1;
nodes = (
(688,1460,l),
(292,1460,l),
(18,0,l),
(348,0,l),
(527,1189,l),
(688,1189,l)
);
},
{
closed = 1;
nodes = (
(773,303,l),
(773,537,l),
(278,537,l),
(278,303,l)
);
}
);
width = 1240;
},
{
layerId = "DC524FA5-69B0-4541-AEAA-64C37A6100D8";
shapes = (
{
closed = 1;
nodes = (
(920,1460,l),
(794,1460,l),
(794,0,l),
(920,0,l)
);
},
{
closed = 1;
nodes = (
(879,110,l),
(879,0,l),
(1412,0,l),
(1412,110,l)
);
},
{
closed = 1;
nodes = (
(879,799,l),
(879,694,l),
(1289,694,l),
(1289,799,l)
);
},
{
closed = 1;
nodes = (
(1412,1460,l),
(879,1460,l),
(879,1350,l),
(1412,1350,l)
);
},
{
closed = 1;
nodes = (
(856,1460,l),
(592,1460,l),
(86,0,l),
(210,0,l),
(672,1350,l),
(856,1350,l)
);
},
{
closed = 1;
nodes = (
(833,447,l),
(833,552,l),
(319,552,l),
(319,447,l)
);
}
);
width = 1555;
},
{
layerId = "0C0B9A44-4D66-4C06-AB4A-20867B2FE8E0";
shapes = (
{
closed = 1;
nodes = (
(1078,1460,l),
(749,1460,l),
(749,0,l),
(1078,0,l)
);
},
{
closed = 1;
nodes = (
(896,271,l),
(896,0,l),
(1464,0,l),
(1464,271,l)
);
},
{
closed = 1;
nodes = (
(926,856,l),
(926,599,l),
(1339,599,l),
(1339,856,l)
);
},
{
closed = 1;
nodes = (
(1464,1460,l),
(896,1460,l),
(896,1189,l),
(1464,1189,l)
);
},
{
closed = 1;
nodes = (
(847,1460,l),
(411,1460,l),
(27,0,l),
(362,0,l),
(640,1189,l),
(847,1189,l)
);
},
{
closed = 1;
nodes = (
(882,303,l),
(882,537,l),
(287,537,l),
(287,303,l)
);
}
);
width = 1555;
},
{
layerId = "2B3680FA-30B6-467C-955F-2315D5D255F4";
shapes = (
{
closed = 1;
nodes = (
(770,1460,l),
(644,1460,l),
(644,0,l),
(770,0,l)
);
},
{
closed = 1;
nodes = (
(729,110,l),
(729,0,l),
(1120,0,l),
(1120,110,l)
);
},
{
closed = 1;
nodes = (
(729,799,l),
(729,694,l),
(1047,694,l),
(1047,799,l)
);
},
{
closed = 1;
nodes = (
(1120,1460,l),
(729,1460,l),
(729,1350,l),
(1120,1350,l)
);
},
{
closed = 1;
nodes = (
(684,1460,l),
(471,1460,l),
(72,0,l),
(196,0,l),
(555,1350,l),
(684,1350,l)
);
},
{
closed = 1;
nodes = (
(729,447,l),
(729,552,l),
(276,552,l),
(276,447,l)
);
}
);
width = 1240;
},
{
layerId = "8B99F5F8-0F2E-47D1-851D-9A55DF2AB712";
shapes = (
{
closed = 1;
nodes = (
(1090,1460,l),
(791,1460,l),
(507,0,l),
(806,0,l)
);
},
{
closed = 1;
nodes = (
(691,271,l),
(638,0,l),
(1075,0,l),
(1128,271,l)
);
},
{
closed = 1;
nodes = (
(834,856,l),
(784,599,l),
(1116,599,l),
(1166,856,l)
);
},
{
closed = 1;
nodes = (
(1359,1460,l),
(922,1460,l),
(869,1189,l),
(1306,1189,l)
);
},
{
closed = 1;
nodes = (
(867,1460,l),
(471,1460,l),
(-87,0,l),
(243,0,l),
(653,1189,l),
(814,1189,l)
);
},
{
closed = 1;
nodes = (
(727,303,l),
(772,537,l),
(277,537,l),
(232,303,l)
);
}
);
width = 1240;
},
{
layerId = "8D453742-7B49-41B2-AE2A-3EBD26173AE1";
shapes = (
{
closed = 1;
nodes = (
(1257,1460,l),
(928,1460,l),
(644,0,l),
(973,0,l)
);
},
{
closed = 1;
nodes = (
(844,271,l),
(791,0,l),
(1359,0,l),
(1412,271,l)
);
},
{
closed = 1;
nodes = (
(987,856,l),
(937,599,l),
(1350,599,l),
(1400,856,l)
);
},
{
closed = 1;
nodes = (
(1643,1460,l),
(1075,1460,l),
(1022,1189,l),
(1590,1189,l)
);
},
{
closed = 1;
nodes = (
(1026,1460,l),
(590,1460,l),
(-78,0,l),
(257,0,l),
(766,1189,l),
(973,1189,l)
);
},
{
closed = 1;
nodes = (
(836,303,l),
(881,537,l),
(286,537,l),
(241,303,l)
);
}
);
width = 1555;
},
{
layerId = "FCEBCCDD-9F1F-4D06-95BC-5606E8CBB848";
shapes = (
{
closed = 1;
nodes = (
(957,1460,l),
(831,1460,l),
(547,0,l),
(673,0,l)
);
},
{
closed = 1;
nodes = (
(653,110,l),
(632,0,l),
(1023,0,l),
(1044,110,l)
);
},
{
closed = 1;
nodes = (
(787,799,l),
(767,694,l),
(1085,694,l),
(1105,799,l)
);
},
{
closed = 1;
nodes = (
(1307,1460,l),
(916,1460,l),
(894,1350,l),
(1285,1350,l)
);
},
{
closed = 1;
nodes = (
(871,1460,l),
(658,1460,l),
(-25,0,l),
(99,0,l),
(720,1350,l),
(849,1350,l)
);
},
{
closed = 1;
nodes = (
(719,447,l),
(739,552,l),
(286,552,l),
(266,447,l)
);
}
);
width = 1240;
},
{
layerId = "58E9293A-5120-4E1E-8451-D6ECB5204CAC";
shapes = (
{
closed = 1;
nodes = (
(1107,1460,l),
(981,1460,l),
(697,0,l),
(823,0,l)
);
},
{
closed = 1;
nodes = (
(803,110,l),
(782,0,l),
(1315,0,l),
(1336,110,l)
);
},
{
closed = 1;
nodes = (
(937,799,l),
(917,694,l),
(1327,694,l),
(1347,799,l)
);
},
{
closed = 1;
nodes = (
(1599,1460,l),
(1066,1460,l),
(1044,1350,l),
(1577,1350,l)
);
},
{
closed = 1;
nodes = (
(1043,1460,l),
(779,1460,l),
(-11,0,l),
(113,0,l),
(837,1350,l),
(1021,1350,l)
);
},
{
closed = 1;
nodes = (
(823,447,l),
(843,552,l),
(329,552,l),
(309,447,l)
);
}
);
width = 1555;
}
);
unicode = 198;
},
{
glyphname = AEacute;
lastChange = "2024-04-27 00:07:48 +0000";
layers = (
{
layerId = "DA5CBF49-7F7A-4926-B587-2652260B0ABD";
shapes = (
{
closed = 1;
nodes = (
(911,1460,l),
(612,1460,l),
(612,0,l),
(911,0,l)
);
},
{
closed = 1;
nodes = (
(743,271,l),
(743,0,l),
(1180,0,l),
(1180,271,l)
);
},
{
closed = 1;
nodes = (
(773,856,l),
(773,599,l),
(1105,599,l),
(1105,856,l)
);
},
{
closed = 1;
nodes = (
(1180,1460,l),
(743,1460,l),
(743,1189,l),
(1180,1189,l)
);
},
{
closed = 1;
nodes = (
(688,1460,l),
(292,1460,l),
(18,0,l),
(348,0,l),
(527,1189,l),
(688,1189,l)
);
},
{
closed = 1;
nodes = (
(773,303,l),
(773,537,l),
(278,537,l),
(278,303,l)
);
},
{
closed = 1;
nodes = (
(784,1877.386,l),
(1129,1877.386,l),
(880,1619.05,l),
(601,1619.05,l)
);
}
);
width = 1240;
},
{
layerId = "DC524FA5-69B0-4541-AEAA-64C37A6100D8";
shapes = (
{
closed = 1;
nodes = (
(920,1460,l),
(794,1460,l),
(794,0,l),
(920,0,l)
);
},
{
closed = 1;
nodes = (
(879,110,l),
(879,0,l),
(1412,0,l),
(1412,110,l)
);
},
{
closed = 1;
nodes = (
(879,799,l),
(879,694,l),
(1289,694,l),
(1289,799,l)
);
},
{
closed = 1;
nodes = (
(1412,1460,l),
(879,1460,l),
(879,1350,l),
(1412,1350,l)
);
},
{
closed = 1;
nodes = (
(856,1460,l),
(592,1460,l),
(86,0,l),
(210,0,l),
(672,1350,l),
(856,1350,l)
);
},
{
closed = 1;
nodes = (
(833,447,l),
(833,552,l),
(319,552,l),
(319,447,l)
);
},
{
closed = 1;
nodes = (
(1214,1884,l),
(1367,1884,l),
(1061,1652,l),
(942,1652,l)
);
}
);
width = 1555;
},
{
layerId = "0C0B9A44-4D66-4C06-AB4A-20867B2FE8E0";
shapes = (
{
closed = 1;
nodes = (
(1078,1460,l),
(749,1460,l),
(749,0,l),
(1078,0,l)
);
},
{
closed = 1;
nodes = (
(896,271,l),
(896,0,l),
(1464,0,l),
(1464,271,l)
);
},
{
closed = 1;
nodes = (
(926,856,l),
(926,599,l),
(1339,599,l),
(1339,856,l)
);
},
{
closed = 1;
nodes = (
(1464,1460,l),
(896,1460,l),
(896,1189,l),
(1464,1189,l)
);
},
{
closed = 1;
nodes = (
(847,1460,l),
(411,1460,l),
(27,0,l),
(362,0,l),
(640,1189,l),
(847,1189,l)
);
},
{
closed = 1;
nodes = (
(882,303,l),
(882,537,l),
(287,537,l),
(287,303,l)
);
},
{
closed = 1;
nodes = (
(989,1918,l),
(1374,1918,l),
(1083,1619,l),
(772,1619,l)
);
}
);
width = 1555;
},
{
layerId = "2B3680FA-30B6-467C-955F-2315D5D255F4";
shapes = (
{
closed = 1;
nodes = (
(770,1460,l),
(644,1460,l),
(644,0,l),
(770,0,l)
);
},
{
closed = 1;
nodes = (
(729,110,l),
(729,0,l),
(1120,0,l),
(1120,110,l)
);
},
{
closed = 1;
nodes = (
(729,799,l),
(729,694,l),
(1047,694,l),
(1047,799,l)
);
},
{
closed = 1;
nodes = (
(1120,1460,l),
(729,1460,l),
(729,1350,l),
(1120,1350,l)
);
},
{
closed = 1;
nodes = (
(684,1460,l),
(471,1460,l),
(72,0,l),
(196,0,l),
(555,1350,l),
(684,1350,l)
);
},
{
closed = 1;
nodes = (
(729,447,l),
(729,552,l),
(276,552,l),
(276,447,l)
);
},
{
closed = 1;
nodes = (
(938,1883.236,l),
(1078,1883.236,l),
(825,1650.191,l),
(716,1650.191,l)
);
}
);
width = 1240;
},
{
layerId = "8B99F5F8-0F2E-47D1-851D-9A55DF2AB712";
shapes = (
{
closed = 1;
nodes = (
(1090,1460,l),
(791,1460,l),
(507,0,l),
(806,0,l)
);
},
{
closed = 1;
nodes = (
(691,271,l),
(638,0,l),
(1075,0,l),
(1128,271,l)
);
},
{
closed = 1;
nodes = (
(834,856,l),
(784,599,l),
(1116,599,l),
(1166,856,l)
);
},
{
closed = 1;
nodes = (
(1359,1460,l),
(922,1460,l),
(869,1189,l),
(1306,1189,l)
);
},
{
closed = 1;
nodes = (
(867,1460,l),
(471,1460,l),
(-87,0,l),
(243,0,l),
(653,1189,l),
(814,1189,l)
);
},
{
closed = 1;
nodes = (
(727,303,l),
(772,537,l),
(277,537,l),
(232,303,l)
);
},
{
closed = 1;
nodes = (
(1044,1877,l),
(1389,1877,l),
(1090,1619,l),
(811,1619,l)
);
}
);
width = 1240;
},
{
layerId = "8D453742-7B49-41B2-AE2A-3EBD26173AE1";
shapes = (
{
closed = 1;
nodes = (
(1257,1460,l),
(928,1460,l),
(644,0,l),
(973,0,l)
);
},
{
closed = 1;
nodes = (
(844,271,l),
(791,0,l),
(1359,0,l),
(1412,271,l)
);
},
{
closed = 1;
nodes = (
(987,856,l),
(937,599,l),
(1350,599,l),
(1400,856,l)
);
},
{
closed = 1;
nodes = (
(1643,1460,l),
(1075,1460,l),
(1022,1189,l),
(1590,1189,l)
);
},
{
closed = 1;
nodes = (
(1026,1460,l),
(590,1460,l),
(-78,0,l),
(257,0,l),
(766,1189,l),
(973,1189,l)
);
},
{
closed = 1;
nodes = (
(836,303,l),
(881,537,l),
(286,537,l),
(241,303,l)
);
},
{
closed = 1;
nodes = (
(1257,1918,l),
(1642,1918,l),
(1293,1619,l),
(982,1619,l)
);
}
);
width = 1555;
},
{
layerId = "FCEBCCDD-9F1F-4D06-95BC-5606E8CBB848";
shapes = (
{
closed = 1;
nodes = (
(957,1460,l),
(831,1460,l),
(547,0,l),
(673,0,l)
);
},
{
closed = 1;
nodes = (
(653,110,l),
(632,0,l),
(1023,0,l),
(1044,110,l)
);
},
{
closed = 1;
nodes = (
(787,799,l),
(767,694,l),
(1085,694,l),
(1105,799,l)
);
},
{
closed = 1;
nodes = (
(1307,1460,l),
(916,1460,l),
(894,1350,l),
(1285,1350,l)
);
},
{
closed = 1;
nodes = (
(871,1460,l),
(658,1460,l),
(-25,0,l),
(99,0,l),
(720,1350,l),
(849,1350,l)
);
},
{
closed = 1;
nodes = (
(719,447,l),
(739,552,l),
(286,552,l),
(266,447,l)
);
},
{
closed = 1;
nodes = (
(1207,1883,l),
(1347,1883,l),
(1049,1650,l),
(940,1650,l)
);
}
);
width = 1240;
},
{
layerId = "58E9293A-5120-4E1E-8451-D6ECB5204CAC";
shapes = (
{
closed = 1;
nodes = (
(1107,1460,l),
(981,1460,l),
(697,0,l),
(823,0,l)
);
},
{
closed = 1;
nodes = (
(803,110,l),
(782,0,l),
(1315,0,l),
(1336,110,l)
);
},
{
closed = 1;
nodes = (
(937,799,l),
(917,694,l),
(1327,694,l),
(1347,799,l)
);
},
{
closed = 1;
nodes = (
(1599,1460,l),
(1066,1460,l),
(1044,1350,l),
(1577,1350,l)
);
},
{
closed = 1;
nodes = (
(1043,1460,l),
(779,1460,l),
(-11,0,l),
(113,0,l),
(837,1350,l),
(1021,1350,l)
);
},
{
closed = 1;
nodes = (
(823,447,l),
(843,552,l),
(329,552,l),
(309,447,l)
);
},
{
closed = 1;
nodes = (
(1483,1884,l),
(1636,1884,l),
(1285,1652,l),
(1166,1652,l)
);
}
);
width = 1555;
}
);
unicode = 508;
},
{
glyphname = B;
lastChange = "2024-04-27 00:07:48 +0000";
layers = (
{
layerId = "2B3680FA-30B6-467C-955F-2315D5D255F4";
shapes = (
{
closed = 1;
nodes = (
(316,1460,l),
(190,1460,l),
(190,0,l),
(316,0,l)
);
},
{
closed = 1;
nodes = (
(275,1460,l),
(275,1350,l),
(563,1350,ls),
(812,1350,o),
(894,1260,o),
(894,1125,cs),
(894,940,o),
(772,825,o),
(563,825,c),
(222,825,l),
(223,718,l),
(563,718,l),
(794,718,o),
(987,657,o),
(987,412,cs),
(987,201,o),
(845,110,o),
(563,110,cs),
(275,110,l),
(275,0,l),
(581,0,ls),
(945,0,o),
(1118,163,o),
(1118,416,cs),
(1118,689,o),
(890,759,o),
(732,777,c),
(732,784,l),
(845,809,o),
(1027,917,o),
(1027,1151,cs),
(1027,1345,o),
(890,1460,o),
(627,1460,c)
);
}
);
width = 1240;
},
{
layerId = "58E9293A-5120-4E1E-8451-D6ECB5204CAC";
shapes = (
{
closed = 1;
nodes = (
(538,1460,l),
(412,1460,l),
(128,0,l),
(254,0,l)
);
},
{
closed = 1;
nodes = (
(497,1460,l),
(475,1350,l),
(954,1350,ls),
(1259,1350,o),
(1335,1260,o),
(1309,1125,cs),
(1273,940,o),
(1117,825,o),
(852,825,c),
(320,825,l),
(301,718,l),
(832,718,l),
(1119,718,o),
(1311,657,o),
(1263,412,cs),
(1222,201,o),
(1051,110,o),
(713,110,cs),
(234,110,l),
(213,0,l),
(710,0,ls),
(1130,0,o),
(1346,163,o),
(1395,416,cs),
(1448,689,o),
(1223,759,o),
(1068,777,c),
(1069,784,l),
(1187,809,o),
(1401,917,o),
(1447,1151,cs),
(1484,1345,o),
(1359,1460,o),
(1040,1460,c)
);
}
);
width = 1555;
},
{
layerId = "8D453742-7B49-41B2-AE2A-3EBD26173AE1";
shapes = (
{
closed = 1;
nodes = (
(706,1460,l),
(377,1460,l),
(93,0,l),
(422,0,l)
);
},
{
closed = 1;
nodes = (
(602,1460,l),
(557,1230,l),
(934,1230,ls),
(1152,1230,o),
(1238,1187,o),
(1212,1055,cs),
(1189,936,o),
(1077,858,o),
(852,858,c),
(408,858,l),
(365,639,l),
(819,639,l),
(1066,639,o),
(1178,600,o),
(1148,449,cs),
(1115,277,o),
(969,230,o),
(740,230,cs),
(357,230,l),
(312,0,l),
(784,0,ls),
(1142,0,o),
(1423,153,o),
(1477,430,cs),
(1526,682,o),
(1332,762,o),
(1132,766,c),
(1134,776,l),
(1307,793,o),
(1502,906,o),
(1548,1140,cs),
(1600,1412,o),
(1383,1462,o),
(1052,1460,c)
);
}
);
width = 1555;
},
{
layerId = "0C0B9A44-4D66-4C06-AB4A-20867B2FE8E0";
shapes = (
{
closed = 1;
nodes = (
(527,1460,l),
(198,1460,l),
(198,0,l),
(527,0,l)
);
},
{
closed = 1;
nodes = (
(423,1460,l),
(423,1230,l),
(800,1230,ls),
(1018,1230,o),
(1112,1187,o),
(1112,1055,cs),
(1112,936,o),
(1015,858,o),
(790,858,c),
(346,858,l),
(346,639,l),
(800,639,l),
(1047,639,o),
(1166,600,o),
(1166,449,cs),
(1166,277,o),
(1029,230,o),
(800,230,cs),
(417,230,l),
(417,0,l),
(889,0,ls),
(1247,0,o),
(1498,153,o),
(1498,430,cs),
(1498,682,o),
(1289,762,o),
(1088,766,c),
(1088,776,l),
(1258,793,o),
(1431,906,o),
(1431,1140,cs),
(1431,1412,o),
(1204,1462,o),
(873,1460,c)
);
}
);
width = 1555;
},
{
layerId = "DA5CBF49-7F7A-4926-B587-2652260B0ABD";
shapes = (
{
closed = 1;
nodes = (
(481,1460,l),
(152,1460,l),
(152,0,l),
(481,0,l)
);
},
{
closed = 1;
nodes = (
(352,1460,l),
(352,1230,l),
(559,1230,ls),
(721,1230,o),
(805,1180,o),
(805,1058,cs),
(805,929,o),
(713,858,o),
(532,858,c),
(275,858,l),
(275,639,l),
(559,639,l),
(750,639,o),
(859,600,o),
(859,444,cs),
(859,277,o),
(732,230,o),
(559,230,cs),
(396,230,l),
(396,0,l),
(653,0,ls),
(956,0,o),
(1196,153,o),
(1196,430,cs),
(1196,682,o),
(992,762,o),
(791,766,c),
(791,776,l),
(961,793,o),
(1129,906,o),
(1129,1140,cs),
(1129,1412,o),
(913,1462,o),
(637,1460,c)
);
}
);
width = 1240;
},
{
layerId = "FCEBCCDD-9F1F-4D06-95BC-5606E8CBB848";
shapes = (
{
closed = 1;
nodes = (
(503,1460,l),
(377,1460,l),
(93,0,l),
(219,0,l)
);
},
{
closed = 1;
nodes = (
(462,1460,l),
(440,1350,l),
(728,1350,ls),
(977,1350,o),
(1042,1260,o),
(1016,1125,cs),
(980,940,o),
(835,825,o),
(626,825,c),
(285,825,l),
(266,718,l),
(606,718,l),
(837,718,o),
(1018,657,o),
(970,412,cs),
(929,201,o),
(769,110,o),
(487,110,cs),
(199,110,l),
(178,0,l),
(494,0,ls),
(858,0,o),
(1051,153,o),
(1100,406,cs),
(1153,679,o),
(941,759,o),
(786,777,c),
(787,784,l),
(905,809,o),
(1106,907,o),
(1152,1141,cs),
(1189,1335,o),
(1077,1460,o),
(814,1460,c)
);
}
);
width = 1240;
},
{
layerId = "8B99F5F8-0F2E-47D1-851D-9A55DF2AB712";
shapes = (
{
closed = 1;
nodes = (
(660,1460,l),
(331,1460,l),
(47,0,l),
(376,0,l)
);
},
{
closed = 1;
nodes = (
(531,1460,l),
(486,1230,l),
(693,1230,ls),
(855,1230,o),
(929,1180,o),
(906,1058,cs),
(881,929,o),
(775,858,o),
(594,858,c),
(337,858,l),
(294,639,l),
(578,639,l),
(769,639,o),
(871,600,o),
(840,444,cs),
(808,277,o),
(672,230,o),
(499,230,cs),
(336,230,l),
(291,0,l),
(548,0,ls),
(851,0,o),
(1117,133,o),
(1171,410,cs),
(1220,662,o),
(1035,762,o),
(835,766,c),
(837,776,l),
(1010,793,o),
(1196,886,o),
(1242,1120,cs),
(1295,1392,o),
(1092,1462,o),
(816,1460,c)
);
}
);
width = 1240;
},
{
layerId = "DC524FA5-69B0-4541-AEAA-64C37A6100D8";
shapes = (
{
closed = 1;
nodes = (
(351,1460,l),
(225,1460,l),
(225,0,l),
(351,0,l)
);
},
{
closed = 1;
nodes = (
(310,1460,l),
(310,1350,l),
(789,1350,ls),
(1094,1350,o),
(1187,1260,o),
(1187,1125,cs),
(1187,940,o),
(1054,825,o),
(789,825,c),
(257,825,l),
(258,718,l),
(789,718,l),
(1076,718,o),
(1280,657,o),
(1280,412,cs),
(1280,201,o),
(1127,110,o),
(789,110,cs),
(310,110,l),
(310,0,l),
(807,0,ls),
(1227,0,o),
(1411,163,o),
(1411,416,cs),
(1411,689,o),
(1172,759,o),
(1014,777,c),
(1014,784,l),
(1127,809,o),
(1320,917,o),
(1320,1151,cs),
(1320,1345,o),
(1172,1460,o),
(853,1460,c)
);
}
);
width = 1555;
}
);
unicode = 66;
},
{
glyphname = C;
lastChange = "2024-04-27 00:07:48 +0000";
layers = (
{
layerId = "2B3680FA-30B6-467C-955F-2315D5D255F4";
shapes = (
{
closed = 1;
nodes = (
(257,1196,o),
(431,1366,o),
(651,1366,cs),
(853,1366,o),
(974,1220,o),
(992,999,c),
(1115,1011,l),
(1102,1288,o),
(926,1483,o),
(648,1483,cs),
(344,1483,o),
(122,1240,o),
(122,729,cs),
(122,221,o),
(344,-22,o),
(648,-22,cs),
(926,-22,o),
(1102,173,o),
(1115,450,c),
(992,462,l),
(974,241,o),
(853,95,o),
(651,95,cs),
(431,95,o),
(257,265,o),
(257,729,cs)
);
}
);
width = 1240;
},
{
layerId = "58E9293A-5120-4E1E-8451-D6ECB5204CAC";
shapes = (
{
closed = 1;
nodes = (
(401,1156,o),
(667,1367,o),
(969,1367,cs),
(1231,1367,o),
(1389,1203,o),
(1383,992,c),
(1516,1010,l),
(1527,1274,o),
(1329,1484,o),
(989,1484,cs),
(614,1484,o),
(272,1210,o),
(179,729,cs),
(86,251,o),
(321,-24,o),
(696,-24,cs),
(1036,-24,o),
(1311,187,o),
(1407,451,c),
(1281,469,l),
(1202,258,o),
(983,93,o),
(721,93,cs),
(419,93,o),
(235,305,o),
(318,729,cs)
);
}
);
width = 1555;
},
{
layerId = "8D453742-7B49-41B2-AE2A-3EBD26173AE1";
shapes = (
{
closed = 1;
nodes = (
(548,1091,o),
(706,1203,o),
(919,1203,cs),
(1065,1203,o),
(1178,1150,o),
(1177,972,c),
(1502,997,l),
(1536,1347,o),
(1302,1484,o),
(961,1484,cs),
(582,1484,o),
(248,1279,o),
(141,730,cs),
(37,198,o),
(289,-24,o),
(668,-24,cs),
(1009,-24,o),
(1303,126,o),
(1404,482,c),
(1092,506,l),
(1023,313,o),
(884,257,o),
(735,257,cs),
(522,257,o),
(408,370,o),
(478,730,cs)
);
}
);
width = 1555;
},
{
layerId = "0C0B9A44-4D66-4C06-AB4A-20867B2FE8E0";
shapes = (
{
closed = 1;
nodes = (
(441,1091,o),
(577,1203,o),
(790,1203,cs),
(936,1203,o),
(1059,1150,o),
(1093,972,c),
(1413,997,l),
(1379,1347,o),
(1119,1484,o),
(778,1484,cs),
(399,1484,o),
(104,1279,o),
(104,730,cs),
(104,198,o),
(399,-24,o),
(778,-24,cs),
(1119,-24,o),
(1384,126,o),
(1415,482,c),
(1099,506,l),
(1067,313,o),
(939,257,o),
(790,257,cs),
(577,257,o),
(441,370,o),
(441,730,cs)
);
}
);
width = 1555;
},
{
layerId = "DA5CBF49-7F7A-4926-B587-2652260B0ABD";
shapes = (
{
closed = 1;
nodes = (
(408,1084,o),
(479,1205,o),
(638,1205,cs),
(764,1205,o),
(827,1128,o),
(840,964,c),
(1144,984,l),
(1134,1330,o),
(932,1484,o),
(630,1484,cs),
(275,1484,o),
(71,1267,o),
(71,730,cs),
(71,193,o),
(280,-24,o),
(630,-24,cs),
(935,-24,o),
(1134,129,o),
(1144,486,c),
(840,506,l),
(827,331,o),
(764,255,o),
(638,255,cs),
(479,255,o),
(408,376,o),
(408,730,cs)
);
}
);
width = 1240;
},
{
layerId = "FCEBCCDD-9F1F-4D06-95BC-5606E8CBB848";
shapes = (
{
closed = 1;
nodes = (
(391,1196,o),
(599,1366,o),
(819,1366,cs),
(1021,1366,o),
(1118,1220,o),
(1093,999,c),
(1214,1011,l),
(1254,1288,o),
(1106,1483,o),
(828,1483,cs),
(524,1483,o),
(267,1250,o),
(168,739,cs),
(69,231,o),
(252,-22,o),
(556,-22,cs),
(834,-22,o),
(1038,173,o),
(1104,450,c),
(984,462,l),
(923,241,o),
(773,95,o),
(571,95,cs),
(351,95,o),
(211,265,o),
(301,729,cs)
);
}
);
width = 1240;
},
{
layerId = "8B99F5F8-0F2E-47D1-851D-9A55DF2AB712";
shapes = (
{
closed = 1;
nodes = (
(514,1084,o),
(608,1205,o),
(767,1205,cs),
(893,1205,o),
(941,1128,o),
(922,964,c),
(1230,984,l),
(1288,1330,o),
(1105,1484,o),
(803,1484,cs),
(448,1484,o),
(216,1287,o),
(112,750,cs),
(7,213,o),
(180,-24,o),
(530,-24,cs),
(835,-24,o),
(1054,129,o),
(1133,486,c),
(833,506,l),
(786,331,o),
(709,255,o),
(583,255,cs),
(424,255,o),
(376,376,o),
(445,730,cs)
);
}
);
width = 1240;
},
{
layerId = "DC524FA5-69B0-4541-AEAA-64C37A6100D8";
shapes = (
{
closed = 1;
nodes = (
(273,1156,o),
(498,1367,o),
(800,1367,cs),
(1062,1367,o),
(1252,1203,o),
(1287,992,c),
(1417,1010,l),
(1376,1274,o),
(1138,1484,o),
(798,1484,cs),
(423,1484,o),
(134,1210,o),
(134,729,cs),
(134,251,o),
(423,-24,o),
(798,-24,cs),
(1138,-24,o),
(1372,187,o),
(1416,451,c),
(1287,469,l),
(1249,258,o),
(1062,93,o),
(800,93,cs),
(498,93,o),
(273,305,o),
(273,729,cs)
);
}
);
width = 1555;
}
);
unicode = 67;
},
{
glyphname = Cacute;
lastChange = "2024-04-27 00:07:48 +0000";
layers = (
{
layerId = "DA5CBF49-7F7A-4926-B587-2652260B0ABD";
shapes = (
{
closed = 1;
nodes = (
(408,1084,o),
(479,1205,o),
(638,1205,cs),
(764,1205,o),
(827,1128,o),
(840,964,c),
(1144,984,l),
(1134,1330,o),
(932,1484,o),
(630,1484,cs),
(275,1484,o),
(71,1267,o),
(71,730,cs),
(71,193,o),
(280,-24,o),
(630,-24,cs),
(935,-24,o),
(1134,129,o),
(1144,486,c),
(840,506,l),
(827,331,o),
(764,255,o),
(638,255,cs),
(479,255,o),
(408,376,o),
(408,730,cs)
);
},
{
closed = 1;
nodes = (
(668,1877.386,l),
(1013,1877.386,l),
(764,1619.05,l),
(485,1619.05,l)
);
}
);
width = 1240;
},
{
layerId = "DC524FA5-69B0-4541-AEAA-64C37A6100D8";
shapes = (
{
closed = 1;
nodes = (
(273,1156,o),
(498,1367,o),
(800,1367,cs),
(1062,1367,o),
(1252,1203,o),
(1287,992,c),
(1417,1010,l),
(1376,1274,o),
(1138,1484,o),
(798,1484,cs),
(423,1484,o),
(134,1210,o),
(134,729,cs),
(134,251,o),
(423,-24,o),
(798,-24,cs),
(1138,-24,o),
(1372,187,o),
(1416,451,c),
(1287,469,l),
(1249,258,o),
(1062,93,o),
(800,93,cs),
(498,93,o),
(273,305,o),
(273,729,cs)
);
},
{
closed = 1;
nodes = (
(989,1884,l),
(1142,1884,l),
(836,1652,l),
(717,1652,l)
);
}
);
width = 1555;
},
{
layerId = "0C0B9A44-4D66-4C06-AB4A-20867B2FE8E0";
shapes = (
{
closed = 1;
nodes = (
(441,1091,o),
(577,1203,o),
(790,1203,cs),
(936,1203,o),
(1059,1150,o),
(1093,972,c),
(1413,997,l),
(1379,1347,o),
(1119,1484,o),
(778,1484,cs),
(399,1484,o),
(104,1279,o),
(104,730,cs),
(104,198,o),
(399,-24,o),
(778,-24,cs),
(1119,-24,o),
(1384,126,o),
(1415,482,c),
(1099,506,l),
(1067,313,o),
(939,257,o),
(790,257,cs),
(577,257,o),
(441,370,o),
(441,730,cs)
);
},
{
closed = 1;
nodes = (
(836,1918,l),
(1221,1918,l),
(930,1619,l),
(619,1619,l)
);
}
);
width = 1555;
},
{
layerId = "2B3680FA-30B6-467C-955F-2315D5D255F4";
shapes = (
{
closed = 1;
nodes = (
(257,1196,o),
(431,1366,o),
(651,1366,cs),
(853,1366,o),
(974,1220,o),
(992,999,c),
(1115,1011,l),
(1102,1288,o),
(926,1483,o),
(648,1483,cs),
(344,1483,o),
(122,1240,o),
(122,729,cs),
(122,221,o),
(344,-22,o),
(648,-22,cs),
(926,-22,o),
(1102,173,o),
(1115,450,c),
(992,462,l),
(974,241,o),
(853,95,o),
(651,95,cs),
(431,95,o),
(257,265,o),
(257,729,cs)
);
},
{
closed = 1;
nodes = (
(778,1883.236,l),
(918,1883.236,l),
(665,1650.191,l),
(556,1650.191,l)
);
}
);
width = 1240;
},
{
layerId = "8B99F5F8-0F2E-47D1-851D-9A55DF2AB712";
shapes = (
{
closed = 1;
nodes = (
(514,1084,o),
(608,1205,o),
(767,1205,cs),
(893,1205,o),
(941,1128,o),
(922,964,c),
(1230,984,l),
(1288,1330,o),
(1105,1484,o),
(803,1484,cs),
(448,1484,o),
(216,1287,o),
(112,750,cs),
(7,213,o),
(180,-24,o),
(530,-24,cs),
(835,-24,o),
(1054,129,o),
(1133,486,c),
(833,506,l),
(786,331,o),
(709,255,o),
(583,255,cs),
(424,255,o),
(376,376,o),
(445,730,cs)
);
},
{
closed = 1;
nodes = (
(928,1877,l),
(1273,1877,l),
(974,1619,l),
(695,1619,l)
);
}
);
width = 1240;
},
{
layerId = "8D453742-7B49-41B2-AE2A-3EBD26173AE1";
shapes = (
{
closed = 1;
nodes = (
(548,1091,o),
(706,1203,o),
(919,1203,cs),
(1065,1203,o),
(1178,1150,o),
(1177,972,c),
(1502,997,l),
(1536,1347,o),
(1302,1484,o),
(961,1484,cs),
(582,1484,o),
(248,1279,o),
(141,730,cs),
(37,198,o),
(289,-24,o),
(668,-24,cs),
(1009,-24,o),
(1303,126,o),
(1404,482,c),
(1092,506,l),
(1023,313,o),
(884,257,o),
(735,257,cs),
(522,257,o),
(408,370,o),
(478,730,cs)
);
},
{
closed = 1;
nodes = (
(1104,1918,l),
(1489,1918,l),
(1140,1619,l),
(829,1619,l)
);
}
);
width = 1555;
},
{
layerId = "FCEBCCDD-9F1F-4D06-95BC-5606E8CBB848";
shapes = (
{
closed = 1;
nodes = (
(391,1196,o),
(599,1366,o),
(819,1366,cs),
(1021,1366,o),
(1118,1220,o),
(1093,999,c),
(1214,1011,l),
(1254,1288,o),
(1106,1483,o),
(828,1483,cs),
(524,1483,o),
(267,1250,o),
(168,739,cs),
(69,231,o),
(252,-22,o),
(556,-22,cs),
(834,-22,o),
(1038,173,o),
(1104,450,c),
(984,462,l),
(923,241,o),
(773,95,o),
(571,95,cs),
(351,95,o),
(211,265,o),
(301,729,cs)
);
},
{
closed = 1;
nodes = (
(1046,1883,l),
(1186,1883,l),
(888,1650,l),
(779,1650,l)
);
}
);
width = 1240;
},
{
layerId = "58E9293A-5120-4E1E-8451-D6ECB5204CAC";
shapes = (
{
closed = 1;
nodes = (
(401,1156,o),
(667,1367,o),
(969,1367,cs),
(1231,1367,o),
(1389,1203,o),
(1383,992,c),
(1516,1010,l),
(1527,1274,o),
(1329,1484,o),
(989,1484,cs),
(614,1484,o),
(272,1210,o),
(179,729,cs),
(86,251,o),
(321,-24,o),
(696,-24,cs),
(1036,-24,o),
(1311,187,o),
(1407,451,c),
(1281,469,l),
(1202,258,o),
(983,93,o),
(721,93,cs),
(419,93,o),
(235,305,o),
(318,729,cs)
);
},
{
closed = 1;
nodes = (
(1258,1884,l),
(1411,1884,l),
(1060,1652,l),
(941,1652,l)
);
}
);
width = 1555;
}
);
unicode = 262;
},
{
glyphname = Ccaron;
lastChange = "2024-04-27 00:07:48 +0000";
layers = (
{
layerId = "DA5CBF49-7F7A-4926-B587-2652260B0ABD";
shapes = (
{
closed = 1;
nodes = (
(408,1084,o),
(479,1205,o),
(638,1205,cs),
(764,1205,o),
(827,1128,o),
(840,964,c),
(1144,984,l),
(1134,1330,o),
(932,1484,o),
(630,1484,cs),
(275,1484,o),
(71,1267,o),
(71,730,cs),
(71,193,o),
(280,-24,o),
(630,-24,cs),
(935,-24,o),
(1134,129,o),
(1144,486,c),
(840,506,l),
(827,331,o),
(764,255,o),
(638,255,cs),
(479,255,o),
(408,376,o),
(408,730,cs)
);
},
{
closed = 1;
nodes = (
(483,1878,l),
(644,1674,l),
(596,1674,l),
(757,1878,l),
(1041,1878,l),
(813,1620,l),
(427,1620,l),
(199,1878,l)
);
}
);
width = 1240;
},
{
layerId = "DC524FA5-69B0-4541-AEAA-64C37A6100D8";
shapes = (
{
closed = 1;
nodes = (
(273,1156,o),
(498,1367,o),
(800,1367,cs),
(1062,1367,o),
(1252,1203,o),
(1287,992,c),
(1417,1010,l),
(1376,1274,o),
(1138,1484,o),
(798,1484,cs),
(423,1484,o),
(134,1210,o),
(134,729,cs),
(134,251,o),
(423,-24,o),
(798,-24,cs),
(1138,-24,o),
(1372,187,o),
(1416,451,c),
(1287,469,l),
(1249,258,o),
(1062,93,o),
(800,93,cs),
(498,93,o),
(273,305,o),
(273,729,cs)
);
},
{
closed = 1;
nodes = (
(542,1883,l),
(817,1674,l),
(755,1674,l),
(1031,1883,l),
(1178,1883,l),
(864,1650,l),
(708,1650,l),
(395,1883,l)
);
}
);
width = 1555;
},
{
layerId = "0C0B9A44-4D66-4C06-AB4A-20867B2FE8E0";
shapes = (
{
closed = 1;
nodes = (
(441,1091,o),
(577,1203,o),
(790,1203,cs),
(936,1203,o),
(1059,1150,o),
(1093,972,c),
(1413,997,l),
(1379,1347,o),
(1119,1484,o),
(778,1484,cs),
(399,1484,o),
(104,1279,o),
(104,730,cs),
(104,198,o),
(399,-24,o),
(778,-24,cs),
(1119,-24,o),
(1384,126,o),
(1415,482,c),
(1099,506,l),
(1067,313,o),
(939,257,o),
(790,257,cs),
(577,257,o),
(441,370,o),
(441,730,cs)
);
},
{
closed = 1;
nodes = (
(604,1908,l),
(804,1662,l),
(736,1662,l),
(937,1908,l),
(1251,1908,l),
(963,1620,l),
(577,1620,l),
(290,1908,l)
);
}
);
width = 1555;
},
{
layerId = "2B3680FA-30B6-467C-955F-2315D5D255F4";
shapes = (
{
closed = 1;
nodes = (
(257,1196,o),
(431,1366,o),
(651,1366,cs),
(853,1366,o),
(974,1220,o),
(992,999,c),
(1115,1011,l),
(1102,1288,o),
(926,1483,o),
(648,1483,cs),
(344,1483,o),
(122,1240,o),
(122,729,cs),
(122,221,o),
(344,-22,o),
(648,-22,cs),
(926,-22,o),
(1102,173,o),
(1115,450,c),
(992,462,l),
(974,241,o),
(853,95,o),
(651,95,cs),
(431,95,o),
(257,265,o),
(257,729,cs)
);
},
{
closed = 1;
nodes = (
(429,1883,l),
(648,1679,l),
(592,1679,l),
(811,1883,l),
(942,1883,l),
(678,1650,l),
(562,1650,l),
(298,1883,l)
);
}
);
width = 1240;
},
{
layerId = "8B99F5F8-0F2E-47D1-851D-9A55DF2AB712";
shapes = (
{
closed = 1;
nodes = (
(514,1084,o),
(608,1205,o),
(767,1205,cs),
(893,1205,o),
(941,1128,o),
(922,964,c),
(1230,984,l),
(1288,1330,o),
(1105,1484,o),
(803,1484,cs),
(448,1484,o),
(216,1287,o),
(112,750,cs),
(7,213,o),
(180,-24,o),
(530,-24,cs),
(835,-24,o),
(1054,129,o),
(1133,486,c),
(833,506,l),
(786,331,o),
(709,255,o),
(583,255,cs),
(424,255,o),
(376,376,o),
(445,730,cs)
);
},
{
closed = 1;
nodes = (
(743,1878,l),
(864,1674,l),
(816,1674,l),
(1017,1878,l),
(1301,1878,l),
(1023,1620,l),
(637,1620,l),
(459,1878,l)
);
}
);
width = 1240;
},
{
layerId = "8D453742-7B49-41B2-AE2A-3EBD26173AE1";
shapes = (
{
closed = 1;
nodes = (
(548,1091,o),
(706,1203,o),
(919,1203,cs),
(1065,1203,o),
(1178,1150,o),
(1177,972,c),
(1502,997,l),
(1536,1347,o),
(1302,1484,o),
(961,1484,cs),
(582,1484,o),
(248,1279,o),
(141,730,cs),
(37,198,o),
(289,-24,o),
(668,-24,cs),
(1009,-24,o),
(1303,126,o),
(1404,482,c),
(1092,506,l),
(1023,313,o),
(884,257,o),
(735,257,cs),
(522,257,o),
(408,370,o),
(478,730,cs)
);
},
{
closed = 1;
nodes = (
(870,1908,l),
(1022,1662,l),
(954,1662,l),
(1203,1908,l),
(1517,1908,l),
(1173,1620,l),
(787,1620,l),
(556,1908,l)
);
}
);
width = 1555;
},
{
layerId = "FCEBCCDD-9F1F-4D06-95BC-5606E8CBB848";
shapes = (
{
closed = 1;
nodes = (
(391,1196,o),
(599,1366,o),
(819,1366,cs),
(1021,1366,o),
(1118,1220,o),
(1093,999,c),
(1214,1011,l),
(1254,1288,o),
(1106,1483,o),
(828,1483,cs),
(524,1483,o),
(267,1250,o),
(168,739,cs),
(69,231,o),
(252,-22,o),
(556,-22,cs),
(834,-22,o),
(1038,173,o),
(1104,450,c),
(984,462,l),
(923,241,o),
(773,95,o),
(571,95,cs),
(351,95,o),
(211,265,o),
(301,729,cs)
);
},
{
closed = 1;
nodes = (
(697,1883,l),
(876,1679,l),
(820,1679,l),
(1079,1883,l),
(1210,1883,l),
(901,1650,l),
(785,1650,l),
(566,1883,l)
);
}
);
width = 1240;
},
{
layerId = "58E9293A-5120-4E1E-8451-D6ECB5204CAC";
shapes = (
{
closed = 1;
nodes = (
(401,1156,o),
(667,1367,o),
(969,1367,cs),
(1231,1367,o),
(1389,1203,o),
(1383,992,c),
(1516,1010,l),
(1527,1274,o),
(1329,1484,o),
(989,1484,cs),
(614,1484,o),
(272,1210,o),
(179,729,cs),
(86,251,o),
(321,-24,o),
(696,-24,cs),
(1036,-24,o),
(1311,187,o),
(1407,451,c),
(1281,469,l),
(1202,258,o),
(983,93,o),
(721,93,cs),
(419,93,o),
(235,305,o),
(318,729,cs)
);
},
{
closed = 1;
nodes = (
(811,1883,l),
(1045,1674,l),
(983,1674,l),
(1300,1883,l),
(1447,1883,l),
(1088,1650,l),
(932,1650,l),
(664,1883,l)
);
}
);
width = 1555;
}
);
unicode = 268;
},
{
glyphname = Ccedilla;
lastChange = "2024-04-27 00:07:48 +0000";
layers = (
{
layerId = "DA5CBF49-7F7A-4926-B587-2652260B0ABD";
shapes = (
{
closed = 1;
nodes = (
(408,1084,o),
(479,1205,o),
(638,1205,cs),
(764,1205,o),
(827,1128,o),
(840,964,c),
(1144,984,l),
(1134,1330,o),
(932,1484,o),
(630,1484,cs),
(275,1484,o),
(71,1267,o),
(71,730,cs),
(71,193,o),
(280,-24,o),
(630,-24,cs),
(935,-24,o),
(1134,129,o),
(1144,486,c),
(840,506,l),
(827,331,o),
(764,255,o),
(638,255,cs),
(479,255,o),
(408,376,o),
(408,730,cs)
);
},
{
closed = 1;
nodes = (
(712,-204,l),
(708,48,l),
(528,48,l),
(528,-270,l),
(601,-278,o),
(658,-303,o),
(658,-378,cs),
(658,-441,o),
(618,-476,o),
(527,-476,cs),
(458,-476,l),
(458,-637,l),
(552,-637,ls),
(822,-637,o),
(888,-540,o),
(888,-396,cs),
(888,-245,o),
(818,-173,o),
(681,-146,c)
);
}
);
width = 1240;
},
{
layerId = "DC524FA5-69B0-4541-AEAA-64C37A6100D8";
shapes = (
{
closed = 1;
nodes = (
(273,1156,o),
(498,1367,o),
(800,1367,cs),
(1062,1367,o),
(1252,1203,o),
(1287,992,c),
(1417,1010,l),
(1376,1274,o),
(1138,1484,o),
(798,1484,cs),
(423,1484,o),
(134,1210,o),
(134,729,cs),
(134,251,o),
(423,-24,o),
(798,-24,cs),
(1138,-24,o),
(1372,187,o),
(1416,451,c),
(1287,469,l),
(1249,258,o),
(1062,93,o),
(800,93,cs),
(498,93,o),
(273,305,o),
(273,729,cs)
);
},
{
closed = 1;
nodes = (
(834,-235,l),
(830,48,l),
(740,48,l),
(740,-263,l),
(907,-274,o),
(988,-306,o),
(988,-382,cs),
(988,-445,o),
(923,-486,o),
(729,-486,cs),
(640,-486,l),
(640,-582,l),
(734,-582,ls),
(1004,-582,o),
(1098,-521,o),
(1098,-391,cs),
(1098,-248,o),
(990,-202,o),
(803,-183,c)
);
}
);
width = 1555;
},
{
layerId = "0C0B9A44-4D66-4C06-AB4A-20867B2FE8E0";
shapes = (
{
closed = 1;
nodes = (
(441,1091,o),
(577,1203,o),
(790,1203,cs),
(936,1203,o),
(1059,1150,o),
(1093,972,c),
(1413,997,l),
(1379,1347,o),
(1119,1484,o),
(778,1484,cs),
(399,1484,o),
(104,1279,o),
(104,730,cs),
(104,198,o),
(399,-24,o),
(778,-24,cs),
(1119,-24,o),
(1384,126,o),
(1415,482,c),
(1099,506,l),
(1067,313,o),
(939,257,o),
(790,257,cs),
(577,257,o),
(441,370,o),
(441,730,cs)
);
},
{
closed = 1;
nodes = (
(862,-227,l),
(858,48,l),
(678,48,l),
(678,-297,l),
(797,-304,o),
(874,-334,o),
(874,-408,cs),
(874,-474,o),
(813,-511,o),
(671,-511,cs),
(582,-511,l),
(582,-693,l),
(698,-693,ls),
(1029,-693,o),
(1123,-584,o),
(1123,-434,cs),
(1123,-277,o),
(1022,-195,o),
(848,-167,c)
);
}
);
width = 1555;
},
{
layerId = "2B3680FA-30B6-467C-955F-2315D5D255F4";
shapes = (
{
closed = 1;
nodes = (
(257,1196,o),
(431,1366,o),
(651,1366,cs),
(853,1366,o),
(974,1220,o),
(992,999,c),
(1115,1011,l),
(1102,1288,o),
(926,1483,o),
(648,1483,cs),
(344,1483,o),
(122,1240,o),
(122,729,cs),
(122,221,o),
(344,-22,o),
(648,-22,cs),
(926,-22,o),
(1102,173,o),
(1115,450,c),
(992,462,l),
(974,241,o),
(853,95,o),
(651,95,cs),
(431,95,o),
(257,265,o),
(257,729,cs)
);
},
{
closed = 1;
nodes = (
(668,-228,l),
(664,48,l),
(574,48,l),
(574,-255,l),
(675,-265,o),
(731,-296,o),
(731,-371,cs),
(731,-433,o),
(693,-471,o),
(553,-471,cs),
(514,-471,l),
(514,-565,l),
(578,-565,ls),
(778,-565,o),
(840,-500,o),
(840,-380,cs),
(840,-248,o),
(764,-198,o),
(637,-179,c)
);
}
);
width = 1240;
},
{
layerId = "8B99F5F8-0F2E-47D1-851D-9A55DF2AB712";
shapes = (
{
closed = 1;
nodes = (
(514,1084,o),
(608,1205,o),
(767,1205,cs),
(893,1205,o),
(941,1128,o),
(922,964,c),
(1230,984,l),
(1288,1330,o),
(1105,1484,o),
(803,1484,cs),
(448,1484,o),
(216,1287,o),
(112,750,cs),
(7,213,o),
(180,-24,o),
(530,-24,cs),
(835,-24,o),
(1054,129,o),
(1133,486,c),
(833,506,l),
(786,331,o),
(709,255,o),
(583,255,cs),
(424,255,o),
(376,376,o),
(445,730,cs)
);
},
{
closed = 1;
nodes = (
(567,-204,l),
(612,48,l),
(432,48,l),
(371,-270,l),
(442,-278,o),
(494,-303,o),
(480,-378,cs),
(467,-441,o),
(420,-476,o),
(329,-476,cs),
(260,-476,l),
(229,-637,l),
(323,-637,ls),
(593,-637,o),
(678,-540,o),
(706,-396,cs),
(735,-245,o),
(679,-173,o),
(548,-146,c)
);
}
);
width = 1240;
},
{
layerId = "8D453742-7B49-41B2-AE2A-3EBD26173AE1";
shapes = (
{
closed = 1;
nodes = (
(548,1091,o),
(706,1203,o),
(919,1203,cs),
(1065,1203,o),
(1178,1150,o),
(1177,972,c),
(1502,997,l),
(1536,1347,o),
(1302,1484,o),
(961,1484,cs),
(582,1484,o),
(248,1279,o),
(141,730,cs),
(37,198,o),
(289,-24,o),
(668,-24,cs),
(1009,-24,o),
(1303,126,o),
(1404,482,c),
(1092,506,l),
(1023,313,o),
(884,257,o),
(735,257,cs),
(522,257,o),
(408,370,o),
(478,730,cs)
);
},
{
closed = 1;
nodes = (
(713,-227,l),
(762,48,l),
(582,48,l),
(515,-297,l),
(633,-304,o),
(704,-334,o),
(690,-408,cs),
(677,-474,o),
(609,-511,o),
(467,-511,cs),
(378,-511,l),
(342,-693,l),
(458,-693,ls),
(789,-693,o),
(904,-584,o),
(934,-434,cs),
(964,-277,o),
(879,-195,o),
(711,-167,c)
);
}
);
width = 1555;
},
{
layerId = "FCEBCCDD-9F1F-4D06-95BC-5606E8CBB848";
shapes = (
{
closed = 1;
nodes = (
(391,1196,o),
(599,1366,o),
(819,1366,cs),
(1021,1366,o),
(1118,1220,o),
(1093,999,c),
(1214,1011,l),
(1254,1288,o),
(1106,1483,o),
(828,1483,cs),
(524,1483,o),
(267,1250,o),
(168,739,cs),
(69,231,o),
(252,-22,o),
(556,-22,cs),
(834,-22,o),
(1038,173,o),
(1104,450,c),
(984,462,l),
(923,241,o),
(773,95,o),
(571,95,cs),
(351,95,o),
(211,265,o),
(301,729,cs)
);
},
{
closed = 1;
nodes = (
(526,-228,l),
(575,48,l),
(485,48,l),
(426,-255,l),
(525,-265,o),
(575,-296,o),
(561,-371,cs),
(549,-433,o),
(503,-471,o),
(363,-471,cs),
(324,-471,l),
(306,-565,l),
(370,-565,ls),
(570,-565,o),
(645,-500,o),
(668,-380,cs),
(694,-248,o),
(628,-198,o),
(504,-179,c)
);
}
);
width = 1240;
},
{
layerId = "58E9293A-5120-4E1E-8451-D6ECB5204CAC";
shapes = (
{
closed = 1;
nodes = (
(401,1156,o),
(667,1367,o),
(969,1367,cs),
(1231,1367,o),
(1389,1203,o),
(1383,992,c),
(1516,1010,l),
(1527,1274,o),
(1329,1484,o),
(989,1484,cs),
(614,1484,o),
(272,1210,o),
(179,729,cs),
(86,251,o),
(321,-24,o),
(696,-24,cs),
(1036,-24,o),
(1311,187,o),
(1407,451,c),
(1281,469,l),
(1202,258,o),
(983,93,o),
(721,93,cs),
(419,93,o),
(235,305,o),
(318,729,cs)
);
},
{
closed = 1;
nodes = (
(691,-235,l),
(742,48,l),
(652,48,l),
(592,-263,l),
(757,-274,o),
(832,-306,o),
(817,-382,cs),
(805,-445,o),
(732,-486,o),
(538,-486,cs),
(449,-486,l),
(430,-582,l),
(524,-582,ls),
(794,-582,o),
(900,-521,o),
(925,-391,cs),
(953,-248,o),
(854,-202,o),
(670,-183,c)
);
}
);
width = 1555;
}
);
unicode = 199;
},
{
glyphname = Ccircumflex;
lastChange = "2024-04-27 00:07:48 +0000";
layers = (
{
layerId = "DA5CBF49-7F7A-4926-B587-2652260B0ABD";
shapes = (
{
closed = 1;
nodes = (
(408,1084,o),
(479,1205,o),
(638,1205,cs),
(764,1205,o),
(827,1128,o),
(840,964,c),
(1144,984,l),
(1134,1330,o),
(932,1484,o),
(630,1484,cs),
(275,1484,o),
(71,1267,o),
(71,730,cs),
(71,193,o),
(280,-24,o),
(630,-24,cs),
(935,-24,o),
(1134,129,o),
(1144,486,c),
(840,506,l),
(827,331,o),
(764,255,o),
(638,255,cs),
(479,255,o),
(408,376,o),
(408,730,cs)
);
},
{
closed = 1;
nodes = (
(483,1620,l),
(644,1824,l),
(596,1824,l),
(757,1620,l),
(1041,1620,l),
(813,1878,l),
(427,1878,l),
(199,1620,l)
);
}
);
width = 1240;
},
{
layerId = "DC524FA5-69B0-4541-AEAA-64C37A6100D8";
shapes = (
{
closed = 1;
nodes = (
(273,1156,o),
(498,1367,o),
(800,1367,cs),
(1062,1367,o),
(1252,1203,o),
(1287,992,c),
(1417,1010,l),
(1376,1274,o),
(1138,1484,o),
(798,1484,cs),
(423,1484,o),
(134,1210,o),
(134,729,cs),
(134,251,o),
(423,-24,o),
(798,-24,cs),
(1138,-24,o),
(1372,187,o),
(1416,451,c),
(1287,469,l),
(1249,258,o),
(1062,93,o),
(800,93,cs),
(498,93,o),
(273,305,o),
(273,729,cs)
);
},
{
closed = 1;
nodes = (
(542,1650,l),
(817,1859,l),
(755,1859,l),
(1031,1650,l),
(1178,1650,l),
(864,1883,l),
(708,1883,l),
(395,1650,l)
);
}
);
width = 1555;
},
{
layerId = "0C0B9A44-4D66-4C06-AB4A-20867B2FE8E0";
shapes = (
{
closed = 1;
nodes = (
(441,1091,o),
(577,1203,o),
(790,1203,cs),
(936,1203,o),
(1059,1150,o),
(1093,972,c),
(1413,997,l),
(1379,1347,o),
(1119,1484,o),
(778,1484,cs),
(399,1484,o),
(104,1279,o),
(104,730,cs),
(104,198,o),
(399,-24,o),
(778,-24,cs),
(1119,-24,o),
(1384,126,o),
(1415,482,c),
(1099,506,l),
(1067,313,o),
(939,257,o),
(790,257,cs),
(577,257,o),
(441,370,o),
(441,730,cs)
);
},
{
closed = 1;
nodes = (
(604,1620,l),
(804,1866,l),
(736,1866,l),
(937,1620,l),
(1251,1620,l),
(963,1908,l),
(577,1908,l),
(290,1620,l)
);
}
);
width = 1555;
},
{
layerId = "2B3680FA-30B6-467C-955F-2315D5D255F4";
shapes = (
{
closed = 1;
nodes = (
(257,1196,o),
(431,1366,o),
(651,1366,cs),
(853,1366,o),
(974,1220,o),
(992,999,c),
(1115,1011,l),
(1102,1288,o),
(926,1483,o),
(648,1483,cs),
(344,1483,o),
(122,1240,o),
(122,729,cs),
(122,221,o),
(344,-22,o),
(648,-22,cs),
(926,-22,o),
(1102,173,o),
(1115,450,c),
(992,462,l),
(974,241,o),
(853,95,o),
(651,95,cs),
(431,95,o),
(257,265,o),
(257,729,cs)
);
},
{
closed = 1;
nodes = (
(429,1650,l),
(648,1854,l),
(592,1854,l),
(811,1650,l),
(942,1650,l),
(678,1883,l),
(562,1883,l),
(298,1650,l)
);
}
);
width = 1240;
},
{
layerId = "8B99F5F8-0F2E-47D1-851D-9A55DF2AB712";
shapes = (
{
closed = 1;
nodes = (
(514,1084,o),
(608,1205,o),
(767,1205,cs),
(893,1205,o),
(941,1128,o),
(922,964,c),
(1230,984,l),
(1288,1330,o),
(1105,1484,o),
(803,1484,cs),
(448,1484,o),
(216,1287,o),
(112,750,cs),
(7,213,o),
(180,-24,o),
(530,-24,cs),
(835,-24,o),
(1054,129,o),
(1133,486,c),
(833,506,l),
(786,331,o),
(709,255,o),
(583,255,cs),
(424,255,o),
(376,376,o),
(445,730,cs)
);
},
{
closed = 1;
nodes = (
(693,1620,l),
(894,1824,l),
(846,1824,l),
(967,1620,l),
(1251,1620,l),
(1073,1878,l),
(687,1878,l),
(409,1620,l)
);
}
);
width = 1240;
},
{
layerId = "8D453742-7B49-41B2-AE2A-3EBD26173AE1";
shapes = (
{
closed = 1;
nodes = (
(548,1091,o),
(706,1203,o),
(919,1203,cs),
(1065,1203,o),
(1178,1150,o),
(1177,972,c),
(1502,997,l),
(1536,1347,o),
(1302,1484,o),
(961,1484,cs),
(582,1484,o),
(248,1279,o),
(141,730,cs),
(37,198,o),
(289,-24,o),
(668,-24,cs),
(1009,-24,o),
(1303,126,o),
(1404,482,c),
(1092,506,l),
(1023,313,o),
(884,257,o),
(735,257,cs),
(522,257,o),
(408,370,o),
(478,730,cs)
);
},
{
closed = 1;
nodes = (
(814,1620,l),
(1062,1866,l),
(994,1866,l),
(1147,1620,l),
(1461,1620,l),
(1229,1908,l),
(843,1908,l),
(500,1620,l)
);
}
);
width = 1555;
},
{
layerId = "FCEBCCDD-9F1F-4D06-95BC-5606E8CBB848";
shapes = (
{
closed = 1;
nodes = (
(391,1196,o),
(599,1366,o),
(819,1366,cs),
(1021,1366,o),
(1118,1220,o),
(1093,999,c),
(1214,1011,l),
(1254,1288,o),
(1106,1483,o),
(828,1483,cs),
(524,1483,o),
(267,1250,o),
(168,739,cs),
(69,231,o),
(252,-22,o),
(556,-22,cs),
(834,-22,o),
(1038,173,o),
(1104,450,c),
(984,462,l),
(923,241,o),
(773,95,o),
(571,95,cs),
(351,95,o),
(211,265,o),
(301,729,cs)
);
},
{
closed = 1;
nodes = (
(652,1650,l),
(910,1854,l),
(854,1854,l),
(1034,1650,l),
(1165,1650,l),
(946,1883,l),
(830,1883,l),
(521,1650,l)
);
}
);
width = 1240;
},
{
layerId = "58E9293A-5120-4E1E-8451-D6ECB5204CAC";
shapes = (
{
closed = 1;
nodes = (
(401,1156,o),
(667,1367,o),
(969,1367,cs),
(1231,1367,o),
(1389,1203,o),
(1383,992,c),
(1516,1010,l),
(1527,1274,o),
(1329,1484,o),
(989,1484,cs),
(614,1484,o),
(272,1210,o),
(179,729,cs),
(86,251,o),
(321,-24,o),
(696,-24,cs),
(1036,-24,o),
(1311,187,o),
(1407,451,c),
(1281,469,l),
(1202,258,o),
(983,93,o),
(721,93,cs),
(419,93,o),
(235,305,o),
(318,729,cs)
);
},
{
closed = 1;
nodes = (
(766,1650,l),
(1081,1859,l),
(1019,1859,l),
(1255,1650,l),
(1402,1650,l),
(1133,1883,l),
(977,1883,l),
(619,1650,l)
);
}
);
width = 1555;
}
);
unicode = 264;
},
{
glyphname = Cdotaccent;
lastChange = "2024-04-27 00:07:48 +0000";
layers = (
{
layerId = "DA5CBF49-7F7A-4926-B587-2652260B0ABD";
shapes = (
{
closed = 1;
nodes = (
(408,1084,o),
(479,1205,o),
(638,1205,cs),
(764,1205,o),
(827,1128,o),
(840,964,c),
(1144,984,l),
(1134,1330,o),
(932,1484,o),
(630,1484,cs),
(275,1484,o),
(71,1267,o),
(71,730,cs),
(71,193,o),
(280,-24,o),
(630,-24,cs),
(935,-24,o),
(1134,129,o),
(1144,486,c),
(840,506,l),
(827,331,o),
(764,255,o),
(638,255,cs),
(479,255,o),
(408,376,o),
(408,730,cs)
);
},
{
closed = 1;
nodes = (
(714.4,1618.8,o),
(780.8,1678.8,o),
(780.8,1771.6,cs),
(780.8,1864.4,o),
(714.4,1922,o),
(616,1922,cs),
(517.6,1922,o),
(451.2,1864.4,o),
(451.2,1771.6,cs),
(451.2,1678.8,o),
(517.6,1618.8,o),
(616,1618.8,cs)
);
}
);
width = 1240;
},
{
layerId = "DC524FA5-69B0-4541-AEAA-64C37A6100D8";
shapes = (
{
closed = 1;
nodes = (
(273,1156,o),
(498,1367,o),
(800,1367,cs),
(1062,1367,o),
(1252,1203,o),
(1287,992,c),
(1417,1010,l),
(1376,1274,o),
(1138,1484,o),
(798,1484,cs),
(423,1484,o),
(134,1210,o),
(134,729,cs),
(134,251,o),
(423,-24,o),
(798,-24,cs),
(1138,-24,o),
(1372,187,o),
(1416,451,c),
(1287,469,l),
(1249,258,o),
(1062,93,o),
(800,93,cs),
(498,93,o),
(273,305,o),
(273,729,cs)
);
},
{
closed = 1;
nodes = (
(849,1663,o),
(893,1699,o),
(893,1761,cs),
(893,1823,o),
(849,1859,o),
(787,1859,cs),
(725,1859,o),
(681,1823,o),
(681,1761,cs),
(681,1699,o),
(725,1663,o),
(787,1663,cs)
);
}
);
width = 1555;
},
{
layerId = "0C0B9A44-4D66-4C06-AB4A-20867B2FE8E0";
shapes = (
{
closed = 1;
nodes = (
(441,1091,o),
(577,1203,o),
(790,1203,cs),
(936,1203,o),
(1059,1150,o),
(1093,972,c),
(1413,997,l),
(1379,1347,o),
(1119,1484,o),
(778,1484,cs),
(399,1484,o),
(104,1279,o),
(104,730,cs),
(104,198,o),
(399,-24,o),
(778,-24,cs),
(1119,-24,o),
(1384,126,o),
(1415,482,c),
(1099,506,l),
(1067,313,o),
(939,257,o),
(790,257,cs),
(577,257,o),
(441,370,o),
(441,730,cs)
);
},
{
closed = 1;
nodes = (
(869,1645,o),
(935,1705,o),
(935,1798,cs),
(935,1890,o),
(869,1948,o),
(770,1948,cs),
(672,1948,o),
(606,1890,o),
(606,1798,cs),
(606,1705,o),
(672,1645,o),
(770,1645,cs)
);
}
);
width = 1555;
},
{
layerId = "2B3680FA-30B6-467C-955F-2315D5D255F4";
shapes = (
{
closed = 1;
nodes = (
(257,1196,o),
(431,1366,o),
(651,1366,cs),
(853,1366,o),
(974,1220,o),
(992,999,c),
(1115,1011,l),
(1102,1288,o),
(926,1483,o),
(648,1483,cs),
(344,1483,o),
(122,1240,o),
(122,729,cs),
(122,221,o),
(344,-22,o),
(648,-22,cs),
(926,-22,o),
(1102,173,o),
(1115,450,c),
(992,462,l),
(974,241,o),
(853,95,o),
(651,95,cs),
(431,95,o),
(257,265,o),
(257,729,cs)
);
},
{
closed = 1;
nodes = (
(682,1663,o),
(726,1699,o),
(726,1761,cs),
(726,1823,o),
(682,1859,o),
(620,1859,cs),
(558,1859,o),
(514,1823,o),
(514,1761,cs),
(514,1699,o),
(558,1663,o),
(620,1663,cs)
);
}
);
width = 1240;
},
{
layerId = "8B99F5F8-0F2E-47D1-851D-9A55DF2AB712";
shapes = (
{
closed = 1;
nodes = (
(514,1084,o),
(608,1205,o),
(767,1205,cs),
(893,1205,o),
(941,1128,o),
(922,964,c),
(1230,984,l),
(1288,1330,o),
(1105,1484,o),
(803,1484,cs),
(448,1484,o),
(216,1287,o),
(112,750,cs),
(7,213,o),
(180,-24,o),
(530,-24,cs),
(835,-24,o),
(1054,129,o),
(1133,486,c),
(833,506,l),
(786,331,o),
(709,255,o),
(583,255,cs),
(424,255,o),
(376,376,o),
(445,730,cs)
);
},
{
closed = 1;
nodes = (
(924,1619,o),
(1002,1679,o),
(1020,1772,cs),
(1038,1864,o),
(983,1922,o),
(885,1922,cs),
(786,1922,o),
(709,1864,o),
(691,1772,cs),
(673,1679,o),
(727,1619,o),
(826,1619,cs)
);
}
);
width = 1240;
},
{
layerId = "8D453742-7B49-41B2-AE2A-3EBD26173AE1";
shapes = (
{
closed = 1;
nodes = (
(548,1091,o),
(706,1203,o),
(919,1203,cs),
(1065,1203,o),
(1178,1150,o),
(1177,972,c),
(1502,997,l),
(1536,1347,o),
(1302,1484,o),
(961,1484,cs),
(582,1484,o),
(248,1279,o),
(141,730,cs),
(37,198,o),
(289,-24,o),
(668,-24,cs),
(1009,-24,o),
(1303,126,o),
(1404,482,c),
(1092,506,l),
(1023,313,o),
(884,257,o),
(735,257,cs),
(522,257,o),
(408,370,o),
(478,730,cs)
);
},
{
closed = 1;
nodes = (
(1084,1645,o),
(1162,1705,o),
(1180,1798,cs),
(1198,1890,o),
(1142,1948,o),
(1044,1948,cs),
(946,1948,o),
(868,1890,o),
(850,1798,cs),
(832,1705,o),
(887,1645,o),
(985,1645,cs)
);
}
);
width = 1555;
},
{
layerId = "FCEBCCDD-9F1F-4D06-95BC-5606E8CBB848";
shapes = (
{
closed = 1;
nodes = (
(391,1196,o),
(599,1366,o),
(819,1366,cs),
(1021,1366,o),
(1118,1220,o),
(1093,999,c),
(1214,1011,l),
(1254,1288,o),
(1106,1483,o),
(828,1483,cs),
(524,1483,o),
(267,1250,o),
(168,739,cs),
(69,231,o),
(252,-22,o),
(556,-22,cs),
(834,-22,o),
(1038,173,o),
(1104,450,c),
(984,462,l),
(923,241,o),
(773,95,o),
(571,95,cs),
(351,95,o),
(211,265,o),
(301,729,cs)
);
},
{
closed = 1;
nodes = (
(907,1663,o),
(958,1699,o),
(970,1761,cs),
(982,1823,o),
(945,1859,o),
(883,1859,cs),
(821,1859,o),
(770,1823,o),
(758,1761,cs),
(746,1699,o),
(783,1663,o),
(845,1663,cs)
);
}
);
width = 1240;
},
{
layerId = "58E9293A-5120-4E1E-8451-D6ECB5204CAC";
shapes = (
{
closed = 1;
nodes = (
(401,1156,o),
(667,1367,o),
(969,1367,cs),
(1231,1367,o),
(1389,1203,o),
(1383,992,c),
(1516,1010,l),
(1527,1274,o),
(1329,1484,o),
(989,1484,cs),
(614,1484,o),
(272,1210,o),
(179,729,cs),
(86,251,o),
(321,-24,o),
(696,-24,cs),
(1036,-24,o),
(1311,187,o),
(1407,451,c),
(1281,469,l),
(1202,258,o),
(983,93,o),
(721,93,cs),
(419,93,o),
(235,305,o),
(318,729,cs)
);
},
{
closed = 1;
nodes = (
(1075,1663,o),
(1126,1699,o),
(1138,1761,cs),
(1150,1823,o),
(1113,1859,o),
(1051,1859,cs),
(989,1859,o),
(938,1823,o),
(926,1761,cs),
(914,1699,o),
(951,1663,o),
(1013,1663,cs)
);
}
);
width = 1555;
}
);
unicode = 266;
},
{
glyphname = D;
lastChange = "2024-04-27 00:07:48 +0000";
layers = (
{
layerId = "2B3680FA-30B6-467C-955F-2315D5D255F4";
shapes = (
{
closed = 1;
nodes = (
(316,1460,l),
(190,1460,l),
(190,0,l),
(316,0,l)
);
},
{
closed = 1;
nodes = (
(988,335,o),
(857,110,o),
(495,110,cs),
(275,110,l),
(275,0,l),
(523,0,ls),
(992,0,o),
(1123,352,o),
(1123,733,cs),
(1123,1114,o),
(992,1460,o),
(523,1460,cs),
(275,1460,l),
(275,1350,l),
(495,1350,ls),
(857,1350,o),
(988,1131,o),
(988,733,cs)
);
}
);
width = 1240;
},
{
layerId = "58E9293A-5120-4E1E-8451-D6ECB5204CAC";
shapes = (
{
closed = 1;
nodes = (
(520,1460,l),
(394,1460,l),
(110,0,l),
(236,0,l)
);
},
{
closed = 1;
nodes = (
(1265,380,o),
(1058,110,o),
(617,110,cs),
(216,110,l),
(195,0,l),
(628,0,ls),
(1156,0,o),
(1396,341,o),
(1472,733,cs),
(1549,1125,o),
(1440,1460,o),
(912,1460,cs),
(479,1460,l),
(457,1350,l),
(858,1350,ls),
(1299,1350,o),
(1402,1086,o),
(1333,733,cs)
);
}
);
width = 1555;
},
{
layerId = "8D453742-7B49-41B2-AE2A-3EBD26173AE1";
shapes = (
{
closed = 1;
nodes = (
(721,1460,l),
(392,1460,l),
(108,0,l),
(437,0,l)
);
},
{
closed = 1;
nodes = (
(1076,403,o),
(861,257,o),
(617,257,cs),
(303,257,l),
(253,0,l),
(559,0,ls),
(930,0,o),
(1360,127,o),
(1483,759,cs),
(1605,1391,o),
(1214,1460,o),
(843,1460,cs),
(537,1460,l),
(487,1203,l),
(801,1203,ls),
(1045,1203,o),
(1215,1115,o),
(1146,759,cs)
);
}
);
width = 1555;
},
{
layerId = "0C0B9A44-4D66-4C06-AB4A-20867B2FE8E0";
shapes = (
{
closed = 1;
nodes = (
(542,1460,l),
(213,1460,l),
(213,0,l),
(542,0,l)
);
},
{
closed = 1;
nodes = (
(1103,403,o),
(916,257,o),
(672,257,cs),
(358,257,l),
(358,0,l),
(664,0,ls),
(1035,0,o),
(1440,127,o),
(1440,759,cs),
(1440,1391,o),
(1035,1460,o),
(664,1460,cs),
(358,1460,l),
(358,1203,l),
(672,1203,ls),
(916,1203,o),
(1103,1115,o),
(1103,759,cs)
);
}
);
width = 1555;
},
{
layerId = "DA5CBF49-7F7A-4926-B587-2652260B0ABD";
shapes = (
{
closed = 1;
nodes = (
(461,1460,l),
(132,1460,l),
(132,0,l),
(461,0,l)
);
},
{
closed = 1;
nodes = (
(832,403,o),
(713,257,o),
(525,257,cs),
(277,257,l),
(277,0,l),
(517,0,ls),
(832,0,o),
(1169,127,o),
(1169,759,cs),
(1169,1391,o),
(832,1460,o),
(517,1460,cs),
(277,1460,l),
(277,1203,l),
(525,1203,ls),
(713,1203,o),
(832,1115,o),
(832,759,cs)
);
}
);
width = 1240;
},
{
layerId = "FCEBCCDD-9F1F-4D06-95BC-5606E8CBB848";
shapes = (
{
closed = 1;
nodes = (
(503,1460,l),
(377,1460,l),
(93,0,l),
(219,0,l)
);
},
{
closed = 1;
nodes = (
(956,335,o),
(781,110,o),
(419,110,cs),
(199,110,l),
(178,0,l),
(436,0,ls),
(905,0,o),
(1092,342,o),
(1167,723,cs),
(1241,1104,o),
(1179,1460,o),
(710,1460,cs),
(462,1460,l),
(440,1350,l),
(660,1350,ls),
(1022,1350,o),
(1111,1131,o),
(1033,733,cs)
);
}
);
width = 1240;
},
{
layerId = "8B99F5F8-0F2E-47D1-851D-9A55DF2AB712";
shapes = (
{
closed = 1;
nodes = (
(640,1460,l),
(311,1460,l),
(27,0,l),
(356,0,l)
);
},
{
closed = 1;
nodes = (
(805,403,o),
(658,257,o),
(470,257,cs),
(222,257,l),
(172,0,l),
(412,0,ls),
(727,0,o),
(1087,117,o),
(1210,749,cs),
(1332,1381,o),
(1011,1460,o),
(696,1460,cs),
(456,1460,l),
(406,1203,l),
(654,1203,ls),
(842,1203,o),
(944,1115,o),
(875,759,cs)
);
}
);
width = 1240;
},
{
layerId = "DC524FA5-69B0-4541-AEAA-64C37A6100D8";
shapes = (
{
closed = 1;
nodes = (
(333,1460,l),
(207,1460,l),
(207,0,l),
(333,0,l)
);
},
{
closed = 1;
nodes = (
(1288,380,o),
(1134,110,o),
(693,110,cs),
(292,110,l),
(292,0,l),
(725,0,ls),
(1253,0,o),
(1427,341,o),
(1427,733,cs),
(1427,1125,o),
(1253,1460,o),
(725,1460,cs),
(292,1460,l),
(292,1350,l),
(693,1350,ls),
(1134,1350,o),
(1288,1086,o),
(1288,733,cs)
);
}
);
width = 1555;
}
);
unicode = 68;
},
{
glyphname = Eth;
lastChange = "2024-04-27 00:07:48 +0000";
layers = (
{
layerId = "DA5CBF49-7F7A-4926-B587-2652260B0ABD";
shapes = (
{
closed = 1;
nodes = (
(13,867,l),
(13,594,l),
(640,594,l),
(640,867,l)
);
},
{
closed = 1;
nodes = (
(461,1460,l),
(132,1460,l),
(132,0,l),
(461,0,l)
);
},
{
closed = 1;
nodes = (
(832,403,o),
(713,257,o),
(525,257,cs),
(277,257,l),
(277,0,l),
(517,0,ls),
(832,0,o),
(1169,127,o),
(1169,759,cs),
(1169,1391,o),
(832,1460,o),
(517,1460,cs),
(277,1460,l),
(277,1203,l),
(525,1203,ls),
(713,1203,o),
(832,1115,o),
(832,759,cs)
);
}
);
width = 1240;
},
{
layerId = "DC524FA5-69B0-4541-AEAA-64C37A6100D8";
shapes = (
{
closed = 1;
nodes = (
(36,815,l),
(36,705,l),
(862,705,l),
(862,815,l)
);
},
{
closed = 1;
nodes = (
(357,1460,l),
(231,1460,l),
(231,0,l),
(357,0,l)
);
},
{
closed = 1;
nodes = (
(1312,380,o),
(1158,110,o),
(717,110,cs),
(316,110,l),
(316,0,l),
(749,0,ls),
(1277,0,o),
(1451,341,o),
(1451,733,cs),
(1451,1125,o),
(1277,1460,o),
(749,1460,cs),
(316,1460,l),
(316,1350,l),
(717,1350,ls),
(1158,1350,o),
(1312,1086,o),
(1312,733,cs)
);
}
);
width = 1555;
},
{
layerId = "0C0B9A44-4D66-4C06-AB4A-20867B2FE8E0";
shapes = (
{
closed = 1;
nodes = (
(24,867,l),
(24,594,l),
(829,594,l),
(829,867,l)
);
},
{
closed = 1;
nodes = (
(525,1460,l),
(196,1460,l),
(196,0,l),
(525,0,l)
);
},
{
closed = 1;
nodes = (
(1086,403,o),
(899,257,o),
(655,257,cs),
(341,257,l),
(341,0,l),
(647,0,ls),
(1018,0,o),
(1423,127,o),
(1423,759,cs),
(1423,1391,o),
(1018,1460,o),
(647,1460,cs),
(341,1460,l),
(341,1203,l),
(655,1203,ls),
(899,1203,o),
(1086,1115,o),
(1086,759,cs)
);
}
);
width = 1555;
},
{
layerId = "2B3680FA-30B6-467C-955F-2315D5D255F4";
shapes = (
{
closed = 1;
nodes = (
(40,815,l),
(40,705,l),
(672,705,l),
(672,815,l)
);
},
{
closed = 1;
nodes = (
(316,1460,l),
(190,1460,l),
(190,0,l),
(316,0,l)
);
},
{
closed = 1;
nodes = (
(988,335,o),
(857,110,o),
(495,110,cs),
(275,110,l),
(275,0,l),
(523,0,ls),
(992,0,o),
(1123,352,o),
(1123,733,cs),
(1123,1114,o),
(992,1460,o),
(523,1460,cs),
(275,1460,l),
(275,1350,l),
(495,1350,ls),
(857,1350,o),
(988,1131,o),
(988,733,cs)
);
}
);
width = 1240;
},
{
layerId = "8B99F5F8-0F2E-47D1-851D-9A55DF2AB712";
shapes = (
{
closed = 1;
nodes = (
(77,867,l),
(23,594,l),
(650,594,l),
(704,867,l)
);
},
{
closed = 1;
nodes = (
(640,1460,l),
(311,1460,l),
(27,0,l),
(356,0,l)
);
},
{
closed = 1;
nodes = (
(805,403,o),
(658,257,o),
(470,257,cs),
(222,257,l),
(172,0,l),
(412,0,ls),
(727,0,o),
(1087,117,o),
(1210,749,cs),
(1332,1381,o),
(1011,1460,o),
(696,1460,cs),
(456,1460,l),
(406,1203,l),
(654,1203,ls),
(842,1203,o),
(944,1115,o),
(875,759,cs)
);
}
);
width = 1240;
},
{
layerId = "8D453742-7B49-41B2-AE2A-3EBD26173AE1";
shapes = (
{
closed = 1;
nodes = (
(88,867,l),
(34,594,l),
(839,594,l),
(893,867,l)
);
},
{
closed = 1;
nodes = (
(704,1460,l),
(375,1460,l),
(91,0,l),
(420,0,l)
);
},
{
closed = 1;
nodes = (
(1059,403,o),
(844,257,o),
(600,257,cs),
(286,257,l),
(236,0,l),
(542,0,ls),
(913,0,o),
(1343,127,o),
(1466,759,cs),
(1588,1391,o),
(1197,1460,o),
(826,1460,cs),
(520,1460,l),
(470,1203,l),
(784,1203,ls),
(1028,1203,o),
(1198,1115,o),
(1129,759,cs)
);
}
);
width = 1555;
},
{
layerId = "FCEBCCDD-9F1F-4D06-95BC-5606E8CBB848";
shapes = (
{
closed = 1;
nodes = (
(101,815,l),
(80,705,l),
(712,705,l),
(733,815,l)
);
},
{
closed = 1;
nodes = (
(503,1460,l),
(377,1460,l),
(93,0,l),
(219,0,l)
);
},
{
closed = 1;
nodes = (
(956,335,o),
(781,110,o),
(419,110,cs),
(199,110,l),
(178,0,l),
(436,0,ls),
(905,0,o),
(1092,342,o),
(1167,723,cs),
(1241,1104,o),
(1179,1460,o),
(710,1460,cs),
(462,1460,l),
(440,1350,l),
(660,1350,ls),
(1022,1350,o),
(1111,1131,o),
(1033,733,cs)
);
}
);
width = 1240;
},
{
layerId = "58E9293A-5120-4E1E-8451-D6ECB5204CAC";
shapes = (
{
closed = 1;
nodes = (
(97,815,l),
(76,705,l),
(902,705,l),
(923,815,l)
);
},
{
closed = 1;
nodes = (
(544,1460,l),
(418,1460,l),
(134,0,l),
(260,0,l)
);
},
{
closed = 1;
nodes = (
(1289,380,o),
(1082,110,o),
(641,110,cs),
(240,110,l),
(219,0,l),
(652,0,ls),
(1180,0,o),
(1420,341,o),
(1496,733,cs),
(1573,1125,o),
(1464,1460,o),
(936,1460,cs),
(503,1460,l),
(481,1350,l),
(882,1350,ls),
(1323,1350,o),
(1426,1086,o),
(1357,733,cs)
);
}
);
width = 1555;
}
);
unicode = 208;
},
{
glyphname = Dcaron;
lastChange = "2024-04-27 00:07:48 +0000";
layers = (
{
layerId = "DA5CBF49-7F7A-4926-B587-2652260B0ABD";
shapes = (
{
closed = 1;
nodes = (
(461,1460,l),
(132,1460,l),
(132,0,l),
(461,0,l)
);
},
{
closed = 1;
nodes = (
(832,403,o),
(713,257,o),
(525,257,cs),
(277,257,l),
(277,0,l),
(517,0,ls),
(832,0,o),
(1169,127,o),
(1169,759,cs),
(1169,1391,o),
(832,1460,o),
(517,1460,cs),
(277,1460,l),
(277,1203,l),
(525,1203,ls),
(713,1203,o),
(832,1115,o),
(832,759,cs)
);
},
{
closed = 1;
nodes = (
(483,1878,l),
(644,1674,l),
(596,1674,l),
(757,1878,l),
(1041,1878,l),
(813,1620,l),
(427,1620,l),
(199,1878,l)
);
}
);
width = 1240;
},
{
layerId = "DC524FA5-69B0-4541-AEAA-64C37A6100D8";
shapes = (
{
closed = 1;
nodes = (
(333,1460,l),
(207,1460,l),
(207,0,l),
(333,0,l)
);
},
{
closed = 1;
nodes = (
(1288,380,o),
(1134,110,o),
(693,110,cs),
(292,110,l),
(292,0,l),
(725,0,ls),
(1253,0,o),
(1427,341,o),
(1427,733,cs),
(1427,1125,o),
(1253,1460,o),
(725,1460,cs),
(292,1460,l),
(292,1350,l),
(693,1350,ls),
(1134,1350,o),
(1288,1086,o),
(1288,733,cs)
);
},
{
closed = 1;
nodes = (
(530,1883,l),
(805,1674,l),
(743,1674,l),
(1019,1883,l),
(1166,1883,l),
(852,1650,l),
(696,1650,l),
(383,1883,l)
);
}
);
width = 1555;
},
{
layerId = "0C0B9A44-4D66-4C06-AB4A-20867B2FE8E0";
shapes = (
{
closed = 1;
nodes = (
(542,1460,l),
(213,1460,l),
(213,0,l),
(542,0,l)
);
},
{
closed = 1;
nodes = (
(1103,403,o),
(916,257,o),
(672,257,cs),
(358,257,l),
(358,0,l),
(664,0,ls),
(1035,0,o),
(1440,127,o),
(1440,759,cs),
(1440,1391,o),
(1035,1460,o),
(664,1460,cs),
(358,1460,l),
(358,1203,l),
(672,1203,ls),
(916,1203,o),
(1103,1115,o),
(1103,759,cs)
);
},
{
closed = 1;
nodes = (
(647,1908,l),
(847,1662,l),
(779,1662,l),
(980,1908,l),
(1294,1908,l),
(1006,1620,l),
(620,1620,l),
(333,1908,l)
);
}
);
width = 1555;
},
{
layerId = "2B3680FA-30B6-467C-955F-2315D5D255F4";
shapes = (
{
closed = 1;
nodes = (
(316,1460,l),
(190,1460,l),
(190,0,l),
(316,0,l)
);
},
{
closed = 1;
nodes = (
(988,335,o),
(857,110,o),
(495,110,cs),
(275,110,l),
(275,0,l),
(523,0,ls),
(992,0,o),
(1123,352,o),
(1123,733,cs),
(1123,1114,o),
(992,1460,o),
(523,1460,cs),
(275,1460,l),
(275,1350,l),
(495,1350,ls),
(857,1350,o),
(988,1131,o),
(988,733,cs)
);
},
{
closed = 1;
nodes = (
(429,1883,l),
(648,1679,l),
(592,1679,l),
(811,1883,l),
(942,1883,l),
(678,1650,l),
(562,1650,l),
(298,1883,l)
);
}
);
width = 1240;
},
{
layerId = "8B99F5F8-0F2E-47D1-851D-9A55DF2AB712";
shapes = (
{
closed = 1;
nodes = (
(640,1460,l),
(311,1460,l),
(27,0,l),
(356,0,l)
);
},
{
closed = 1;
nodes = (
(805,403,o),
(658,257,o),
(470,257,cs),
(222,257,l),
(172,0,l),
(412,0,ls),
(727,0,o),
(1087,117,o),
(1210,749,cs),
(1332,1381,o),
(1011,1460,o),
(696,1460,cs),
(456,1460,l),
(406,1203,l),
(654,1203,ls),
(842,1203,o),
(944,1115,o),
(875,759,cs)
);
},
{
closed = 1;
nodes = (
(743,1878,l),
(864,1674,l),
(816,1674,l),
(1017,1878,l),
(1301,1878,l),
(1023,1620,l),
(637,1620,l),
(459,1878,l)
);
}
);
width = 1240;
},
{
layerId = "8D453742-7B49-41B2-AE2A-3EBD26173AE1";
shapes = (
{
closed = 1;
nodes = (
(721,1460,l),
(392,1460,l),
(108,0,l),
(437,0,l)
);
},
{
closed = 1;
nodes = (
(1076,403,o),
(861,257,o),
(617,257,cs),
(303,257,l),
(253,0,l),
(559,0,ls),
(930,0,o),
(1360,127,o),
(1483,759,cs),
(1605,1391,o),
(1214,1460,o),
(843,1460,cs),
(537,1460,l),
(487,1203,l),
(801,1203,ls),
(1045,1203,o),
(1215,1115,o),
(1146,759,cs)
);
},
{
closed = 1;
nodes = (
(913,1908,l),
(1065,1662,l),
(997,1662,l),
(1246,1908,l),
(1560,1908,l),
(1216,1620,l),
(830,1620,l),
(599,1908,l)
);
}
);
width = 1555;
},
{
layerId = "FCEBCCDD-9F1F-4D06-95BC-5606E8CBB848";
shapes = (
{
closed = 1;
nodes = (
(503,1460,l),
(377,1460,l),
(93,0,l),
(219,0,l)
);
},
{
closed = 1;
nodes = (
(956,335,o),
(781,110,o),
(419,110,cs),
(199,110,l),
(178,0,l),
(436,0,ls),
(905,0,o),
(1092,342,o),
(1167,723,cs),
(1241,1104,o),
(1179,1460,o),
(710,1460,cs),
(462,1460,l),
(440,1350,l),
(660,1350,ls),
(1022,1350,o),
(1111,1131,o),
(1033,733,cs)
);
},
{
closed = 1;
nodes = (
(698,1883,l),
(877,1679,l),
(821,1679,l),
(1080,1883,l),
(1211,1883,l),
(902,1650,l),
(786,1650,l),
(567,1883,l)
);
}
);
width = 1240;
},
{
layerId = "58E9293A-5120-4E1E-8451-D6ECB5204CAC";
shapes = (
{
closed = 1;
nodes = (
(520,1460,l),
(394,1460,l),
(110,0,l),
(236,0,l)
);
},
{
closed = 1;
nodes = (
(1265,380,o),
(1058,110,o),
(617,110,cs),
(216,110,l),
(195,0,l),
(628,0,ls),
(1156,0,o),
(1396,341,o),
(1472,733,cs),
(1549,1125,o),
(1440,1460,o),
(912,1460,cs),
(479,1460,l),
(457,1350,l),
(858,1350,ls),
(1299,1350,o),
(1402,1086,o),
(1333,733,cs)
);
},
{
closed = 1;
nodes = (
(799,1883,l),
(1033,1674,l),
(971,1674,l),
(1288,1883,l),
(1435,1883,l),
(1076,1650,l),
(920,1650,l),
(652,1883,l)
);
}
);
width = 1555;
}
);
unicode = 270;
},
{
glyphname = Dcroat;
lastChange = "2024-04-27 00:07:48 +0000";
layers = (
{
layerId = "DA5CBF49-7F7A-4926-B587-2652260B0ABD";
shapes = (
{
closed = 1;
nodes = (
(13,867,l),
(13,594,l),
(640,594,l),
(640,867,l)
);
},
{
closed = 1;
nodes = (
(461,1460,l),
(132,1460,l),
(132,0,l),
(461,0,l)
);
},
{
closed = 1;
nodes = (
(832,403,o),
(713,257,o),
(525,257,cs),
(277,257,l),
(277,0,l),
(517,0,ls),
(832,0,o),
(1169,127,o),
(1169,759,cs),
(1169,1391,o),
(832,1460,o),
(517,1460,cs),
(277,1460,l),
(277,1203,l),
(525,1203,ls),
(713,1203,o),
(832,1115,o),
(832,759,cs)
);
}
);
width = 1240;
},
{
layerId = "DC524FA5-69B0-4541-AEAA-64C37A6100D8";
shapes = (
{
closed = 1;
nodes = (
(36,815,l),
(36,705,l),
(862,705,l),
(862,815,l)
);
},
{
closed = 1;
nodes = (
(357,1460,l),
(231,1460,l),
(231,0,l),
(357,0,l)
);
},
{
closed = 1;
nodes = (
(1312,380,o),
(1158,110,o),
(717,110,cs),
(316,110,l),
(316,0,l),
(749,0,ls),
(1277,0,o),
(1451,341,o),
(1451,733,cs),
(1451,1125,o),
(1277,1460,o),
(749,1460,cs),
(316,1460,l),
(316,1350,l),
(717,1350,ls),
(1158,1350,o),
(1312,1086,o),
(1312,733,cs)
);
}
);
width = 1555;
},
{
layerId = "0C0B9A44-4D66-4C06-AB4A-20867B2FE8E0";
shapes = (
{
closed = 1;
nodes = (
(24,867,l),
(24,594,l),
(829,594,l),
(829,867,l)
);
},
{
closed = 1;
nodes = (
(525,1460,l),
(196,1460,l),
(196,0,l),
(525,0,l)
);
},
{
closed = 1;
nodes = (
(1086,403,o),
(899,257,o),
(655,257,cs),
(341,257,l),
(341,0,l),
(647,0,ls),
(1018,0,o),
(1423,127,o),
(1423,759,cs),
(1423,1391,o),
(1018,1460,o),
(647,1460,cs),
(341,1460,l),
(341,1203,l),
(655,1203,ls),
(899,1203,o),
(1086,1115,o),
(1086,759,cs)
);
}
);
width = 1555;
},
{
layerId = "2B3680FA-30B6-467C-955F-2315D5D255F4";
shapes = (
{
closed = 1;
nodes = (
(40,815,l),
(40,705,l),
(672,705,l),
(672,815,l)
);
},
{
closed = 1;
nodes = (
(316,1460,l),
(190,1460,l),
(190,0,l),
(316,0,l)
);
},
{
closed = 1;
nodes = (
(988,335,o),
(857,110,o),
(495,110,cs),
(275,110,l),
(275,0,l),
(523,0,ls),
(992,0,o),
(1123,352,o),
(1123,733,cs),
(1123,1114,o),
(992,1460,o),
(523,1460,cs),
(275,1460,l),
(275,1350,l),
(495,1350,ls),
(857,1350,o),
(988,1131,o),
(988,733,cs)
);
}
);
width = 1240;
},
{
layerId = "8B99F5F8-0F2E-47D1-851D-9A55DF2AB712";
shapes = (
{
closed = 1;
nodes = (
(77,867,l),
(23,594,l),
(650,594,l),
(704,867,l)
);
},
{
closed = 1;
nodes = (
(640,1460,l),
(311,1460,l),
(27,0,l),
(356,0,l)
);
},
{
closed = 1;
nodes = (
(805,403,o),
(658,257,o),
(470,257,cs),
(222,257,l),
(172,0,l),
(412,0,ls),
(727,0,o),
(1087,117,o),
(1210,749,cs),
(1332,1381,o),
(1011,1460,o),
(696,1460,cs),
(456,1460,l),
(406,1203,l),
(654,1203,ls),
(842,1203,o),
(944,1115,o),
(875,759,cs)
);
}
);
width = 1240;
},
{
layerId = "8D453742-7B49-41B2-AE2A-3EBD26173AE1";
shapes = (
{
closed = 1;
nodes = (
(88,867,l),
(34,594,l),
(839,594,l),
(893,867,l)
);
},
{
closed = 1;
nodes = (
(704,1460,l),
(375,1460,l),
(91,0,l),
(420,0,l)
);
},
{
closed = 1;
nodes = (
(1059,403,o),
(844,257,o),
(600,257,cs),
(286,257,l),
(236,0,l),
(542,0,ls),
(913,0,o),
(1343,127,o),
(1466,759,cs),
(1588,1391,o),
(1197,1460,o),
(826,1460,cs),
(520,1460,l),
(470,1203,l),
(784,1203,ls),
(1028,1203,o),
(1198,1115,o),
(1129,759,cs)
);
}
);
width = 1555;
},
{
layerId = "FCEBCCDD-9F1F-4D06-95BC-5606E8CBB848";
shapes = (
{
closed = 1;
nodes = (
(101,815,l),
(80,705,l),
(712,705,l),
(733,815,l)
);
},
{
closed = 1;
nodes = (
(503,1460,l),
(377,1460,l),
(93,0,l),
(219,0,l)
);
},
{
closed = 1;
nodes = (
(956,335,o),
(781,110,o),
(419,110,cs),
(199,110,l),
(178,0,l),
(436,0,ls),
(905,0,o),
(1092,342,o),
(1167,723,cs),
(1241,1104,o),
(1179,1460,o),
(710,1460,cs),
(462,1460,l),
(440,1350,l),
(660,1350,ls),
(1022,1350,o),
(1111,1131,o),
(1033,733,cs)
);
}
);
width = 1240;
},
{
layerId = "58E9293A-5120-4E1E-8451-D6ECB5204CAC";
shapes = (
{
closed = 1;
nodes = (
(97,815,l),
(76,705,l),
(902,705,l),
(923,815,l)
);
},
{
closed = 1;
nodes = (
(544,1460,l),
(418,1460,l),
(134,0,l),
(260,0,l)
);
},
{
closed = 1;
nodes = (
(1289,380,o),
(1082,110,o),
(641,110,cs),
(240,110,l),
(219,0,l),
(652,0,ls),
(1180,0,o),
(1420,341,o),
(1496,733,cs),
(1573,1125,o),
(1464,1460,o),
(936,1460,cs),
(503,1460,l),
(481,1350,l),
(882,1350,ls),
(1323,1350,o),
(1426,1086,o),
(1357,733,cs)
);
}
);
width = 1555;
}
);
unicode = 272;
},
{
glyphname = E;
lastChange = "2024-04-27 00:07:48 +0000";
layers = (
{
layerId = "2B3680FA-30B6-467C-955F-2315D5D255F4";
shapes = (
{
closed = 1;
nodes = (
(316,1460,l),
(190,1460,l),
(190,0,l),
(316,0,l)
);
},
{
closed = 1;
nodes = (
(275,110,l),
(275,0,l),
(1068,0,l),
(1068,110,l)
);
},
{
closed = 1;
nodes = (
(275,799,l),
(275,694,l),
(945,694,l),
(945,799,l)
);
},
{
closed = 1;
nodes = (
(1068,1460,l),
(275,1460,l),
(275,1350,l),
(1068,1350,l)
);
}
);
width = 1240;
},
{
layerId = "58E9293A-5120-4E1E-8451-D6ECB5204CAC";
shapes = (
{
closed = 1;
nodes = (
(528,1460,l),
(402,1460,l),
(118,0,l),
(244,0,l)
);
},
{
closed = 1;
nodes = (
(224,110,l),
(203,0,l),
(1263,0,l),
(1284,110,l)
);
},
{
closed = 1;
nodes = (
(358,799,l),
(338,694,l),
(1275,694,l),
(1295,799,l)
);
},
{
closed = 1;
nodes = (
(1547,1460,l),
(487,1460,l),
(465,1350,l),
(1525,1350,l)
);
}
);
width = 1555;
},
{
layerId = "8D453742-7B49-41B2-AE2A-3EBD26173AE1";
shapes = (
{
closed = 1;
nodes = (
(682,1460,l),
(353,1460,l),
(69,0,l),
(398,0,l)
);
},
{
closed = 1;
nodes = (
(286,271,l),
(233,0,l),
(1253,0,l),
(1306,271,l)
);
},
{
closed = 1;
nodes = (
(429,856,l),
(379,599,l),
(1244,599,l),
(1294,856,l)
);
},
{
closed = 1;
nodes = (
(1537,1460,l),
(517,1460,l),
(464,1189,l),
(1484,1189,l)
);
}
);
width = 1555;
},
{
layerId = "0C0B9A44-4D66-4C06-AB4A-20867B2FE8E0";
shapes = (
{
closed = 1;
nodes = (
(503,1460,l),
(174,1460,l),
(174,0,l),
(503,0,l)
);
},
{
closed = 1;
nodes = (
(338,271,l),
(338,0,l),
(1358,0,l),
(1358,271,l)
);
},
{
closed = 1;
nodes = (
(368,856,l),
(368,599,l),
(1233,599,l),
(1233,856,l)
);
},
{
closed = 1;
nodes = (
(1358,1460,l),
(338,1460,l),
(338,1189,l),
(1358,1189,l)
);
}
);
width = 1555;
},
{
layerId = "DA5CBF49-7F7A-4926-B587-2652260B0ABD";
shapes = (
{
closed = 1;
nodes = (
(461,1460,l),
(132,1460,l),
(132,0,l),
(461,0,l)
);
},
{
closed = 1;
nodes = (
(293,271,l),
(293,0,l),
(1090,0,l),
(1090,271,l)
);
},
{
closed = 1;
nodes = (
(323,856,l),
(323,599,l),
(965,599,l),
(965,856,l)
);
},
{
closed = 1;
nodes = (
(1090,1460,l),
(293,1460,l),
(293,1189,l),
(1090,1189,l)
);
}
);
width = 1240;
},
{
layerId = "FCEBCCDD-9F1F-4D06-95BC-5606E8CBB848";
shapes = (
{
closed = 1;
nodes = (
(503,1460,l),
(377,1460,l),
(93,0,l),
(219,0,l)
);
},
{
closed = 1;
nodes = (
(199,110,l),
(178,0,l),
(971,0,l),
(992,110,l)
);
},
{
closed = 1;
nodes = (
(333,799,l),
(313,694,l),
(983,694,l),
(1003,799,l)
);
},
{
closed = 1;
nodes = (
(1255,1460,l),
(462,1460,l),
(440,1350,l),
(1233,1350,l)
);
}
);
width = 1240;
},
{
layerId = "8B99F5F8-0F2E-47D1-851D-9A55DF2AB712";
shapes = (
{
closed = 1;
nodes = (
(640,1460,l),
(311,1460,l),
(27,0,l),
(356,0,l)
);
},
{
closed = 1;
nodes = (
(241,271,l),
(188,0,l),
(985,0,l),
(1038,271,l)
);
},
{
closed = 1;
nodes = (
(384,856,l),
(334,599,l),
(976,599,l),
(1026,856,l)
);
},
{
closed = 1;
nodes = (
(1269,1460,l),
(472,1460,l),
(419,1189,l),
(1216,1189,l)
);
}
);
width = 1240;
},
{
layerId = "DC524FA5-69B0-4541-AEAA-64C37A6100D8";
shapes = (
{
closed = 1;
nodes = (
(341,1460,l),
(215,1460,l),
(215,0,l),
(341,0,l)
);
},
{
closed = 1;
nodes = (
(300,110,l),
(300,0,l),
(1360,0,l),
(1360,110,l)
);
},
{
closed = 1;
nodes = (
(300,799,l),
(300,694,l),
(1237,694,l),
(1237,799,l)
);
},
{
closed = 1;
nodes = (
(1360,1460,l),
(300,1460,l),
(300,1350,l),
(1360,1350,l)
);
}
);
width = 1555;
}
);
unicode = 69;
},
{
glyphname = Eacute;
lastChange = "2024-04-27 00:07:48 +0000";
layers = (
{
layerId = "DA5CBF49-7F7A-4926-B587-2652260B0ABD";
shapes = (
{
closed = 1;
nodes = (
(461,1460,l),
(132,1460,l),
(132,0,l),
(461,0,l)
);
},
{
closed = 1;
nodes = (
(293,271,l),
(293,0,l),
(1090,0,l),
(1090,271,l)
);
},
{
closed = 1;
nodes = (
(323,856,l),
(323,599,l),
(965,599,l),
(965,856,l)
);
},
{
closed = 1;
nodes = (
(1090,1460,l),
(293,1460,l),
(293,1189,l),
(1090,1189,l)
);
},
{
closed = 1;
nodes = (
(668,1877.386,l),
(1013,1877.386,l),
(764,1619.05,l),
(485,1619.05,l)
);
}
);
width = 1240;
},
{
layerId = "DC524FA5-69B0-4541-AEAA-64C37A6100D8";
shapes = (
{
closed = 1;
nodes = (
(341,1460,l),
(215,1460,l),
(215,0,l),
(341,0,l)
);
},
{
closed = 1;
nodes = (
(300,110,l),
(300,0,l),
(1360,0,l),
(1360,110,l)
);
},
{
closed = 1;
nodes = (
(300,799,l),
(300,694,l),
(1237,694,l),
(1237,799,l)
);
},
{
closed = 1;
nodes = (
(1360,1460,l),
(300,1460,l),
(300,1350,l),
(1360,1350,l)
);
},
{
closed = 1;
nodes = (
(985,1884,l),
(1138,1884,l),
(832,1652,l),
(713,1652,l)
);
}
);
width = 1555;
},
{
layerId = "0C0B9A44-4D66-4C06-AB4A-20867B2FE8E0";
shapes = (
{
closed = 1;
nodes = (
(503,1460,l),
(174,1460,l),
(174,0,l),
(503,0,l)
);
},
{
closed = 1;
nodes = (
(338,271,l),
(338,0,l),
(1358,0,l),
(1358,271,l)
);
},
{
closed = 1;
nodes = (
(368,856,l),
(368,599,l),
(1233,599,l),
(1233,856,l)
);
},
{
closed = 1;
nodes = (
(1358,1460,l),
(338,1460,l),
(338,1189,l),
(1358,1189,l)
);
},
{
closed = 1;
nodes = (
(840,1918,l),
(1225,1918,l),
(934,1619,l),
(623,1619,l)
);
}
);
width = 1555;
},
{
layerId = "2B3680FA-30B6-467C-955F-2315D5D255F4";
shapes = (
{
closed = 1;
nodes = (
(316,1460,l),
(190,1460,l),
(190,0,l),
(316,0,l)
);
},
{
closed = 1;
nodes = (
(275,110,l),
(275,0,l),
(1068,0,l),
(1068,110,l)
);
},
{
closed = 1;
nodes = (
(275,799,l),
(275,694,l),
(945,694,l),
(945,799,l)
);
},
{
closed = 1;
nodes = (
(1068,1460,l),
(275,1460,l),
(275,1350,l),
(1068,1350,l)
);
},
{
closed = 1;
nodes = (
(778,1883.236,l),
(918,1883.236,l),
(665,1650.191,l),
(556,1650.191,l)
);
}
);
width = 1240;
},
{
layerId = "8B99F5F8-0F2E-47D1-851D-9A55DF2AB712";
shapes = (
{
closed = 1;
nodes = (
(640,1460,l),
(311,1460,l),
(27,0,l),
(356,0,l)
);
},
{
closed = 1;
nodes = (
(241,271,l),
(188,0,l),
(985,0,l),
(1038,271,l)
);
},
{
closed = 1;
nodes = (
(384,856,l),
(334,599,l),
(976,599,l),
(1026,856,l)
);
},
{
closed = 1;
nodes = (
(1269,1460,l),
(472,1460,l),
(419,1189,l),
(1216,1189,l)
);
},
{
closed = 1;
nodes = (
(928,1877,l),
(1273,1877,l),
(974,1619,l),
(695,1619,l)
);
}
);
width = 1240;
},
{
layerId = "8D453742-7B49-41B2-AE2A-3EBD26173AE1";
shapes = (
{
closed = 1;
nodes = (
(682,1460,l),
(353,1460,l),
(69,0,l),
(398,0,l)
);
},
{
closed = 1;
nodes = (
(286,271,l),
(233,0,l),
(1253,0,l),
(1306,271,l)
);
},
{
closed = 1;
nodes = (
(429,856,l),
(379,599,l),
(1244,599,l),
(1294,856,l)
);
},
{
closed = 1;
nodes = (
(1537,1460,l),
(517,1460,l),
(464,1189,l),
(1484,1189,l)
);
},
{
closed = 1;
nodes = (
(1108,1918,l),
(1493,1918,l),
(1144,1619,l),
(833,1619,l)
);
}
);
width = 1555;
},
{
layerId = "FCEBCCDD-9F1F-4D06-95BC-5606E8CBB848";
shapes = (
{
closed = 1;
nodes = (
(503,1460,l),
(377,1460,l),
(93,0,l),
(219,0,l)
);
},
{
closed = 1;
nodes = (
(199,110,l),
(178,0,l),
(971,0,l),
(992,110,l)
);
},
{
closed = 1;
nodes = (
(333,799,l),
(313,694,l),
(983,694,l),
(1003,799,l)
);
},
{
closed = 1;
nodes = (
(1255,1460,l),
(462,1460,l),
(440,1350,l),
(1233,1350,l)
);
},
{
closed = 1;
nodes = (
(1047,1883,l),
(1187,1883,l),
(889,1650,l),
(780,1650,l)
);
}
);
width = 1240;
},
{
layerId = "58E9293A-5120-4E1E-8451-D6ECB5204CAC";
shapes = (
{
closed = 1;
nodes = (
(528,1460,l),
(402,1460,l),
(118,0,l),
(244,0,l)
);
},
{
closed = 1;
nodes = (
(224,110,l),
(203,0,l),
(1263,0,l),
(1284,110,l)
);
},
{
closed = 1;
nodes = (
(358,799,l),
(338,694,l),
(1275,694,l),
(1295,799,l)
);
},
{
closed = 1;
nodes = (
(1547,1460,l),
(487,1460,l),
(465,1350,l),
(1525,1350,l)
);
},
{
closed = 1;
nodes = (
(1254,1884,l),
(1407,1884,l),
(1056,1652,l),
(937,1652,l)
);
}
);
width = 1555;
}
);
unicode = 201;
},
{
glyphname = Ebreve;
lastChange = "2024-04-27 00:07:48 +0000";
layers = (
{
layerId = "DA5CBF49-7F7A-4926-B587-2652260B0ABD";
shapes = (
{
closed = 1;
nodes = (
(461,1460,l),
(132,1460,l),
(132,0,l),
(461,0,l)
);
},
{
closed = 1;
nodes = (
(293,271,l),
(293,0,l),
(1090,0,l),
(1090,271,l)
);
},
{
closed = 1;
nodes = (
(323,856,l),
(323,599,l),
(965,599,l),
(965,856,l)
);
},
{
closed = 1;
nodes = (
(1090,1460,l),
(293,1460,l),
(293,1189,l),
(1090,1189,l)
);
},
{
closed = 1;
nodes = (
(252,1696,o),
(374,1600,o),
(620,1600,cs),
(866,1600,o),
(988,1696,o),
(980,1878,c),
(782,1878,l),
(782,1802,o),
(734,1755,o),
(620,1755,cs),
(506,1755,o),
(458,1802,o),
(458,1878,c),
(260,1878,l)
);
}
);
width = 1240;
},
{
layerId = "DC524FA5-69B0-4541-AEAA-64C37A6100D8";
shapes = (
{
closed = 1;
nodes = (
(341,1460,l),
(215,1460,l),
(215,0,l),
(341,0,l)
);
},
{
closed = 1;
nodes = (
(300,110,l),
(300,0,l),
(1360,0,l),
(1360,110,l)
);
},
{
closed = 1;
nodes = (
(300,799,l),
(300,694,l),
(1237,694,l),
(1237,799,l)
);
},
{
closed = 1;
nodes = (
(1360,1460,l),
(300,1460,l),
(300,1350,l),
(1360,1350,l)
);
},
{
closed = 1;
nodes = (
(454,1722,o),
(565,1643,o),
(782,1643,cs),
(999,1643,o),
(1111,1722,o),
(1109,1883,c),
(1013,1883,l),
(1013,1790,o),
(945,1731,o),
(782,1731,cs),
(618,1731,o),
(552,1790,o),
(552,1883,c),
(456,1883,l)
);
}
);
width = 1555;
},
{
layerId = "0C0B9A44-4D66-4C06-AB4A-20867B2FE8E0";
shapes = (
{
closed = 1;
nodes = (
(503,1460,l),
(174,1460,l),
(174,0,l),
(503,0,l)
);
},
{
closed = 1;
nodes = (
(338,271,l),
(338,0,l),
(1358,0,l),
(1358,271,l)
);
},
{
closed = 1;
nodes = (
(368,856,l),
(368,599,l),
(1233,599,l),
(1233,856,l)
);
},
{
closed = 1;
nodes = (
(1358,1460,l),
(338,1460,l),
(338,1189,l),
(1358,1189,l)
);
},
{
closed = 1;
nodes = (
(356,1682,o),
(502,1598,o),
(775,1598,cs),
(1048,1598,o),
(1193,1682,o),
(1190,1908,c),
(966,1908,l),
(966,1809,o),
(919,1752,o),
(775,1752,cs),
(632,1752,o),
(583,1809,o),
(583,1908,c),
(359,1908,l)
);
}
);
width = 1555;
},
{
layerId = "2B3680FA-30B6-467C-955F-2315D5D255F4";
shapes = (
{
closed = 1;
nodes = (
(316,1460,l),
(190,1460,l),
(190,0,l),
(316,0,l)
);
},
{
closed = 1;
nodes = (
(275,110,l),
(275,0,l),
(1068,0,l),
(1068,110,l)
);
},
{
closed = 1;
nodes = (
(275,799,l),
(275,694,l),
(945,694,l),
(945,799,l)
);
},
{
closed = 1;
nodes = (
(1068,1460,l),
(275,1460,l),
(275,1350,l),
(1068,1350,l)
);
},
{
closed = 1;
nodes = (
(344,1743,o),
(435,1643,o),
(620,1643,cs),
(805,1643,o),
(896,1743,o),
(887,1883,c),
(797,1883,l),
(797,1796,o),
(748,1722,o),
(620,1722,cs),
(492,1722,o),
(443,1796,o),
(443,1883,c),
(353,1883,l)
);
}
);
width = 1240;
},
{
layerId = "8B99F5F8-0F2E-47D1-851D-9A55DF2AB712";
shapes = (
{
closed = 1;
nodes = (
(640,1460,l),
(311,1460,l),
(27,0,l),
(356,0,l)
);
},
{
closed = 1;
nodes = (
(241,271,l),
(188,0,l),
(985,0,l),
(1038,271,l)
);
},
{
closed = 1;
nodes = (
(384,856,l),
(334,599,l),
(976,599,l),
(1026,856,l)
);
},
{
closed = 1;
nodes = (
(1269,1460,l),
(472,1460,l),
(419,1189,l),
(1216,1189,l)
);
},
{
closed = 1;
nodes = (
(477,1696,o),
(580,1600,o),
(826,1600,cs),
(1072,1600,o),
(1213,1696,o),
(1240,1878,c),
(1042,1878,l),
(1027,1802,o),
(970,1755,o),
(856,1755,cs),
(742,1755,o),
(703,1802,o),
(718,1878,c),
(520,1878,l)
);
}
);
width = 1240;
},
{
layerId = "8D453742-7B49-41B2-AE2A-3EBD26173AE1";
shapes = (
{
closed = 1;
nodes = (
(682,1460,l),
(353,1460,l),
(69,0,l),
(398,0,l)
);
},
{
closed = 1;
nodes = (
(286,271,l),
(233,0,l),
(1253,0,l),
(1306,271,l)
);
},
{
closed = 1;
nodes = (
(429,856,l),
(379,599,l),
(1244,599,l),
(1294,856,l)
);
},
{
closed = 1;
nodes = (
(1537,1460,l),
(517,1460,l),
(464,1189,l),
(1484,1189,l)
);
},
{
closed = 1;
nodes = (
(578,1682,o),
(708,1598,o),
(981,1598,cs),
(1254,1598,o),
(1415,1682,o),
(1456,1908,c),
(1232,1908,l),
(1213,1809,o),
(1155,1752,o),
(1011,1752,cs),
(868,1752,o),
(830,1809,o),
(849,1908,c),
(625,1908,l)
);
}
);
width = 1555;
},
{
layerId = "FCEBCCDD-9F1F-4D06-95BC-5606E8CBB848";
shapes = (
{
closed = 1;
nodes = (
(503,1460,l),
(377,1460,l),
(93,0,l),
(219,0,l)
);
},
{
closed = 1;
nodes = (
(199,110,l),
(178,0,l),
(971,0,l),
(992,110,l)
);
},
{
closed = 1;
nodes = (
(333,799,l),
(313,694,l),
(983,694,l),
(1003,799,l)
);
},
{
closed = 1;
nodes = (
(1255,1460,l),
(462,1460,l),
(440,1350,l),
(1233,1350,l)
);
},
{
closed = 1;
nodes = (
(586,1743,o),
(657,1643,o),
(842,1643,cs),
(1027,1643,o),
(1138,1743,o),
(1156,1883,c),
(1066,1883,l),
(1049,1796,o),
(986,1722,o),
(858,1722,cs),
(730,1722,o),
(695,1796,o),
(712,1883,c),
(622,1883,l)
);
}
);
width = 1240;
},
{
layerId = "58E9293A-5120-4E1E-8451-D6ECB5204CAC";
shapes = (
{
closed = 1;
nodes = (
(528,1460,l),
(402,1460,l),
(118,0,l),
(244,0,l)
);
},
{
closed = 1;
nodes = (
(224,110,l),
(203,0,l),
(1263,0,l),
(1284,110,l)
);
},
{
closed = 1;
nodes = (
(358,799,l),
(338,694,l),
(1275,694,l),
(1295,799,l)
);
},
{
closed = 1;
nodes = (
(1547,1460,l),
(487,1460,l),
(465,1350,l),
(1525,1350,l)
);
},
{
closed = 1;
nodes = (
(692,1722,o),
(787,1643,o),
(1004,1643,cs),
(1221,1643,o),
(1349,1722,o),
(1378,1883,c),
(1282,1883,l),
(1264,1790,o),
(1184,1731,o),
(1021,1731,cs),
(857,1731,o),
(803,1790,o),
(821,1883,c),
(725,1883,l)
);
}
);
width = 1555;
}
);
unicode = 276;
},
{
glyphname = Ecaron;
lastChange = "2024-04-27 00:07:48 +0000";
layers = (
{
layerId = "DA5CBF49-7F7A-4926-B587-2652260B0ABD";
shapes = (
{
closed = 1;
nodes = (
(461,1460,l),
(132,1460,l),
(132,0,l),
(461,0,l)
);
},
{
closed = 1;
nodes = (
(293,271,l),
(293,0,l),
(1090,0,l),
(1090,271,l)
);
},
{
closed = 1;
nodes = (
(323,856,l),
(323,599,l),
(965,599,l),
(965,856,l)
);
},
{
closed = 1;
nodes = (
(1090,1460,l),
(293,1460,l),
(293,1189,l),
(1090,1189,l)
);
},
{
closed = 1;
nodes = (
(483,1878,l),
(644,1674,l),
(596,1674,l),
(757,1878,l),
(1041,1878,l),
(813,1620,l),
(427,1620,l),
(199,1878,l)
);
}
);
width = 1240;
},
{
layerId = "DC524FA5-69B0-4541-AEAA-64C37A6100D8";
shapes = (
{
closed = 1;
nodes = (
(341,1460,l),
(215,1460,l),
(215,0,l),
(341,0,l)
);
},
{
closed = 1;
nodes = (
(300,110,l),
(300,0,l),
(1360,0,l),
(1360,110,l)
);
},
{
closed = 1;
nodes = (
(300,799,l),
(300,694,l),
(1237,694,l),
(1237,799,l)
);
},
{
closed = 1;
nodes = (
(1360,1460,l),
(300,1460,l),
(300,1350,l),
(1360,1350,l)
);
},
{
closed = 1;
nodes = (
(538,1883,l),
(813,1674,l),
(751,1674,l),
(1027,1883,l),
(1174,1883,l),
(860,1650,l),
(704,1650,l),
(391,1883,l)
);
}
);
width = 1555;
},
{
layerId = "0C0B9A44-4D66-4C06-AB4A-20867B2FE8E0";
shapes = (
{
closed = 1;
nodes = (
(503,1460,l),
(174,1460,l),
(174,0,l),
(503,0,l)
);
},
{
closed = 1;
nodes = (
(338,271,l),
(338,0,l),
(1358,0,l),
(1358,271,l)
);
},
{
closed = 1;
nodes = (
(368,856,l),
(368,599,l),
(1233,599,l),
(1233,856,l)
);
},
{
closed = 1;
nodes = (
(1358,1460,l),
(338,1460,l),
(338,1189,l),
(1358,1189,l)
);
},
{
closed = 1;
nodes = (
(608,1908,l),
(808,1662,l),
(740,1662,l),
(941,1908,l),
(1255,1908,l),
(967,1620,l),
(581,1620,l),
(294,1908,l)
);
}
);
width = 1555;
},
{
layerId = "2B3680FA-30B6-467C-955F-2315D5D255F4";
shapes = (
{
closed = 1;
nodes = (
(316,1460,l),
(190,1460,l),
(190,0,l),
(316,0,l)
);
},
{
closed = 1;
nodes = (
(275,110,l),
(275,0,l),
(1068,0,l),
(1068,110,l)
);
},
{
closed = 1;
nodes = (
(275,799,l),
(275,694,l),
(945,694,l),
(945,799,l)
);
},
{
closed = 1;
nodes = (
(1068,1460,l),
(275,1460,l),
(275,1350,l),
(1068,1350,l)
);
},
{
closed = 1;
nodes = (
(429,1883,l),
(648,1679,l),
(592,1679,l),
(811,1883,l),
(942,1883,l),
(678,1650,l),
(562,1650,l),
(298,1883,l)
);
}
);
width = 1240;
},
{
layerId = "8B99F5F8-0F2E-47D1-851D-9A55DF2AB712";
shapes = (
{
closed = 1;
nodes = (
(640,1460,l),
(311,1460,l),
(27,0,l),
(356,0,l)
);
},
{
closed = 1;
nodes = (
(241,271,l),
(188,0,l),
(985,0,l),
(1038,271,l)
);
},
{
closed = 1;
nodes = (
(384,856,l),
(334,599,l),
(976,599,l),
(1026,856,l)
);
},
{
closed = 1;
nodes = (
(1269,1460,l),
(472,1460,l),
(419,1189,l),
(1216,1189,l)
);
},
{
closed = 1;
nodes = (
(743,1878,l),
(864,1674,l),
(816,1674,l),
(1017,1878,l),
(1301,1878,l),
(1023,1620,l),
(637,1620,l),
(459,1878,l)
);
}
);
width = 1240;
},
{
layerId = "8D453742-7B49-41B2-AE2A-3EBD26173AE1";
shapes = (
{
closed = 1;
nodes = (
(682,1460,l),
(353,1460,l),
(69,0,l),
(398,0,l)
);
},
{
closed = 1;
nodes = (
(286,271,l),
(233,0,l),
(1253,0,l),
(1306,271,l)
);
},
{
closed = 1;
nodes = (
(429,856,l),
(379,599,l),
(1244,599,l),
(1294,856,l)
);
},
{
closed = 1;
nodes = (
(1537,1460,l),
(517,1460,l),
(464,1189,l),
(1484,1189,l)
);
},
{
closed = 1;
nodes = (
(874,1908,l),
(1026,1662,l),
(958,1662,l),
(1207,1908,l),
(1521,1908,l),
(1177,1620,l),
(791,1620,l),
(560,1908,l)
);
}
);
width = 1555;
},
{
layerId = "FCEBCCDD-9F1F-4D06-95BC-5606E8CBB848";
shapes = (
{
closed = 1;
nodes = (
(503,1460,l),
(377,1460,l),
(93,0,l),
(219,0,l)
);
},
{
closed = 1;
nodes = (
(199,110,l),
(178,0,l),
(971,0,l),
(992,110,l)
);
},
{
closed = 1;
nodes = (
(333,799,l),
(313,694,l),
(983,694,l),
(1003,799,l)
);
},
{
closed = 1;
nodes = (
(1255,1460,l),
(462,1460,l),
(440,1350,l),
(1233,1350,l)
);
},
{
closed = 1;
nodes = (
(698,1883,l),
(877,1679,l),
(821,1679,l),
(1080,1883,l),
(1211,1883,l),
(902,1650,l),
(786,1650,l),
(567,1883,l)
);
}
);
width = 1240;
},
{
layerId = "58E9293A-5120-4E1E-8451-D6ECB5204CAC";
shapes = (
{
closed = 1;
nodes = (
(528,1460,l),
(402,1460,l),
(118,0,l),
(244,0,l)
);
},
{
closed = 1;
nodes = (
(224,110,l),
(203,0,l),
(1263,0,l),
(1284,110,l)
);
},
{
closed = 1;
nodes = (
(358,799,l),
(338,694,l),
(1275,694,l),
(1295,799,l)
);
},
{
closed = 1;
nodes = (
(1547,1460,l),
(487,1460,l),
(465,1350,l),
(1525,1350,l)
);
},
{
closed = 1;
nodes = (
(807,1883,l),
(1041,1674,l),
(979,1674,l),
(1296,1883,l),
(1443,1883,l),
(1084,1650,l),
(928,1650,l),
(660,1883,l)
);
}
);
width = 1555;
}
);
unicode = 282;
},
{
glyphname = Ecircumflex;
lastChange = "2024-04-27 00:07:48 +0000";
layers = (
{
layerId = "DA5CBF49-7F7A-4926-B587-2652260B0ABD";
shapes = (
{
closed = 1;
nodes = (
(461,1460,l),
(132,1460,l),
(132,0,l),
(461,0,l)
);
},
{
closed = 1;
nodes = (
(293,271,l),
(293,0,l),
(1090,0,l),
(1090,271,l)
);
},
{
closed = 1;
nodes = (
(323,856,l),
(323,599,l),
(965,599,l),
(965,856,l)
);
},
{
closed = 1;
nodes = (
(1090,1460,l),
(293,1460,l),
(293,1189,l),
(1090,1189,l)
);
},
{
closed = 1;
nodes = (
(483,1620,l),
(644,1824,l),
(596,1824,l),
(757,1620,l),
(1041,1620,l),
(813,1878,l),
(427,1878,l),
(199,1620,l)
);
}
);
width = 1240;
},
{
layerId = "DC524FA5-69B0-4541-AEAA-64C37A6100D8";
shapes = (
{
closed = 1;
nodes = (
(341,1460,l),
(215,1460,l),
(215,0,l),
(341,0,l)
);
},
{
closed = 1;
nodes = (
(300,110,l),
(300,0,l),
(1360,0,l),
(1360,110,l)
);
},
{
closed = 1;
nodes = (
(300,799,l),
(300,694,l),
(1237,694,l),
(1237,799,l)
);
},
{
closed = 1;
nodes = (
(1360,1460,l),
(300,1460,l),
(300,1350,l),
(1360,1350,l)
);
},
{
closed = 1;
nodes = (
(538,1650,l),
(813,1859,l),
(751,1859,l),
(1027,1650,l),
(1174,1650,l),
(860,1883,l),
(704,1883,l),
(391,1650,l)
);
}
);
width = 1555;
},
{
layerId = "0C0B9A44-4D66-4C06-AB4A-20867B2FE8E0";
shapes = (
{
closed = 1;
nodes = (
(503,1460,l),
(174,1460,l),
(174,0,l),
(503,0,l)
);
},
{
closed = 1;
nodes = (
(338,271,l),
(338,0,l),
(1358,0,l),
(1358,271,l)
);
},
{
closed = 1;
nodes = (
(368,856,l),
(368,599,l),
(1233,599,l),
(1233,856,l)
);
},
{
closed = 1;
nodes = (
(1358,1460,l),
(338,1460,l),
(338,1189,l),
(1358,1189,l)
);
},
{
closed = 1;
nodes = (
(608,1620,l),
(808,1866,l),
(740,1866,l),
(941,1620,l),
(1255,1620,l),
(967,1908,l),
(581,1908,l),
(294,1620,l)
);
}
);
width = 1555;
},
{
layerId = "2B3680FA-30B6-467C-955F-2315D5D255F4";
shapes = (
{
closed = 1;
nodes = (
(316,1460,l),
(190,1460,l),
(190,0,l),
(316,0,l)
);
},
{
closed = 1;
nodes = (
(275,110,l),
(275,0,l),
(1068,0,l),
(1068,110,l)
);
},
{
closed = 1;
nodes = (
(275,799,l),
(275,694,l),
(945,694,l),
(945,799,l)
);
},
{
closed = 1;
nodes = (
(1068,1460,l),
(275,1460,l),
(275,1350,l),
(1068,1350,l)
);
},
{
closed = 1;
nodes = (
(429,1650,l),
(648,1854,l),
(592,1854,l),
(811,1650,l),
(942,1650,l),
(678,1883,l),
(562,1883,l),
(298,1650,l)
);
}
);
width = 1240;
},
{
layerId = "8B99F5F8-0F2E-47D1-851D-9A55DF2AB712";
shapes = (
{
closed = 1;
nodes = (
(640,1460,l),
(311,1460,l),
(27,0,l),
(356,0,l)
);
},
{
closed = 1;
nodes = (
(241,271,l),
(188,0,l),
(985,0,l),
(1038,271,l)
);
},
{
closed = 1;
nodes = (
(384,856,l),
(334,599,l),
(976,599,l),
(1026,856,l)
);
},
{
closed = 1;
nodes = (
(1269,1460,l),
(472,1460,l),
(419,1189,l),
(1216,1189,l)
);
},
{
closed = 1;
nodes = (
(693,1620,l),
(894,1824,l),
(846,1824,l),
(967,1620,l),
(1251,1620,l),
(1073,1878,l),
(687,1878,l),
(409,1620,l)
);
}
);
width = 1240;
},
{
layerId = "8D453742-7B49-41B2-AE2A-3EBD26173AE1";
shapes = (
{
closed = 1;
nodes = (
(682,1460,l),
(353,1460,l),
(69,0,l),
(398,0,l)
);
},
{
closed = 1;
nodes = (
(286,271,l),
(233,0,l),
(1253,0,l),
(1306,271,l)
);
},
{
closed = 1;
nodes = (
(429,856,l),
(379,599,l),
(1244,599,l),
(1294,856,l)
);
},
{
closed = 1;
nodes = (
(1537,1460,l),
(517,1460,l),
(464,1189,l),
(1484,1189,l)
);
},
{
closed = 1;
nodes = (
(818,1620,l),
(1066,1866,l),
(998,1866,l),
(1151,1620,l),
(1465,1620,l),
(1233,1908,l),
(847,1908,l),
(504,1620,l)
);
}
);
width = 1555;
},
{
layerId = "FCEBCCDD-9F1F-4D06-95BC-5606E8CBB848";
shapes = (
{
closed = 1;
nodes = (
(503,1460,l),
(377,1460,l),
(93,0,l),
(219,0,l)
);
},
{
closed = 1;
nodes = (
(199,110,l),
(178,0,l),
(971,0,l),
(992,110,l)
);
},
{
closed = 1;
nodes = (
(333,799,l),
(313,694,l),
(983,694,l),
(1003,799,l)
);
},
{
closed = 1;
nodes = (
(1255,1460,l),
(462,1460,l),
(440,1350,l),
(1233,1350,l)
);
},
{
closed = 1;
nodes = (
(653,1650,l),
(911,1854,l),
(855,1854,l),
(1035,1650,l),
(1166,1650,l),
(947,1883,l),
(831,1883,l),
(522,1650,l)
);
}
);
width = 1240;
},
{
layerId = "58E9293A-5120-4E1E-8451-D6ECB5204CAC";
shapes = (
{
closed = 1;
nodes = (
(528,1460,l),
(402,1460,l),
(118,0,l),
(244,0,l)
);
},
{
closed = 1;
nodes = (
(224,110,l),
(203,0,l),
(1263,0,l),
(1284,110,l)
);
},
{
closed = 1;
nodes = (
(358,799,l),
(338,694,l),
(1275,694,l),
(1295,799,l)
);
},
{
closed = 1;
nodes = (
(1547,1460,l),
(487,1460,l),
(465,1350,l),
(1525,1350,l)
);
},
{
closed = 1;
nodes = (
(762,1650,l),
(1077,1859,l),
(1015,1859,l),
(1251,1650,l),
(1398,1650,l),
(1129,1883,l),
(973,1883,l),
(615,1650,l)
);
}
);
width = 1555;
}
);
unicode = 202;
},
{
glyphname = Edieresis;
lastChange = "2024-04-27 00:07:48 +0000";
layers = (
{
layerId = "DA5CBF49-7F7A-4926-B587-2652260B0ABD";
shapes = (
{
closed = 1;
nodes = (
(461,1460,l),
(132,1460,l),
(132,0,l),
(461,0,l)
);
},
{
closed = 1;
nodes = (
(293,271,l),
(293,0,l),
(1090,0,l),
(1090,271,l)
);
},
{
closed = 1;
nodes = (
(323,856,l),
(323,599,l),
(965,599,l),
(965,856,l)
);
},
{
closed = 1;
nodes = (
(1090,1460,l),
(293,1460,l),
(293,1189,l),
(1090,1189,l)
);
},
{
closed = 1;
nodes = (
(436.112,1618.8,o),
(501.184,1678.8,o),
(501.184,1771.6,cs),
(501.184,1864.4,o),
(436.112,1922,o),
(339.68,1922,cs),
(243.248,1922,o),
(178.176,1864.4,o),
(178.176,1771.6,cs),
(178.176,1678.8,o),
(243.248,1618.8,o),
(339.68,1618.8,cs)
);
},
{
closed = 1;
nodes = (
(997.112,1618.8,o),
(1062.184,1678.8,o),
(1062.184,1771.6,cs),
(1062.184,1864.4,o),
(997.112,1922,o),
(900.68,1922,cs),
(804.248,1922,o),
(739.176,1864.4,o),
(739.176,1771.6,cs),
(739.176,1678.8,o),
(804.248,1618.8,o),
(900.68,1618.8,cs)
);
}
);
width = 1240;
},
{
layerId = "DC524FA5-69B0-4541-AEAA-64C37A6100D8";
shapes = (
{
closed = 1;
nodes = (
(341,1460,l),
(215,1460,l),
(215,0,l),
(341,0,l)
);
},
{
closed = 1;
nodes = (
(300,110,l),
(300,0,l),
(1360,0,l),
(1360,110,l)
);
},
{
closed = 1;
nodes = (
(300,799,l),
(300,694,l),
(1237,694,l),
(1237,799,l)
);
},
{
closed = 1;
nodes = (
(1360,1460,l),
(300,1460,l),
(300,1350,l),
(1360,1350,l)
);
},
{
closed = 1;
nodes = (
(539,1663,o),
(583,1699,o),
(583,1761,cs),
(583,1823,o),
(539,1859,o),
(477,1859,cs),
(415,1859,o),
(371,1823,o),
(371,1761,cs),
(371,1699,o),
(415,1663,o),
(477,1663,cs)
);
},
{
closed = 1;
nodes = (
(1151,1663,o),
(1195,1699,o),
(1195,1761,cs),
(1195,1823,o),
(1151,1859,o),
(1089,1859,cs),
(1027,1859,o),
(983,1823,o),
(983,1761,cs),
(983,1699,o),
(1027,1663,o),
(1089,1663,cs)
);
}
);
width = 1555;
},
{
layerId = "0C0B9A44-4D66-4C06-AB4A-20867B2FE8E0";
shapes = (
{
closed = 1;
nodes = (
(503,1460,l),
(174,1460,l),
(174,0,l),
(503,0,l)
);
},
{
closed = 1;
nodes = (
(338,271,l),
(338,0,l),
(1358,0,l),
(1358,271,l)
);
},
{
closed = 1;
nodes = (
(368,856,l),
(368,599,l),
(1233,599,l),
(1233,856,l)
);
},
{
closed = 1;
nodes = (
(1358,1460,l),
(338,1460,l),
(338,1189,l),
(1358,1189,l)
);
},
{
closed = 1;
nodes = (
(539,1645,o),
(604,1705,o),
(604,1798,cs),
(604,1890,o),
(539,1948,o),
(443,1948,cs),
(346,1948,o),
(281,1890,o),
(281,1798,cs),
(281,1705,o),
(346,1645,o),
(443,1645,cs)
);
},
{
closed = 1;
nodes = (
(1212,1645,o),
(1277,1705,o),
(1277,1798,cs),
(1277,1890,o),
(1212,1948,o),
(1116,1948,cs),
(1019,1948,o),
(954,1890,o),
(954,1798,cs),
(954,1705,o),
(1019,1645,o),
(1116,1645,cs)
);
}
);
width = 1555;
},
{
layerId = "2B3680FA-30B6-467C-955F-2315D5D255F4";
shapes = (
{
closed = 1;
nodes = (
(316,1460,l),
(190,1460,l),
(190,0,l),
(316,0,l)
);
},
{
closed = 1;
nodes = (
(275,110,l),
(275,0,l),
(1068,0,l),
(1068,110,l)
);
},
{
closed = 1;
nodes = (
(275,799,l),
(275,694,l),
(945,694,l),
(945,799,l)
);
},
{
closed = 1;
nodes = (
(1068,1460,l),
(275,1460,l),
(275,1350,l),
(1068,1350,l)
);
},
{
closed = 1;
nodes = (
(434.36,1663,o),
(477.48,1699,o),
(477.48,1761,cs),
(477.48,1823,o),
(434.36,1859,o),
(373.6,1859,cs),
(312.84,1859,o),
(269.72,1823,o),
(269.72,1761,cs),
(269.72,1699,o),
(312.84,1663,o),
(373.6,1663,cs)
);
},
{
closed = 1;
nodes = (
(927.36,1663,o),
(970.48,1699,o),
(970.48,1761,cs),
(970.48,1823,o),
(927.36,1859,o),
(866.6,1859,cs),
(805.84,1859,o),
(762.72,1823,o),
(762.72,1761,cs),
(762.72,1699,o),
(805.84,1663,o),
(866.6,1663,cs)
);
}
);
width = 1240;
},
{
layerId = "8B99F5F8-0F2E-47D1-851D-9A55DF2AB712";
shapes = (
{
closed = 1;
nodes = (
(640,1460,l),
(311,1460,l),
(27,0,l),
(356,0,l)
);
},
{
closed = 1;
nodes = (
(241,271,l),
(188,0,l),
(985,0,l),
(1038,271,l)
);
},
{
closed = 1;
nodes = (
(384,856,l),
(334,599,l),
(976,599,l),
(1026,856,l)
);
},
{
closed = 1;
nodes = (
(1269,1460,l),
(472,1460,l),
(419,1189,l),
(1216,1189,l)
);
},
{
closed = 1;
nodes = (
(646,1619,o),
(723,1679,o),
(741,1772,cs),
(759,1864,o),
(705,1922,o),
(608,1922,cs),
(512,1922,o),
(436,1864,o),
(418,1772,cs),
(400,1679,o),
(453,1619,o),
(549,1619,cs)
);
},
{
closed = 1;
nodes = (
(1207,1619,o),
(1284,1679,o),
(1302,1772,cs),
(1320,1864,o),
(1266,1922,o),
(1169,1922,cs),
(1073,1922,o),
(997,1864,o),
(979,1772,cs),
(961,1679,o),
(1014,1619,o),
(1110,1619,cs)
);
}
);
width = 1240;
},
{
layerId = "8D453742-7B49-41B2-AE2A-3EBD26173AE1";
shapes = (
{
closed = 1;
nodes = (
(682,1460,l),
(353,1460,l),
(69,0,l),
(398,0,l)
);
},
{
closed = 1;
nodes = (
(286,271,l),
(233,0,l),
(1253,0,l),
(1306,271,l)
);
},
{
closed = 1;
nodes = (
(429,856,l),
(379,599,l),
(1244,599,l),
(1294,856,l)
);
},
{
closed = 1;
nodes = (
(1537,1460,l),
(517,1460,l),
(464,1189,l),
(1484,1189,l)
);
},
{
closed = 1;
nodes = (
(754,1645,o),
(831,1705,o),
(849,1798,cs),
(867,1890,o),
(813,1948,o),
(717,1948,cs),
(620,1948,o),
(544,1890,o),
(526,1798,cs),
(508,1705,o),
(561,1645,o),
(658,1645,cs)
);
},
{
closed = 1;
nodes = (
(1427,1645,o),
(1504,1705,o),
(1522,1798,cs),
(1540,1890,o),
(1486,1948,o),
(1390,1948,cs),
(1293,1948,o),
(1217,1890,o),
(1199,1798,cs),
(1181,1705,o),
(1234,1645,o),
(1331,1645,cs)
);
}
);
width = 1555;
},
{
layerId = "FCEBCCDD-9F1F-4D06-95BC-5606E8CBB848";
shapes = (
{
closed = 1;
nodes = (
(503,1460,l),
(377,1460,l),
(93,0,l),
(219,0,l)
);
},
{
closed = 1;
nodes = (
(199,110,l),
(178,0,l),
(971,0,l),
(992,110,l)
);
},
{
closed = 1;
nodes = (
(333,799,l),
(313,694,l),
(983,694,l),
(1003,799,l)
);
},
{
closed = 1;
nodes = (
(1255,1460,l),
(462,1460,l),
(440,1350,l),
(1233,1350,l)
);
},
{
closed = 1;
nodes = (
(661,1663,o),
(711,1699,o),
(723,1761,cs),
(735,1823,o),
(699,1859,o),
(638,1859,cs),
(577,1859,o),
(527,1823,o),
(515,1761,cs),
(503,1699,o),
(539,1663,o),
(600,1663,cs)
);
},
{
closed = 1;
nodes = (
(1154,1663,o),
(1204,1699,o),
(1216,1761,cs),
(1228,1823,o),
(1192,1859,o),
(1131,1859,cs),
(1070,1859,o),
(1020,1823,o),
(1008,1761,cs),
(996,1699,o),
(1032,1663,o),
(1093,1663,cs)
);
}
);
width = 1240;
},
{
layerId = "58E9293A-5120-4E1E-8451-D6ECB5204CAC";
shapes = (
{
closed = 1;
nodes = (
(528,1460,l),
(402,1460,l),
(118,0,l),
(244,0,l)
);
},
{
closed = 1;
nodes = (
(224,110,l),
(203,0,l),
(1263,0,l),
(1284,110,l)
);
},
{
closed = 1;
nodes = (
(358,799,l),
(338,694,l),
(1275,694,l),
(1295,799,l)
);
},
{
closed = 1;
nodes = (
(1547,1460,l),
(487,1460,l),
(465,1350,l),
(1525,1350,l)
);
},
{
closed = 1;
nodes = (
(765,1663,o),
(816,1699,o),
(828,1761,cs),
(840,1823,o),
(803,1859,o),
(741,1859,cs),
(679,1859,o),
(628,1823,o),
(616,1761,cs),
(604,1699,o),
(641,1663,o),
(703,1663,cs)
);
},
{
closed = 1;
nodes = (
(1377,1663,o),
(1428,1699,o),
(1440,1761,cs),
(1452,1823,o),
(1415,1859,o),
(1353,1859,cs),
(1291,1859,o),
(1240,1823,o),
(1228,1761,cs),
(1216,1699,o),
(1253,1663,o),
(1315,1663,cs)
);
}
);
width = 1555;
}
);
unicode = 203;
},
{
glyphname = Edotaccent;
lastChange = "2024-04-27 00:07:48 +0000";
layers = (
{
layerId = "DA5CBF49-7F7A-4926-B587-2652260B0ABD";
shapes = (
{
closed = 1;
nodes = (
(461,1460,l),
(132,1460,l),
(132,0,l),
(461,0,l)
);
},
{
closed = 1;
nodes = (
(293,271,l),
(293,0,l),
(1090,0,l),
(1090,271,l)
);
},
{
closed = 1;
nodes = (
(323,856,l),
(323,599,l),
(965,599,l),
(965,856,l)
);
},
{
closed = 1;
nodes = (
(1090,1460,l),
(293,1460,l),
(293,1189,l),
(1090,1189,l)
);
},
{
closed = 1;
nodes = (
(714.4,1618.8,o),
(780.8,1678.8,o),
(780.8,1771.6,cs),
(780.8,1864.4,o),
(714.4,1922,o),
(616,1922,cs),
(517.6,1922,o),
(451.2,1864.4,o),
(451.2,1771.6,cs),
(451.2,1678.8,o),
(517.6,1618.8,o),
(616,1618.8,cs)
);
}
);
width = 1240;
},
{
layerId = "DC524FA5-69B0-4541-AEAA-64C37A6100D8";
shapes = (
{
closed = 1;
nodes = (
(341,1460,l),
(215,1460,l),
(215,0,l),
(341,0,l)
);
},
{
closed = 1;
nodes = (
(300,110,l),
(300,0,l),
(1360,0,l),
(1360,110,l)
);
},
{
closed = 1;
nodes = (
(300,799,l),
(300,694,l),
(1237,694,l),
(1237,799,l)
);
},
{
closed = 1;
nodes = (
(1360,1460,l),
(300,1460,l),
(300,1350,l),
(1360,1350,l)
);
},
{
closed = 1;
nodes = (
(845,1663,o),
(889,1699,o),
(889,1761,cs),
(889,1823,o),
(845,1859,o),
(783,1859,cs),
(721,1859,o),
(677,1823,o),
(677,1761,cs),
(677,1699,o),
(721,1663,o),
(783,1663,cs)
);
}
);
width = 1555;
},
{
layerId = "0C0B9A44-4D66-4C06-AB4A-20867B2FE8E0";
shapes = (
{
closed = 1;
nodes = (
(503,1460,l),
(174,1460,l),
(174,0,l),
(503,0,l)
);
},
{
closed = 1;
nodes = (
(338,271,l),
(338,0,l),
(1358,0,l),
(1358,271,l)
);
},
{
closed = 1;
nodes = (
(368,856,l),
(368,599,l),
(1233,599,l),
(1233,856,l)
);
},
{
closed = 1;
nodes = (
(1358,1460,l),
(338,1460,l),
(338,1189,l),
(1358,1189,l)
);
},
{
closed = 1;
nodes = (
(873,1645,o),
(939,1705,o),
(939,1798,cs),
(939,1890,o),
(873,1948,o),
(774,1948,cs),
(676,1948,o),
(610,1890,o),
(610,1798,cs),
(610,1705,o),
(676,1645,o),
(774,1645,cs)
);
}
);
width = 1555;
},
{
layerId = "2B3680FA-30B6-467C-955F-2315D5D255F4";
shapes = (
{
closed = 1;
nodes = (
(316,1460,l),
(190,1460,l),
(190,0,l),
(316,0,l)
);
},
{
closed = 1;
nodes = (
(275,110,l),
(275,0,l),
(1068,0,l),
(1068,110,l)
);
},
{
closed = 1;
nodes = (
(275,799,l),
(275,694,l),
(945,694,l),
(945,799,l)
);
},
{
closed = 1;
nodes = (
(1068,1460,l),
(275,1460,l),
(275,1350,l),
(1068,1350,l)
);
},
{
closed = 1;
nodes = (
(682,1663,o),
(726,1699,o),
(726,1761,cs),
(726,1823,o),
(682,1859,o),
(620,1859,cs),
(558,1859,o),
(514,1823,o),
(514,1761,cs),
(514,1699,o),
(558,1663,o),
(620,1663,cs)
);
}
);
width = 1240;
},
{
layerId = "8B99F5F8-0F2E-47D1-851D-9A55DF2AB712";
shapes = (
{
closed = 1;
nodes = (
(640,1460,l),
(311,1460,l),
(27,0,l),
(356,0,l)
);
},
{
closed = 1;
nodes = (
(241,271,l),
(188,0,l),
(985,0,l),
(1038,271,l)
);
},
{
closed = 1;
nodes = (
(384,856,l),
(334,599,l),
(976,599,l),
(1026,856,l)
);
},
{
closed = 1;
nodes = (
(1269,1460,l),
(472,1460,l),
(419,1189,l),
(1216,1189,l)
);
},
{
closed = 1;
nodes = (
(924,1619,o),
(1002,1679,o),
(1020,1772,cs),
(1038,1864,o),
(983,1922,o),
(885,1922,cs),
(786,1922,o),
(709,1864,o),
(691,1772,cs),
(673,1679,o),
(727,1619,o),
(826,1619,cs)
);
}
);
width = 1240;
},
{
layerId = "8D453742-7B49-41B2-AE2A-3EBD26173AE1";
shapes = (
{
closed = 1;
nodes = (
(682,1460,l),
(353,1460,l),
(69,0,l),
(398,0,l)
);
},
{
closed = 1;
nodes = (
(286,271,l),
(233,0,l),
(1253,0,l),
(1306,271,l)
);
},
{
closed = 1;
nodes = (
(429,856,l),
(379,599,l),
(1244,599,l),
(1294,856,l)
);
},
{
closed = 1;
nodes = (
(1537,1460,l),
(517,1460,l),
(464,1189,l),
(1484,1189,l)
);
},
{
closed = 1;
nodes = (
(1088,1645,o),
(1166,1705,o),
(1184,1798,cs),
(1202,1890,o),
(1146,1948,o),
(1048,1948,cs),
(950,1948,o),
(872,1890,o),
(854,1798,cs),
(836,1705,o),
(891,1645,o),
(989,1645,cs)
);
}
);
width = 1555;
},
{
layerId = "FCEBCCDD-9F1F-4D06-95BC-5606E8CBB848";
shapes = (
{
closed = 1;
nodes = (
(503,1460,l),
(377,1460,l),
(93,0,l),
(219,0,l)
);
},
{
closed = 1;
nodes = (
(199,110,l),
(178,0,l),
(971,0,l),
(992,110,l)
);
},
{
closed = 1;
nodes = (
(333,799,l),
(313,694,l),
(983,694,l),
(1003,799,l)
);
},
{
closed = 1;
nodes = (
(1255,1460,l),
(462,1460,l),
(440,1350,l),
(1233,1350,l)
);
},
{
closed = 1;
nodes = (
(908,1663,o),
(959,1699,o),
(971,1761,cs),
(983,1823,o),
(946,1859,o),
(884,1859,cs),
(822,1859,o),
(771,1823,o),
(759,1761,cs),
(747,1699,o),
(784,1663,o),
(846,1663,cs)
);
}
);
width = 1240;
},
{
layerId = "58E9293A-5120-4E1E-8451-D6ECB5204CAC";
shapes = (
{
closed = 1;
nodes = (
(528,1460,l),
(402,1460,l),
(118,0,l),
(244,0,l)
);
},
{
closed = 1;
nodes = (
(224,110,l),
(203,0,l),
(1263,0,l),
(1284,110,l)
);
},
{
closed = 1;
nodes = (
(358,799,l),
(338,694,l),
(1275,694,l),
(1295,799,l)
);
},
{
closed = 1;
nodes = (
(1547,1460,l),
(487,1460,l),
(465,1350,l),
(1525,1350,l)
);
},
{
closed = 1;
nodes = (
(1071,1663,o),
(1122,1699,o),
(1134,1761,cs),
(1146,1823,o),
(1109,1859,o),
(1047,1859,cs),
(985,1859,o),
(934,1823,o),
(922,1761,cs),
(910,1699,o),
(947,1663,o),
(1009,1663,cs)
);
}
);
width = 1555;
}
);
unicode = 278;
},
{
glyphname = Edotbelow;
lastChange = "2024-04-27 00:07:48 +0000";
layers = (
{
layerId = "DA5CBF49-7F7A-4926-B587-2652260B0ABD";
shapes = (
{
closed = 1;
nodes = (
(461,1460,l),
(132,1460,l),
(132,0,l),
(461,0,l)
);
},
{
closed = 1;
nodes = (
(293,271,l),
(293,0,l),
(1090,0,l),
(1090,271,l)
);
},
{
closed = 1;
nodes = (
(323,856,l),
(323,599,l),
(965,599,l),
(965,856,l)
);
},
{
closed = 1;
nodes = (
(1090,1460,l),
(293,1460,l),
(293,1189,l),
(1090,1189,l)
);
},
{
closed = 1;
nodes = (
(743,-528,o),
(826,-453,o),
(826,-337,cs),
(826,-221,o),
(743,-149,o),
(620,-149,cs),
(497,-149,o),
(414,-221,o),
(414,-337,cs),
(414,-453,o),
(497,-528,o),
(620,-528,cs)
);
}
);
width = 1240;
},
{
layerId = "DC524FA5-69B0-4541-AEAA-64C37A6100D8";
shapes = (
{
closed = 1;
nodes = (
(341,1460,l),
(215,1460,l),
(215,0,l),
(341,0,l)
);
},
{
closed = 1;
nodes = (
(300,110,l),
(300,0,l),
(1360,0,l),
(1360,110,l)
);
},
{
closed = 1;
nodes = (
(300,799,l),
(300,694,l),
(1237,694,l),
(1237,799,l)
);
},
{
closed = 1;
nodes = (
(1360,1460,l),
(300,1460,l),
(300,1350,l),
(1360,1350,l)
);
},
{
closed = 1;
nodes = (
(845,-509,o),
(889,-473,o),
(889,-411,cs),
(889,-349,o),
(845,-313,o),
(783,-313,cs),
(721,-313,o),
(677,-349,o),
(677,-411,cs),
(677,-473,o),
(721,-509,o),
(783,-509,cs)
);
}
);
width = 1555;
},
{
layerId = "0C0B9A44-4D66-4C06-AB4A-20867B2FE8E0";
shapes = (
{
closed = 1;
nodes = (
(503,1460,l),
(174,1460,l),
(174,0,l),
(503,0,l)
);
},
{
closed = 1;
nodes = (
(338,271,l),
(338,0,l),
(1358,0,l),
(1358,271,l)
);
},
{
closed = 1;
nodes = (
(368,856,l),
(368,599,l),
(1233,599,l),
(1233,856,l)
);
},
{
closed = 1;
nodes = (
(1358,1460,l),
(338,1460,l),
(338,1189,l),
(1358,1189,l)
);
},
{
closed = 1;
nodes = (
(898,-508,o),
(981,-433,o),
(981,-317,cs),
(981,-201,o),
(898,-129,o),
(775,-129,cs),
(652,-129,o),
(569,-201,o),
(569,-317,cs),
(569,-433,o),
(652,-508,o),
(775,-508,cs)
);
}
);
width = 1555;
},
{
layerId = "2B3680FA-30B6-467C-955F-2315D5D255F4";
shapes = (
{
closed = 1;
nodes = (
(316,1460,l),
(190,1460,l),
(190,0,l),
(316,0,l)
);
},
{
closed = 1;
nodes = (
(275,110,l),
(275,0,l),
(1068,0,l),
(1068,110,l)
);
},
{
closed = 1;
nodes = (
(275,799,l),
(275,694,l),
(945,694,l),
(945,799,l)
);
},
{
closed = 1;
nodes = (
(1068,1460,l),
(275,1460,l),
(275,1350,l),
(1068,1350,l)
);
},
{
closed = 1;
nodes = (
(682,-509,o),
(726,-473,o),
(726,-411,cs),
(726,-349,o),
(682,-313,o),
(620,-313,cs),
(558,-313,o),
(514,-349,o),
(514,-411,cs),
(514,-473,o),
(558,-509,o),
(620,-509,cs)
);
}
);
width = 1240;
},
{
layerId = "8B99F5F8-0F2E-47D1-851D-9A55DF2AB712";
shapes = (
{
closed = 1;
nodes = (
(640,1460,l),
(311,1460,l),
(27,0,l),
(356,0,l)
);
},
{
closed = 1;
nodes = (
(241,271,l),
(188,0,l),
(985,0,l),
(1038,271,l)
);
},
{
closed = 1;
nodes = (
(384,856,l),
(334,599,l),
(976,599,l),
(1026,856,l)
);
},
{
closed = 1;
nodes = (
(1269,1460,l),
(472,1460,l),
(419,1189,l),
(1216,1189,l)
);
},
{
closed = 1;
nodes = (
(535,-528,o),
(633,-453,o),
(655,-337,cs),
(678,-221,o),
(609,-149,o),
(486,-149,cs),
(363,-149,o),
(266,-221,o),
(243,-337,cs),
(221,-453,o),
(289,-528,o),
(412,-528,cs)
);
}
);
width = 1240;
},
{
layerId = "8D453742-7B49-41B2-AE2A-3EBD26173AE1";
shapes = (
{
closed = 1;
nodes = (
(682,1460,l),
(353,1460,l),
(69,0,l),
(398,0,l)
);
},
{
closed = 1;
nodes = (
(286,271,l),
(233,0,l),
(1253,0,l),
(1306,271,l)
);
},
{
closed = 1;
nodes = (
(429,856,l),
(379,599,l),
(1244,599,l),
(1294,856,l)
);
},
{
closed = 1;
nodes = (
(1537,1460,l),
(517,1460,l),
(464,1189,l),
(1484,1189,l)
);
},
{
closed = 1;
nodes = (
(694,-508,o),
(792,-433,o),
(814,-317,cs),
(837,-201,o),
(768,-129,o),
(645,-129,cs),
(522,-129,o),
(425,-201,o),
(402,-317,cs),
(380,-433,o),
(448,-508,o),
(571,-508,cs)
);
}
);
width = 1555;
},
{
layerId = "FCEBCCDD-9F1F-4D06-95BC-5606E8CBB848";
shapes = (
{
closed = 1;
nodes = (
(503,1460,l),
(377,1460,l),
(93,0,l),
(219,0,l)
);
},
{
closed = 1;
nodes = (
(199,110,l),
(178,0,l),
(971,0,l),
(992,110,l)
);
},
{
closed = 1;
nodes = (
(333,799,l),
(313,694,l),
(983,694,l),
(1003,799,l)
);
},
{
closed = 1;
nodes = (
(1255,1460,l),
(462,1460,l),
(440,1350,l),
(1233,1350,l)
);
},
{
closed = 1;
nodes = (
(486,-509,o),
(537,-473,o),
(549,-411,cs),
(561,-349,o),
(524,-313,o),
(462,-313,cs),
(400,-313,o),
(349,-349,o),
(337,-411,cs),
(325,-473,o),
(362,-509,o),
(424,-509,cs)
);
}
);
width = 1240;
},
{
layerId = "58E9293A-5120-4E1E-8451-D6ECB5204CAC";
shapes = (
{
closed = 1;
nodes = (
(528,1460,l),
(402,1460,l),
(118,0,l),
(244,0,l)
);
},
{
closed = 1;
nodes = (
(224,110,l),
(203,0,l),
(1263,0,l),
(1284,110,l)
);
},
{
closed = 1;
nodes = (
(358,799,l),
(338,694,l),
(1275,694,l),
(1295,799,l)
);
},
{
closed = 1;
nodes = (
(1547,1460,l),
(487,1460,l),
(465,1350,l),
(1525,1350,l)
);
},
{
closed = 1;
nodes = (
(649,-509,o),
(700,-473,o),
(712,-411,cs),
(724,-349,o),
(687,-313,o),
(625,-313,cs),
(563,-313,o),
(512,-349,o),
(500,-411,cs),
(488,-473,o),
(525,-509,o),
(587,-509,cs)
);
}
);
width = 1555;
}
);
unicode = 7864;
},
{
glyphname = Egrave;
lastChange = "2024-04-27 00:07:48 +0000";
layers = (
{
layerId = "DA5CBF49-7F7A-4926-B587-2652260B0ABD";
shapes = (
{
closed = 1;
nodes = (
(461,1460,l),
(132,1460,l),
(132,0,l),
(461,0,l)
);
},
{
closed = 1;
nodes = (
(293,271,l),
(293,0,l),
(1090,0,l),
(1090,271,l)
);
},
{
closed = 1;
nodes = (
(323,856,l),
(323,599,l),
(965,599,l),
(965,856,l)
);
},
{
closed = 1;
nodes = (
(1090,1460,l),
(293,1460,l),
(293,1189,l),
(1090,1189,l)
);
},
{
closed = 1;
nodes = (
(572,1877.386,l),
(227,1877.386,l),
(476,1619.05,l),
(755,1619.05,l)
);
}
);
width = 1240;
},
{
layerId = "DC524FA5-69B0-4541-AEAA-64C37A6100D8";
shapes = (
{
closed = 1;
nodes = (
(341,1460,l),
(215,1460,l),
(215,0,l),
(341,0,l)
);
},
{
closed = 1;
nodes = (
(300,110,l),
(300,0,l),
(1360,0,l),
(1360,110,l)
);
},
{
closed = 1;
nodes = (
(300,799,l),
(300,694,l),
(1237,694,l),
(1237,799,l)
);
},
{
closed = 1;
nodes = (
(1360,1460,l),
(300,1460,l),
(300,1350,l),
(1360,1350,l)
);
},
{
closed = 1;
nodes = (
(580,1884,l),
(427,1884,l),
(733,1652,l),
(852,1652,l)
);
}
);
width = 1555;
},
{
layerId = "0C0B9A44-4D66-4C06-AB4A-20867B2FE8E0";
shapes = (
{
closed = 1;
nodes = (
(503,1460,l),
(174,1460,l),
(174,0,l),
(503,0,l)
);
},
{
closed = 1;
nodes = (
(338,271,l),
(338,0,l),
(1358,0,l),
(1358,271,l)
);
},
{
closed = 1;
nodes = (
(368,856,l),
(368,599,l),
(1233,599,l),
(1233,856,l)
);
},
{
closed = 1;
nodes = (
(1358,1460,l),
(338,1460,l),
(338,1189,l),
(1358,1189,l)
);
},
{
closed = 1;
nodes = (
(709,1918,l),
(324,1918,l),
(615,1619,l),
(926,1619,l)
);
}
);
width = 1555;
},
{
layerId = "2B3680FA-30B6-467C-955F-2315D5D255F4";
shapes = (
{
closed = 1;
nodes = (
(316,1460,l),
(190,1460,l),
(190,0,l),
(316,0,l)
);
},
{
closed = 1;
nodes = (
(275,110,l),
(275,0,l),
(1068,0,l),
(1068,110,l)
);
},
{
closed = 1;
nodes = (
(275,799,l),
(275,694,l),
(945,694,l),
(945,799,l)
);
},
{
closed = 1;
nodes = (
(1068,1460,l),
(275,1460,l),
(275,1350,l),
(1068,1350,l)
);
},
{
closed = 1;
nodes = (
(462,1883.236,l),
(322,1883.236,l),
(575,1650.191,l),
(684,1650.191,l)
);
}
);
width = 1240;
},
{
layerId = "8B99F5F8-0F2E-47D1-851D-9A55DF2AB712";
shapes = (
{
closed = 1;
nodes = (
(640,1460,l),
(311,1460,l),
(27,0,l),
(356,0,l)
);
},
{
closed = 1;
nodes = (
(241,271,l),
(188,0,l),
(985,0,l),
(1038,271,l)
);
},
{
closed = 1;
nodes = (
(384,856,l),
(334,599,l),
(976,599,l),
(1026,856,l)
);
},
{
closed = 1;
nodes = (
(1269,1460,l),
(472,1460,l),
(419,1189,l),
(1216,1189,l)
);
},
{
closed = 1;
nodes = (
(832,1877,l),
(487,1877,l),
(686,1619,l),
(965,1619,l)
);
}
);
width = 1240;
},
{
layerId = "8D453742-7B49-41B2-AE2A-3EBD26173AE1";
shapes = (
{
closed = 1;
nodes = (
(682,1460,l),
(353,1460,l),
(69,0,l),
(398,0,l)
);
},
{
closed = 1;
nodes = (
(286,271,l),
(233,0,l),
(1253,0,l),
(1306,271,l)
);
},
{
closed = 1;
nodes = (
(429,856,l),
(379,599,l),
(1244,599,l),
(1294,856,l)
);
},
{
closed = 1;
nodes = (
(1537,1460,l),
(517,1460,l),
(464,1189,l),
(1484,1189,l)
);
},
{
closed = 1;
nodes = (
(977,1918,l),
(592,1918,l),
(825,1619,l),
(1136,1619,l)
);
}
);
width = 1555;
},
{
layerId = "FCEBCCDD-9F1F-4D06-95BC-5606E8CBB848";
shapes = (
{
closed = 1;
nodes = (
(503,1460,l),
(377,1460,l),
(93,0,l),
(219,0,l)
);
},
{
closed = 1;
nodes = (
(199,110,l),
(178,0,l),
(971,0,l),
(992,110,l)
);
},
{
closed = 1;
nodes = (
(333,799,l),
(313,694,l),
(983,694,l),
(1003,799,l)
);
},
{
closed = 1;
nodes = (
(1255,1460,l),
(462,1460,l),
(440,1350,l),
(1233,1350,l)
);
},
{
closed = 1;
nodes = (
(731,1883,l),
(591,1883,l),
(799,1650,l),
(908,1650,l)
);
}
);
width = 1240;
},
{
layerId = "58E9293A-5120-4E1E-8451-D6ECB5204CAC";
shapes = (
{
closed = 1;
nodes = (
(528,1460,l),
(402,1460,l),
(118,0,l),
(244,0,l)
);
},
{
closed = 1;
nodes = (
(224,110,l),
(203,0,l),
(1263,0,l),
(1284,110,l)
);
},
{
closed = 1;
nodes = (
(358,799,l),
(338,694,l),
(1275,694,l),
(1295,799,l)
);
},
{
closed = 1;
nodes = (
(1547,1460,l),
(487,1460,l),
(465,1350,l),
(1525,1350,l)
);
},
{
closed = 1;
nodes = (
(849,1884,l),
(696,1884,l),
(957,1652,l),
(1076,1652,l)
);
}
);
width = 1555;
}
);
unicode = 200;
},
{
glyphname = Emacron;
lastChange = "2024-04-27 00:07:48 +0000";
layers = (
{
layerId = "DA5CBF49-7F7A-4926-B587-2652260B0ABD";
shapes = (
{
closed = 1;
nodes = (
(461,1460,l),
(132,1460,l),
(132,0,l),
(461,0,l)
);
},
{
closed = 1;
nodes = (
(293,271,l),
(293,0,l),
(1090,0,l),
(1090,271,l)
);
},
{
closed = 1;
nodes = (
(323,856,l),
(323,599,l),
(965,599,l),
(965,856,l)
);
},
{
closed = 1;
nodes = (
(1090,1460,l),
(293,1460,l),
(293,1189,l),
(1090,1189,l)
);
},
{
closed = 1;
nodes = (
(271,1884,l),
(271,1691,l),
(969,1691,l),
(969,1884,l)
);
}
);
width = 1240;
},
{
layerId = "DC524FA5-69B0-4541-AEAA-64C37A6100D8";
shapes = (
{
closed = 1;
nodes = (
(341,1460,l),
(215,1460,l),
(215,0,l),
(341,0,l)
);
},
{
closed = 1;
nodes = (
(300,110,l),
(300,0,l),
(1360,0,l),
(1360,110,l)
);
},
{
closed = 1;
nodes = (
(300,799,l),
(300,694,l),
(1237,694,l),
(1237,799,l)
);
},
{
closed = 1;
nodes = (
(1360,1460,l),
(300,1460,l),
(300,1350,l),
(1360,1350,l)
);
},
{
closed = 1;
nodes = (
(368,1831,l),
(368,1731,l),
(1197,1731,l),
(1197,1831,l)
);
}
);
width = 1555;
},
{
layerId = "0C0B9A44-4D66-4C06-AB4A-20867B2FE8E0";
shapes = (
{
closed = 1;
nodes = (
(503,1460,l),
(174,1460,l),
(174,0,l),
(503,0,l)
);
},
{
closed = 1;
nodes = (
(338,271,l),
(338,0,l),
(1358,0,l),
(1358,271,l)
);
},
{
closed = 1;
nodes = (
(368,856,l),
(368,599,l),
(1233,599,l),
(1233,856,l)
);
},
{
closed = 1;
nodes = (
(1358,1460,l),
(338,1460,l),
(338,1189,l),
(1358,1189,l)
);
},
{
closed = 1;
nodes = (
(344,1884,l),
(344,1691,l),
(1205,1691,l),
(1205,1884,l)
);
}
);
width = 1555;
},
{
layerId = "2B3680FA-30B6-467C-955F-2315D5D255F4";
shapes = (
{
closed = 1;
nodes = (
(316,1460,l),
(190,1460,l),
(190,0,l),
(316,0,l)
);
},
{
closed = 1;
nodes = (
(275,110,l),
(275,0,l),
(1068,0,l),
(1068,110,l)
);
},
{
closed = 1;
nodes = (
(275,799,l),
(275,694,l),
(945,694,l),
(945,799,l)
);
},
{
closed = 1;
nodes = (
(1068,1460,l),
(275,1460,l),
(275,1350,l),
(1068,1350,l)
);
},
{
closed = 1;
nodes = (
(313,1831,l),
(313,1731,l),
(927,1731,l),
(927,1831,l)
);
}
);
width = 1240;
},
{
layerId = "8B99F5F8-0F2E-47D1-851D-9A55DF2AB712";
shapes = (
{
closed = 1;
nodes = (
(640,1460,l),
(311,1460,l),
(27,0,l),
(356,0,l)
);
},
{
closed = 1;
nodes = (
(241,271,l),
(188,0,l),
(985,0,l),
(1038,271,l)
);
},
{
closed = 1;
nodes = (
(384,856,l),
(334,599,l),
(976,599,l),
(1026,856,l)
);
},
{
closed = 1;
nodes = (
(1269,1460,l),
(472,1460,l),
(419,1189,l),
(1216,1189,l)
);
},
{
closed = 1;
nodes = (
(532,1884,l),
(495,1691,l),
(1193,1691,l),
(1230,1884,l)
);
}
);
width = 1240;
},
{
layerId = "8D453742-7B49-41B2-AE2A-3EBD26173AE1";
shapes = (
{
closed = 1;
nodes = (
(682,1460,l),
(353,1460,l),
(69,0,l),
(398,0,l)
);
},
{
closed = 1;
nodes = (
(286,271,l),
(233,0,l),
(1253,0,l),
(1306,271,l)
);
},
{
closed = 1;
nodes = (
(429,856,l),
(379,599,l),
(1244,599,l),
(1294,856,l)
);
},
{
closed = 1;
nodes = (
(1537,1460,l),
(517,1460,l),
(464,1189,l),
(1484,1189,l)
);
},
{
closed = 1;
nodes = (
(605,1884,l),
(568,1691,l),
(1429,1691,l),
(1466,1884,l)
);
}
);
width = 1555;
},
{
layerId = "FCEBCCDD-9F1F-4D06-95BC-5606E8CBB848";
shapes = (
{
closed = 1;
nodes = (
(503,1460,l),
(377,1460,l),
(93,0,l),
(219,0,l)
);
},
{
closed = 1;
nodes = (
(199,110,l),
(178,0,l),
(971,0,l),
(992,110,l)
);
},
{
closed = 1;
nodes = (
(333,799,l),
(313,694,l),
(983,694,l),
(1003,799,l)
);
},
{
closed = 1;
nodes = (
(1255,1460,l),
(462,1460,l),
(440,1350,l),
(1233,1350,l)
);
},
{
closed = 1;
nodes = (
(572,1831,l),
(552,1731,l),
(1166,1731,l),
(1186,1831,l)
);
}
);
width = 1240;
},
{
layerId = "58E9293A-5120-4E1E-8451-D6ECB5204CAC";
shapes = (
{
closed = 1;
nodes = (
(528,1460,l),
(402,1460,l),
(118,0,l),
(244,0,l)
);
},
{
closed = 1;
nodes = (
(224,110,l),
(203,0,l),
(1263,0,l),
(1284,110,l)
);
},
{
closed = 1;
nodes = (
(358,799,l),
(338,694,l),
(1275,694,l),
(1295,799,l)
);
},
{
closed = 1;
nodes = (
(1547,1460,l),
(487,1460,l),
(465,1350,l),
(1525,1350,l)
);
},
{
closed = 1;
nodes = (
(627,1831,l),
(607,1731,l),
(1436,1731,l),
(1456,1831,l)
);
}
);
width = 1555;
}
);
unicode = 274;
},
{
glyphname = Eogonek;
lastChange = "2024-04-27 00:07:48 +0000";
layers = (
{
layerId = "DA5CBF49-7F7A-4926-B587-2652260B0ABD";
shapes = (
{
closed = 1;
nodes = (
(461,1460,l),
(132,1460,l),
(132,0,l),
(461,0,l)
);
},
{
closed = 1;
nodes = (
(293,271,l),
(293,0,l),
(1090,0,l),
(1090,271,l)
);
},
{
closed = 1;
nodes = (
(323,856,l),
(323,599,l),
(965,599,l),
(965,856,l)
);
},
{
closed = 1;
nodes = (
(1090,1460,l),
(293,1460,l),
(293,1189,l),
(1090,1189,l)
);
},
{
closed = 1;
nodes = (
(720,-61,o),
(659,-145,o),
(659,-245,cs),
(659,-345,o),
(720,-443,o),
(980,-443,cs),
(1090,-443,l),
(1090,-260,l),
(1061,-260,ls),
(972,-260,o),
(945,-227,o),
(945,-181,cs),
(945,-129,o),
(980,-75,o),
(1090,0,c),
(855,37,l)
);
}
);
width = 1240;
},
{
layerId = "DC524FA5-69B0-4541-AEAA-64C37A6100D8";
shapes = (
{
closed = 1;
nodes = (
(341,1460,l),
(215,1460,l),
(215,0,l),
(341,0,l)
);
},
{
closed = 1;
nodes = (
(300,110,l),
(300,0,l),
(1360,0,l),
(1360,110,l)
);
},
{
closed = 1;
nodes = (
(300,799,l),
(300,694,l),
(1237,694,l),
(1237,799,l)
);
},
{
closed = 1;
nodes = (
(1360,1460,l),
(300,1460,l),
(300,1350,l),
(1360,1350,l)
);
},
{
closed = 1;
nodes = (
(1148,-70,o),
(1076,-146,o),
(1076,-248,cs),
(1076,-328,o),
(1121,-400,o),
(1306,-400,cs),
(1360,-400,l),
(1360,-293,l),
(1331,-293,ls),
(1219,-293,o),
(1182,-270,o),
(1182,-218,cs),
(1182,-159,o),
(1229,-95,o),
(1360,0,c),
(1302,37,l)
);
}
);
width = 1555;
},
{
layerId = "0C0B9A44-4D66-4C06-AB4A-20867B2FE8E0";
shapes = (
{
closed = 1;
nodes = (
(503,1460,l),
(174,1460,l),
(174,0,l),
(503,0,l)
);
},
{
closed = 1;
nodes = (
(338,271,l),
(338,0,l),
(1358,0,l),
(1358,271,l)
);
},
{
closed = 1;
nodes = (
(368,856,l),
(368,599,l),
(1233,599,l),
(1233,856,l)
);
},
{
closed = 1;
nodes = (
(1358,1460,l),
(338,1460,l),
(338,1189,l),
(1358,1189,l)
);
},
{
closed = 1;
nodes = (
(959,-69,o),
(886,-161,o),
(886,-267,cs),
(886,-354,o),
(935,-455,o),
(1190,-455,cs),
(1358,-455,l),
(1358,-272,l),
(1332,-272,ls),
(1229,-272,o),
(1188,-249,o),
(1188,-198,cs),
(1188,-142,o),
(1238,-77,o),
(1358,0,c),
(1152,49,l)
);
}
);
width = 1555;
},
{
layerId = "2B3680FA-30B6-467C-955F-2315D5D255F4";
shapes = (
{
closed = 1;
nodes = (
(316,1460,l),
(190,1460,l),
(190,0,l),
(316,0,l)
);
},
{
closed = 1;
nodes = (
(275,110,l),
(275,0,l),
(1068,0,l),
(1068,110,l)
);
},
{
closed = 1;
nodes = (
(275,799,l),
(275,694,l),
(945,694,l),
(945,799,l)
);
},
{
closed = 1;
nodes = (
(1068,1460,l),
(275,1460,l),
(275,1350,l),
(1068,1350,l)
);
},
{
closed = 1;
nodes = (
(886,-70,o),
(824,-152,o),
(824,-248,cs),
(824,-324,o),
(863,-400,o),
(1014,-400,cs),
(1068,-400,l),
(1068,-293,l),
(1039,-293,ls),
(959,-293,o),
(930,-265,o),
(930,-218,cs),
(930,-165,o),
(967,-95,o),
(1068,0,c),
(1010,37,l)
);
}
);
width = 1240;
},
{
layerId = "8B99F5F8-0F2E-47D1-851D-9A55DF2AB712";
shapes = (
{
closed = 1;
nodes = (
(640,1460,l),
(311,1460,l),
(27,0,l),
(356,0,l)
);
},
{
closed = 1;
nodes = (
(241,271,l),
(188,0,l),
(985,0,l),
(1038,271,l)
);
},
{
closed = 1;
nodes = (
(384,856,l),
(334,599,l),
(976,599,l),
(1026,856,l)
);
},
{
closed = 1;
nodes = (
(1269,1460,l),
(472,1460,l),
(419,1189,l),
(1216,1189,l)
);
},
{
closed = 1;
nodes = (
(603,-61,o),
(526,-145,o),
(506,-245,cs),
(487,-345,o),
(529,-443,o),
(789,-443,cs),
(899,-443,l),
(934,-260,l),
(905,-260,ls),
(816,-260,o),
(796,-227,o),
(805,-181,cs),
(815,-129,o),
(860,-75,o),
(985,0,c),
(757,37,l)
);
}
);
width = 1240;
},
{
layerId = "8D453742-7B49-41B2-AE2A-3EBD26173AE1";
shapes = (
{
closed = 1;
nodes = (
(682,1460,l),
(353,1460,l),
(69,0,l),
(398,0,l)
);
},
{
closed = 1;
nodes = (
(286,271,l),
(233,0,l),
(1253,0,l),
(1306,271,l)
);
},
{
closed = 1;
nodes = (
(429,856,l),
(379,599,l),
(1244,599,l),
(1294,856,l)
);
},
{
closed = 1;
nodes = (
(1537,1460,l),
(517,1460,l),
(464,1189,l),
(1484,1189,l)
);
},
{
closed = 1;
nodes = (
(841,-69,o),
(750,-161,o),
(729,-267,cs),
(712,-354,o),
(742,-455,o),
(997,-455,cs),
(1165,-455,l),
(1200,-272,l),
(1174,-272,ls),
(1071,-272,o),
(1035,-249,o),
(1045,-198,cs),
(1055,-142,o),
(1118,-77,o),
(1253,0,c),
(1057,49,l)
);
}
);
width = 1555;
},
{
layerId = "FCEBCCDD-9F1F-4D06-95BC-5606E8CBB848";
shapes = (
{
closed = 1;
nodes = (
(503,1460,l),
(377,1460,l),
(93,0,l),
(219,0,l)
);
},
{
closed = 1;
nodes = (
(199,110,l),
(178,0,l),
(971,0,l),
(992,110,l)
);
},
{
closed = 1;
nodes = (
(333,799,l),
(313,694,l),
(983,694,l),
(1003,799,l)
);
},
{
closed = 1;
nodes = (
(1255,1460,l),
(462,1460,l),
(440,1350,l),
(1233,1350,l)
);
},
{
closed = 1;
nodes = (
(775,-70,o),
(697,-152,o),
(679,-248,cs),
(664,-324,o),
(688,-400,o),
(839,-400,cs),
(893,-400,l),
(914,-293,l),
(885,-293,ls),
(805,-293,o),
(781,-265,o),
(791,-218,cs),
(801,-165,o),
(852,-95,o),
(971,0,c),
(920,37,l)
);
}
);
width = 1240;
},
{
layerId = "58E9293A-5120-4E1E-8451-D6ECB5204CAC";
shapes = (
{
closed = 1;
nodes = (
(528,1460,l),
(402,1460,l),
(118,0,l),
(244,0,l)
);
},
{
closed = 1;
nodes = (
(224,110,l),
(203,0,l),
(1263,0,l),
(1284,110,l)
);
},
{
closed = 1;
nodes = (
(358,799,l),
(338,694,l),
(1275,694,l),
(1295,799,l)
);
},
{
closed = 1;
nodes = (
(1547,1460,l),
(487,1460,l),
(465,1350,l),
(1525,1350,l)
);
},
{
closed = 1;
nodes = (
(1037,-70,o),
(951,-146,o),
(931,-248,cs),
(915,-328,o),
(946,-400,o),
(1131,-400,cs),
(1185,-400,l),
(1206,-293,l),
(1177,-293,ls),
(1065,-293,o),
(1033,-270,o),
(1043,-218,cs),
(1054,-159,o),
(1114,-95,o),
(1263,0,c),
(1212,37,l)
);
}
);
width = 1555;
}
);
unicode = 280;
},
{
glyphname = Etilde;
lastChange = "2024-04-27 00:07:48 +0000";
layers = (
{
layerId = "DA5CBF49-7F7A-4926-B587-2652260B0ABD";
shapes = (
{
closed = 1;
nodes = (
(461,1460,l),
(132,1460,l),
(132,0,l),
(461,0,l)
);
},
{
closed = 1;
nodes = (
(293,271,l),
(293,0,l),
(1090,0,l),
(1090,271,l)
);
},
{
closed = 1;
nodes = (
(323,856,l),
(323,599,l),
(965,599,l),
(965,856,l)
);
},
{
closed = 1;
nodes = (
(1090,1460,l),
(293,1460,l),
(293,1189,l),
(1090,1189,l)
);
},
{
closed = 1;
nodes = (
(291,1903,o),
(197,1807,o),
(178,1642,c),
(388,1603,l),
(400,1685,o),
(441,1723,o),
(496,1723,cs),
(595,1723,o),
(658,1599,o),
(812,1599,cs),
(948,1599,o),
(1043,1695,o),
(1062,1860,c),
(852,1899,l),
(840,1816,o),
(799,1779,o),
(744,1779,cs),
(644,1779,o),
(581,1903,o),
(427,1903,cs)
);
}
);
width = 1240;
},
{
layerId = "DC524FA5-69B0-4541-AEAA-64C37A6100D8";
shapes = (
{
closed = 1;
nodes = (
(341,1460,l),
(215,1460,l),
(215,0,l),
(341,0,l)
);
},
{
closed = 1;
nodes = (
(300,110,l),
(300,0,l),
(1360,0,l),
(1360,110,l)
);
},
{
closed = 1;
nodes = (
(300,799,l),
(300,694,l),
(1237,694,l),
(1237,799,l)
);
},
{
closed = 1;
nodes = (
(1360,1460,l),
(300,1460,l),
(300,1350,l),
(1360,1350,l)
);
},
{
closed = 1;
nodes = (
(442,1894,o),
(349,1821,o),
(323,1688,c),
(421,1662,l),
(444,1754,o),
(507,1802,o),
(587,1802,cs),
(732,1802,o),
(777,1643,o),
(983,1643,cs),
(1122,1643,o),
(1216,1716,o),
(1242,1850,c),
(1145,1875,l),
(1121,1783,o),
(1059,1735,o),
(979,1735,cs),
(834,1735,o),
(787,1894,o),
(581,1894,cs)
);
}
);
width = 1555;
},
{
layerId = "0C0B9A44-4D66-4C06-AB4A-20867B2FE8E0";
shapes = (
{
closed = 1;
nodes = (
(503,1460,l),
(174,1460,l),
(174,0,l),
(503,0,l)
);
},
{
closed = 1;
nodes = (
(338,271,l),
(338,0,l),
(1358,0,l),
(1358,271,l)
);
},
{
closed = 1;
nodes = (
(368,856,l),
(368,599,l),
(1233,599,l),
(1233,856,l)
);
},
{
closed = 1;
nodes = (
(1358,1460,l),
(338,1460,l),
(338,1189,l),
(1358,1189,l)
);
},
{
closed = 1;
nodes = (
(401,1905,o),
(309,1809,o),
(286,1644,c),
(507,1605,l),
(522,1687,o),
(551,1725,o),
(616,1725,cs),
(734,1725,o),
(801,1601,o),
(985,1601,cs),
(1147,1601,o),
(1241,1697,o),
(1263,1862,c),
(1042,1901,l),
(1027,1818,o),
(998,1781,o),
(933,1781,cs),
(814,1781,o),
(747,1905,o),
(563,1905,cs)
);
}
);
width = 1555;
},
{
layerId = "2B3680FA-30B6-467C-955F-2315D5D255F4";
shapes = (
{
closed = 1;
nodes = (
(316,1460,l),
(190,1460,l),
(190,0,l),
(316,0,l)
);
},
{
closed = 1;
nodes = (
(275,110,l),
(275,0,l),
(1068,0,l),
(1068,110,l)
);
},
{
closed = 1;
nodes = (
(275,799,l),
(275,694,l),
(945,694,l),
(945,799,l)
);
},
{
closed = 1;
nodes = (
(1068,1460,l),
(275,1460,l),
(275,1350,l),
(1068,1350,l)
);
},
{
closed = 1;
nodes = (
(359,1894,o),
(288,1821,o),
(268,1688,c),
(358,1662,l),
(376,1746,o),
(417,1795,o),
(476,1795,cs),
(580,1795,o),
(614,1643,o),
(771,1643,cs),
(880,1643,o),
(952,1716,o),
(972,1849,c),
(882,1875,l),
(864,1791,o),
(824,1742,o),
(765,1742,cs),
(661,1742,o),
(625,1894,o),
(468,1894,cs)
);
}
);
width = 1240;
},
{
layerId = "8B99F5F8-0F2E-47D1-851D-9A55DF2AB712";
shapes = (
{
closed = 1;
nodes = (
(640,1460,l),
(311,1460,l),
(27,0,l),
(356,0,l)
);
},
{
closed = 1;
nodes = (
(241,271,l),
(188,0,l),
(985,0,l),
(1038,271,l)
);
},
{
closed = 1;
nodes = (
(384,856,l),
(334,599,l),
(976,599,l),
(1026,856,l)
);
},
{
closed = 1;
nodes = (
(1269,1460,l),
(472,1460,l),
(419,1189,l),
(1216,1189,l)
);
},
{
closed = 1;
nodes = (
(556,1903,o),
(443,1807,o),
(392,1642,c),
(595,1603,l),
(623,1685,o),
(671,1723,o),
(726,1723,cs),
(825,1723,o),
(864,1599,o),
(1018,1599,cs),
(1154,1599,o),
(1267,1695,o),
(1319,1860,c),
(1116,1899,l),
(1088,1816,o),
(1040,1779,o),
(985,1779,cs),
(885,1779,o),
(846,1903,o),
(692,1903,cs)
);
}
);
width = 1240;
},
{
layerId = "8D453742-7B49-41B2-AE2A-3EBD26173AE1";
shapes = (
{
closed = 1;
nodes = (
(682,1460,l),
(353,1460,l),
(69,0,l),
(398,0,l)
);
},
{
closed = 1;
nodes = (
(286,271,l),
(233,0,l),
(1253,0,l),
(1306,271,l)
);
},
{
closed = 1;
nodes = (
(429,856,l),
(379,599,l),
(1244,599,l),
(1294,856,l)
);
},
{
closed = 1;
nodes = (
(1537,1460,l),
(517,1460,l),
(464,1189,l),
(1484,1189,l)
);
},
{
closed = 1;
nodes = (
(666,1905,o),
(556,1809,o),
(501,1644,c),
(714,1605,l),
(745,1687,o),
(781,1725,o),
(846,1725,cs),
(964,1725,o),
(1007,1601,o),
(1191,1601,cs),
(1353,1601,o),
(1466,1697,o),
(1520,1862,c),
(1307,1901,l),
(1275,1818,o),
(1239,1781,o),
(1174,1781,cs),
(1055,1781,o),
(1012,1905,o),
(828,1905,cs)
);
}
);
width = 1555;
},
{
layerId = "FCEBCCDD-9F1F-4D06-95BC-5606E8CBB848";
shapes = (
{
closed = 1;
nodes = (
(503,1460,l),
(377,1460,l),
(93,0,l),
(219,0,l)
);
},
{
closed = 1;
nodes = (
(199,110,l),
(178,0,l),
(971,0,l),
(992,110,l)
);
},
{
closed = 1;
nodes = (
(333,799,l),
(313,694,l),
(983,694,l),
(1003,799,l)
);
},
{
closed = 1;
nodes = (
(1255,1460,l),
(462,1460,l),
(440,1350,l),
(1233,1350,l)
);
},
{
closed = 1;
nodes = (
(630,1894,o),
(545,1821,o),
(499,1688,c),
(584,1662,l),
(618,1746,o),
(669,1795,o),
(728,1795,cs),
(832,1795,o),
(836,1643,o),
(993,1643,cs),
(1102,1643,o),
(1189,1716,o),
(1234,1849,c),
(1149,1875,l),
(1115,1791,o),
(1066,1742,o),
(1007,1742,cs),
(903,1742,o),
(896,1894,o),
(739,1894,cs)
);
}
);
width = 1240;
},
{
layerId = "58E9293A-5120-4E1E-8451-D6ECB5204CAC";
shapes = (
{
closed = 1;
nodes = (
(528,1460,l),
(402,1460,l),
(118,0,l),
(244,0,l)
);
},
{
closed = 1;
nodes = (
(224,110,l),
(203,0,l),
(1263,0,l),
(1284,110,l)
);
},
{
closed = 1;
nodes = (
(358,799,l),
(338,694,l),
(1275,694,l),
(1295,799,l)
);
},
{
closed = 1;
nodes = (
(1547,1460,l),
(487,1460,l),
(465,1350,l),
(1525,1350,l)
);
},
{
closed = 1;
nodes = (
(713,1894,o),
(606,1821,o),
(554,1688,c),
(647,1662,l),
(688,1754,o),
(760,1802,o),
(840,1802,cs),
(985,1802,o),
(999,1643,o),
(1205,1643,cs),
(1344,1643,o),
(1453,1716,o),
(1505,1850,c),
(1412,1875,l),
(1371,1783,o),
(1299,1735,o),
(1219,1735,cs),
(1074,1735,o),
(1058,1894,o),
(852,1894,cs)
);
}
);
width = 1555;
}
);
unicode = 7868;
},
{
glyphname = Schwa;
lastChange = "2024-04-27 00:07:48 +0000";
layers = (
{
layerId = "DA5CBF49-7F7A-4926-B587-2652260B0ABD";
shapes = (
{
closed = 1;
nodes = (
(95,793,l),
(95,545,ls),
(95,115,o),
(331,-24,o),
(601,-24,cs),
(960,-24,o),
(1169,193,o),
(1169,730,cs),
(1169,1267,o),
(970,1484,o),
(611,1484,cs),
(341,1484,o),
(156,1366,o),
(102,1046,c),
(409,1016,l),
(443,1148,o),
(504,1200,o),
(613,1200,cs),
(780,1200,o),
(832,1076,o),
(832,738,cs),
(832,373,o),
(765,249,o),
(598,249,cs),
(479,249,o),
(394,311,o),
(394,497,cs),
(394,609,l),
(319,536,l),
(996,536,l),
(996,793,l)
);
}
);
width = 1240;
},
{
layerId = "DC524FA5-69B0-4541-AEAA-64C37A6100D8";
shapes = (
{
closed = 1;
nodes = (
(123,710,l),
(123,624,ls),
(123,193,o),
(435,-24,o),
(762,-24,cs),
(1126,-24,o),
(1428,241,o),
(1428,729,cs),
(1428,1220,o),
(1135,1484,o),
(772,1484,cs),
(472,1484,o),
(196,1309,o),
(145,1010,c),
(275,992,l),
(333,1244,o),
(535,1367,o),
(767,1367,cs),
(1056,1367,o),
(1289,1185,o),
(1289,729,cs),
(1289,284,o),
(1049,93,o),
(760,93,cs),
(500,93,o),
(262,251,o),
(262,607,cs),
(262,664,l),
(195,600,l),
(1349,600,l),
(1349,710,l)
);
}
);
width = 1555;
},
{
layerId = "0C0B9A44-4D66-4C06-AB4A-20867B2FE8E0";
shapes = (
{
closed = 1;
nodes = (
(135,790,l),
(135,595,ls),
(135,160,o),
(410,-24,o),
(770,-24,cs),
(1179,-24,o),
(1454,213,o),
(1454,732,cs),
(1454,1227,o),
(1215,1484,o),
(780,1484,cs),
(431,1484,o),
(189,1318,o),
(145,1030,c),
(465,995,l),
(506,1122,o),
(604,1203,o),
(780,1203,cs),
(1001,1203,o),
(1117,1076,o),
(1117,732,cs),
(1117,394,o),
(996,257,o),
(767,257,cs),
(560,257,o),
(456,369,o),
(456,549,cs),
(456,609,l),
(418,533,l),
(1252,533,l),
(1252,790,l)
);
}
);
width = 1555;
},
{
layerId = "2B3680FA-30B6-467C-955F-2315D5D255F4";
shapes = (
{
closed = 1;
nodes = (
(118,723,l),
(118,549,ls),
(118,153,o),
(320,-22,o),
(587,-22,cs),
(902,-22,o),
(1118,221,o),
(1118,729,cs),
(1118,1240,o),
(918,1483,o),
(604,1483,cs),
(362,1483,o),
(159,1326,o),
(124,1011,c),
(248,999,l),
(288,1276,o),
(432,1366,o),
(605,1366,cs),
(832,1366,o),
(979,1206,o),
(979,709,cs),
(979,265,o),
(821,95,o),
(580,95,cs),
(372,95,o),
(244,221,o),
(244,552,cs),
(244,664,l),
(173,613,l),
(1052,613,l),
(1052,723,l)
);
}
);
width = 1240;
},
{
layerId = "8B99F5F8-0F2E-47D1-851D-9A55DF2AB712";
shapes = (
{
closed = 1;
nodes = (
(144,793,l),
(96,545,ls),
(12,115,o),
(221,-24,o),
(491,-24,cs),
(850,-24,o),
(1102,193,o),
(1206,730,cs),
(1310,1267,o),
(1153,1484,o),
(794,1484,cs),
(524,1484,o),
(317,1366,o),
(200,1046,c),
(501,1016,l),
(561,1148,o),
(632,1200,o),
(741,1200,cs),
(908,1200,o),
(936,1076,o),
(870,738,cs),
(800,373,o),
(708,249,o),
(541,249,cs),
(422,249,o),
(349,311,o),
(386,497,cs),
(407,609,l),
(318,536,l),
(995,536,l),
(1045,793,l)
);
}
);
width = 1240;
},
{
layerId = "8D453742-7B49-41B2-AE2A-3EBD26173AE1";
shapes = (
{
closed = 1;
nodes = (
(183,790,l),
(145,595,ls),
(60,160,o),
(299,-24,o),
(659,-24,cs),
(1068,-24,o),
(1389,213,o),
(1490,732,cs),
(1587,1227,o),
(1397,1484,o),
(962,1484,cs),
(613,1484,o),
(339,1318,o),
(239,1030,c),
(552,995,l),
(618,1122,o),
(732,1203,o),
(908,1203,cs),
(1129,1203,o),
(1220,1076,o),
(1153,732,cs),
(1088,394,o),
(940,257,o),
(711,257,cs),
(504,257,o),
(422,369,o),
(457,549,cs),
(468,609,l),
(416,533,l),
(1250,533,l),
(1300,790,l)
);
}
);
width = 1555;
},
{
layerId = "FCEBCCDD-9F1F-4D06-95BC-5606E8CBB848";
shapes = (
{
closed = 1;
nodes = (
(162,723,l),
(128,549,ls),
(51,153,o),
(219,-22,o),
(486,-22,cs),
(801,-22,o),
(1064,221,o),
(1163,729,cs),
(1262,1240,o),
(1109,1483,o),
(795,1483,cs),
(553,1483,o),
(320,1326,o),
(224,1011,c),
(345,999,l),
(439,1276,o),
(601,1366,o),
(774,1366,cs),
(1001,1366,o),
(1116,1206,o),
(1020,709,cs),
(934,265,o),
(742,95,o),
(501,95,cs),
(293,95,o),
(190,221,o),
(254,552,cs),
(276,664,l),
(195,613,l),
(1074,613,l),
(1096,723,l)
);
}
);
width = 1240;
},
{
layerId = "58E9293A-5120-4E1E-8451-D6ECB5204CAC";
shapes = (
{
closed = 1;
nodes = (
(164,710,l),
(147,624,ls),
(64,193,o),
(333,-24,o),
(660,-24,cs),
(1024,-24,o),
(1378,241,o),
(1473,729,cs),
(1568,1220,o),
(1326,1484,o),
(963,1484,cs),
(663,1484,o),
(353,1309,o),
(244,1010,c),
(371,992,l),
(478,1244,o),
(704,1367,o),
(936,1367,cs),
(1225,1367,o),
(1422,1185,o),
(1334,729,cs),
(1247,284,o),
(970,93,o),
(681,93,cs),
(421,93,o),
(214,251,o),
(283,607,cs),
(294,664,l),
(215,600,l),
(1369,600,l),
(1390,710,l)
);
}
);
width = 1555;
}
);
unicode = 399;
},
{
glyphname = F;
lastChange = "2024-04-27 00:07:48 +0000";
layers = (
{
layerId = "2B3680FA-30B6-467C-955F-2315D5D255F4";
shapes = (
{
closed = 1;
nodes = (
(316,1460,l),
(190,1460,l),
(190,0,l),
(316,0,l)
);
},
{
closed = 1;
nodes = (
(275,769,l),
(275,664,l),
(945,664,l),
(945,769,l)
);
},
{
closed = 1;
nodes = (
(1068,1460,l),
(275,1460,l),
(275,1350,l),
(1068,1350,l)
);
}
);
width = 1240;
},
{
layerId = "58E9293A-5120-4E1E-8451-D6ECB5204CAC";
shapes = (
{
closed = 1;
nodes = (
(528,1460,l),
(402,1460,l),
(118,0,l),
(244,0,l)
);
},
{
closed = 1;
nodes = (
(352,766,l),
(333,667,l),
(1270,667,l),
(1289,766,l)
);
},
{
closed = 1;
nodes = (
(1547,1460,l),
(487,1460,l),
(467,1360,l),
(1527,1360,l)
);
}
);
width = 1555;
},
{
layerId = "8D453742-7B49-41B2-AE2A-3EBD26173AE1";
shapes = (
{
closed = 1;
nodes = (
(689,1460,l),
(360,1460,l),
(76,0,l),
(405,0,l)
);
},
{
closed = 1;
nodes = (
(397,799,l),
(347,538,l),
(1187,538,l),
(1237,799,l)
);
},
{
closed = 1;
nodes = (
(1521,1460,l),
(496,1460,l),
(443,1189,l),
(1468,1189,l)
);
}
);
width = 1555;
},
{
layerId = "0C0B9A44-4D66-4C06-AB4A-20867B2FE8E0";
shapes = (
{
closed = 1;
nodes = (
(510,1460,l),
(181,1460,l),
(181,0,l),
(510,0,l)
);
},
{
closed = 1;
nodes = (
(347,799,l),
(347,538,l),
(1187,538,l),
(1187,799,l)
);
},
{
closed = 1;
nodes = (
(1342,1460,l),
(317,1460,l),
(317,1189,l),
(1342,1189,l)
);
}
);
width = 1555;
},
{
layerId = "DA5CBF49-7F7A-4926-B587-2652260B0ABD";
shapes = (
{
closed = 1;
nodes = (
(461,1460,l),
(132,1460,l),
(132,0,l),
(461,0,l)
);
},
{
closed = 1;
nodes = (
(323,799,l),
(323,538,l),
(959,538,l),
(959,799,l)
);
},
{
closed = 1;
nodes = (
(1084,1460,l),
(293,1460,l),
(293,1189,l),
(1084,1189,l)
);
}
);
width = 1240;
},
{
layerId = "FCEBCCDD-9F1F-4D06-95BC-5606E8CBB848";
shapes = (
{
closed = 1;
nodes = (
(503,1460,l),
(377,1460,l),
(93,0,l),
(219,0,l)
);
},
{
closed = 1;
nodes = (
(327,769,l),
(307,664,l),
(977,664,l),
(997,769,l)
);
},
{
closed = 1;
nodes = (
(1255,1460,l),
(462,1460,l),
(440,1350,l),
(1233,1350,l)
);
}
);
width = 1240;
},
{
layerId = "8B99F5F8-0F2E-47D1-851D-9A55DF2AB712";
shapes = (
{
closed = 1;
nodes = (
(640,1460,l),
(311,1460,l),
(27,0,l),
(356,0,l)
);
},
{
closed = 1;
nodes = (
(373,799,l),
(323,538,l),
(959,538,l),
(1009,799,l)
);
},
{
closed = 1;
nodes = (
(1263,1460,l),
(472,1460,l),
(419,1189,l),
(1210,1189,l)
);
}
);
width = 1240;
},
{
layerId = "DC524FA5-69B0-4541-AEAA-64C37A6100D8";
shapes = (
{
closed = 1;
nodes = (
(341,1460,l),
(215,1460,l),
(215,0,l),
(341,0,l)
);
},
{
closed = 1;
nodes = (
(300,766,l),
(300,667,l),
(1237,667,l),
(1237,766,l)
);
},
{
closed = 1;
nodes = (
(1360,1460,l),
(300,1460,l),
(300,1360,l),
(1360,1360,l)
);
}
);
width = 1555;
}
);
unicode = 70;
},
{
glyphname = G;
lastChange = "2024-04-27 00:07:48 +0000";
layers = (
{
layerId = "2B3680FA-30B6-467C-955F-2315D5D255F4";
shapes = (
{
closed = 1;
nodes = (
(646,613,l),
(1067,613,l),
(996,664,l),
(996,552,ls),
(996,221,o),
(868,95,o),
(660,95,cs),
(419,95,o),
(258,231,o),
(257,721,cs),
(256,1211,o),
(423,1366,o),
(650,1366,cs),
(823,1366,o),
(962,1276,o),
(992,999,c),
(1116,1011,l),
(1091,1326,o),
(893,1483,o),
(651,1483,cs),
(337,1483,o),
(122,1261,o),
(122,729,cs),
(122,197,o),
(338,-24,o),
(653,-24,cs),
(920,-24,o),
(1122,153,o),
(1122,549,cs),
(1122,723,l),
(646,723,l)
);
}
);
width = 1240;
},
{
layerId = "58E9293A-5120-4E1E-8451-D6ECB5204CAC";
shapes = (
{
closed = 1;
nodes = (
(824,600,l),
(1380,600,l),
(1325,664,l),
(1314,607,ls),
(1245,251,o),
(976,93,o),
(716,93,cs),
(427,93,o),
(224,284,o),
(311,729,cs),
(399,1185,o),
(675,1367,o),
(964,1367,cs),
(1196,1367,o),
(1374,1244,o),
(1376,992,c),
(1509,1010,l),
(1523,1309,o),
(1281,1484,o),
(981,1484,cs),
(618,1484,o),
(267,1220,o),
(172,729,cs),
(77,241,o),
(327,-24,o),
(691,-24,cs),
(1018,-24,o),
(1373,193,o),
(1456,624,cs),
(1473,710,l),
(845,710,l)
);
}
);
width = 1555;
},
{
layerId = "8D453742-7B49-41B2-AE2A-3EBD26173AE1";
shapes = (
{
closed = 1;
nodes = (
(817,533,l),
(1136,533,l),
(1112,609,l),
(1101,549,ls),
(1066,369,o),
(940,257,o),
(733,257,cs),
(504,257,o),
(410,394,o),
(475,732,cs),
(542,1076,o),
(696,1203,o),
(917,1203,cs),
(1093,1203,o),
(1172,1122,o),
(1178,995,c),
(1505,1030,l),
(1527,1318,o),
(1317,1484,o),
(968,1484,cs),
(533,1484,o),
(235,1227,o),
(138,732,cs),
(37,213,o),
(266,-24,o),
(675,-24,cs),
(1035,-24,o),
(1346,160,o),
(1431,595,cs),
(1469,790,l),
(867,790,l)
);
}
);
width = 1555;
},
{
layerId = "0C0B9A44-4D66-4C06-AB4A-20867B2FE8E0";
shapes = (
{
closed = 1;
nodes = (
(818,533,l),
(1137,533,l),
(1099,609,l),
(1099,549,ls),
(1099,369,o),
(995,257,o),
(788,257,cs),
(559,257,o),
(438,394,o),
(438,732,cs),
(438,1076,o),
(567,1203,o),
(788,1203,cs),
(964,1203,o),
(1059,1122,o),
(1090,995,c),
(1410,1030,l),
(1376,1318,o),
(1134,1484,o),
(785,1484,cs),
(350,1484,o),
(101,1227,o),
(101,732,cs),
(101,213,o),
(376,-24,o),
(785,-24,cs),
(1145,-24,o),
(1420,160,o),
(1420,595,cs),
(1420,790,l),
(818,790,l)
);
}
);
width = 1555;
},
{
layerId = "DA5CBF49-7F7A-4926-B587-2652260B0ABD";
shapes = (
{
closed = 1;
nodes = (
(660,536,l),
(921,536,l),
(846,609,l),
(846,497,ls),
(846,311,o),
(761,249,o),
(642,249,cs),
(475,249,o),
(408,373,o),
(408,738,cs),
(408,1076,o),
(475,1200,o),
(642,1200,cs),
(751,1200,o),
(807,1148,o),
(831,1016,c),
(1138,1046,l),
(1094,1366,o),
(909,1484,o),
(639,1484,cs),
(280,1484,o),
(71,1267,o),
(71,730,cs),
(71,193,o),
(280,-24,o),
(639,-24,cs),
(909,-24,o),
(1145,115,o),
(1145,545,cs),
(1145,793,l),
(660,793,l)
);
}
);
width = 1240;
},
{
layerId = "FCEBCCDD-9F1F-4D06-95BC-5606E8CBB848";
shapes = (
{
closed = 1;
nodes = (
(667,613,l),
(1088,613,l),
(1027,664,l),
(1005,552,ls),
(941,221,o),
(788,95,o),
(580,95,cs),
(339,95,o),
(205,231,o),
(299,721,cs),
(393,1211,o),
(591,1366,o),
(818,1366,cs),
(991,1366,o),
(1117,1276,o),
(1093,999,c),
(1215,1011,l),
(1251,1326,o),
(1073,1483,o),
(831,1483,cs),
(517,1483,o),
(271,1271,o),
(168,739,cs),
(64,207,o),
(245,-24,o),
(560,-24,cs),
(827,-24,o),
(1052,143,o),
(1129,539,cs),
(1165,723,l),
(689,723,l)
);
}
);
width = 1240;
},
{
layerId = "8B99F5F8-0F2E-47D1-851D-9A55DF2AB712";
shapes = (
{
closed = 1;
nodes = (
(659,536,l),
(920,536,l),
(859,609,l),
(840,507,ls),
(803,321,o),
(704,249,o),
(585,249,cs),
(418,249,o),
(376,373,o),
(446,738,cs),
(512,1076,o),
(603,1200,o),
(770,1200,cs),
(879,1200,o),
(925,1148,o),
(923,1016,c),
(1236,1046,l),
(1255,1366,o),
(1072,1484,o),
(802,1484,cs),
(443,1484,o),
(216,1287,o),
(112,750,cs),
(7,213,o),
(190,-24,o),
(549,-24,cs),
(819,-24,o),
(1057,85,o),
(1140,515,cs),
(1194,793,l),
(709,793,l)
);
}
);
width = 1240;
},
{
layerId = "DC524FA5-69B0-4541-AEAA-64C37A6100D8";
shapes = (
{
closed = 1;
nodes = (
(804,600,l),
(1360,600,l),
(1293,664,l),
(1293,607,ls),
(1293,251,o),
(1055,93,o),
(795,93,cs),
(506,93,o),
(266,284,o),
(266,729,cs),
(266,1185,o),
(506,1367,o),
(795,1367,cs),
(1027,1367,o),
(1229,1244,o),
(1280,992,c),
(1410,1010,l),
(1366,1309,o),
(1090,1484,o),
(790,1484,cs),
(427,1484,o),
(127,1220,o),
(127,729,cs),
(127,241,o),
(429,-24,o),
(793,-24,cs),
(1120,-24,o),
(1432,193,o),
(1432,624,cs),
(1432,710,l),
(804,710,l)
);
}
);
width = 1555;
}
);
unicode = 71;
},
{
glyphname = Gbreve;
lastChange = "2024-04-27 00:07:48 +0000";
layers = (
{
layerId = "DA5CBF49-7F7A-4926-B587-2652260B0ABD";
shapes = (
{
closed = 1;
nodes = (
(660,536,l),
(921,536,l),
(846,609,l),
(846,497,ls),
(846,311,o),
(761,249,o),
(642,249,cs),
(475,249,o),
(408,373,o),
(408,738,cs),
(408,1076,o),
(475,1200,o),
(642,1200,cs),
(751,1200,o),
(807,1148,o),
(831,1016,c),
(1138,1046,l),
(1094,1366,o),
(909,1484,o),
(639,1484,cs),
(280,1484,o),
(71,1267,o),
(71,730,cs),
(71,193,o),
(280,-24,o),
(639,-24,cs),
(909,-24,o),
(1145,115,o),
(1145,545,cs),
(1145,793,l),
(660,793,l)
);
},
{
closed = 1;
nodes = (
(252,1696,o),
(374,1600,o),
(620,1600,cs),
(866,1600,o),
(988,1696,o),
(980,1878,c),
(782,1878,l),
(782,1802,o),
(734,1755,o),
(620,1755,cs),
(506,1755,o),
(458,1802,o),
(458,1878,c),
(260,1878,l)
);
}
);
width = 1240;
},
{
layerId = "DC524FA5-69B0-4541-AEAA-64C37A6100D8";
shapes = (
{
closed = 1;
nodes = (
(804,600,l),
(1360,600,l),
(1293,664,l),
(1293,607,ls),
(1293,251,o),
(1055,93,o),
(795,93,cs),
(506,93,o),
(266,284,o),
(266,729,cs),
(266,1185,o),
(506,1367,o),
(795,1367,cs),
(1027,1367,o),
(1229,1244,o),
(1280,992,c),
(1410,1010,l),
(1366,1309,o),
(1090,1484,o),
(790,1484,cs),
(427,1484,o),
(127,1220,o),
(127,729,cs),
(127,241,o),
(429,-24,o),
(793,-24,cs),
(1120,-24,o),
(1432,193,o),
(1432,624,cs),
(1432,710,l),
(804,710,l)
);
},
{
closed = 1;
nodes = (
(451,1722,o),
(562,1643,o),
(779,1643,cs),
(996,1643,o),
(1108,1722,o),
(1106,1883,c),
(1010,1883,l),
(1010,1790,o),
(942,1731,o),
(779,1731,cs),
(615,1731,o),
(549,1790,o),
(549,1883,c),
(453,1883,l)
);
}
);
width = 1555;
},
{
layerId = "0C0B9A44-4D66-4C06-AB4A-20867B2FE8E0";
shapes = (
{
closed = 1;
nodes = (
(818,533,l),
(1137,533,l),
(1099,609,l),
(1099,549,ls),
(1099,369,o),
(995,257,o),
(788,257,cs),
(559,257,o),
(438,394,o),
(438,732,cs),
(438,1076,o),
(567,1203,o),
(788,1203,cs),
(964,1203,o),
(1059,1122,o),
(1090,995,c),
(1410,1030,l),
(1376,1318,o),
(1134,1484,o),
(785,1484,cs),
(350,1484,o),
(101,1227,o),
(101,732,cs),
(101,213,o),
(376,-24,o),
(785,-24,cs),
(1145,-24,o),
(1420,160,o),
(1420,595,cs),
(1420,790,l),
(818,790,l)
);
},
{
closed = 1;
nodes = (
(349,1682,o),
(495,1598,o),
(768,1598,cs),
(1041,1598,o),
(1186,1682,o),
(1183,1908,c),
(959,1908,l),
(959,1809,o),
(912,1752,o),
(768,1752,cs),
(625,1752,o),
(576,1809,o),
(576,1908,c),
(352,1908,l)
);
}
);
width = 1555;
},
{
layerId = "2B3680FA-30B6-467C-955F-2315D5D255F4";
shapes = (
{
closed = 1;
nodes = (
(646,613,l),
(1067,613,l),
(996,664,l),
(996,552,ls),
(996,221,o),
(868,95,o),
(660,95,cs),
(419,95,o),
(258,231,o),
(257,721,cs),
(256,1211,o),
(423,1366,o),
(650,1366,cs),
(823,1366,o),
(962,1276,o),
(992,999,c),
(1116,1011,l),
(1091,1326,o),
(893,1483,o),
(651,1483,cs),
(337,1483,o),
(122,1261,o),
(122,729,cs),
(122,197,o),
(338,-24,o),
(653,-24,cs),
(920,-24,o),
(1122,153,o),
(1122,549,cs),
(1122,723,l),
(646,723,l)
);
},
{
closed = 1;
nodes = (
(344,1743,o),
(435,1643,o),
(620,1643,cs),
(805,1643,o),
(896,1743,o),
(887,1883,c),
(797,1883,l),
(797,1796,o),
(748,1722,o),
(620,1722,cs),
(492,1722,o),
(443,1796,o),
(443,1883,c),
(353,1883,l)
);
}
);
width = 1240;
},
{
layerId = "8B99F5F8-0F2E-47D1-851D-9A55DF2AB712";
shapes = (
{
closed = 1;
nodes = (
(659,536,l),
(920,536,l),
(859,609,l),
(840,507,ls),
(803,321,o),
(704,249,o),
(585,249,cs),
(418,249,o),
(376,373,o),
(446,738,cs),
(512,1076,o),
(603,1200,o),
(770,1200,cs),
(879,1200,o),
(925,1148,o),
(923,1016,c),
(1236,1046,l),
(1255,1366,o),
(1072,1484,o),
(802,1484,cs),
(443,1484,o),
(216,1287,o),
(112,750,cs),
(7,213,o),
(190,-24,o),
(549,-24,cs),
(819,-24,o),
(1057,85,o),
(1140,515,cs),
(1194,793,l),
(709,793,l)
);
},
{
closed = 1;
nodes = (
(477,1696,o),
(580,1600,o),
(826,1600,cs),
(1072,1600,o),
(1213,1696,o),
(1240,1878,c),
(1042,1878,l),
(1027,1802,o),
(970,1755,o),
(856,1755,cs),
(742,1755,o),
(703,1802,o),
(718,1878,c),
(520,1878,l)
);
}
);
width = 1240;
},
{
layerId = "8D453742-7B49-41B2-AE2A-3EBD26173AE1";
shapes = (
{
closed = 1;
nodes = (
(817,533,l),
(1136,533,l),
(1112,609,l),
(1101,549,ls),
(1066,369,o),
(940,257,o),
(733,257,cs),
(504,257,o),
(410,394,o),
(475,732,cs),
(542,1076,o),
(696,1203,o),
(917,1203,cs),
(1093,1203,o),
(1172,1122,o),
(1178,995,c),
(1505,1030,l),
(1527,1318,o),
(1317,1484,o),
(968,1484,cs),
(533,1484,o),
(235,1227,o),
(138,732,cs),
(37,213,o),
(266,-24,o),
(675,-24,cs),
(1035,-24,o),
(1346,160,o),
(1431,595,cs),
(1469,790,l),
(867,790,l)
);
},
{
closed = 1;
nodes = (
(571,1682,o),
(701,1598,o),
(974,1598,cs),
(1247,1598,o),
(1408,1682,o),
(1449,1908,c),
(1225,1908,l),
(1206,1809,o),
(1148,1752,o),
(1004,1752,cs),
(861,1752,o),
(823,1809,o),
(842,1908,c),
(618,1908,l)
);
}
);
width = 1555;
},
{
layerId = "FCEBCCDD-9F1F-4D06-95BC-5606E8CBB848";
shapes = (
{
closed = 1;
nodes = (
(667,613,l),
(1088,613,l),
(1027,664,l),
(1005,552,ls),
(941,221,o),
(788,95,o),
(580,95,cs),
(339,95,o),
(205,231,o),
(299,721,cs),
(393,1211,o),
(591,1366,o),
(818,1366,cs),
(991,1366,o),
(1117,1276,o),
(1093,999,c),
(1215,1011,l),
(1251,1326,o),
(1073,1483,o),
(831,1483,cs),
(517,1483,o),
(271,1271,o),
(168,739,cs),
(64,207,o),
(245,-24,o),
(560,-24,cs),
(827,-24,o),
(1052,143,o),
(1129,539,cs),
(1165,723,l),
(689,723,l)
);
},
{
closed = 1;
nodes = (
(585,1743,o),
(656,1643,o),
(841,1643,cs),
(1026,1643,o),
(1137,1743,o),
(1155,1883,c),
(1065,1883,l),
(1048,1796,o),
(985,1722,o),
(857,1722,cs),
(729,1722,o),
(694,1796,o),
(711,1883,c),
(621,1883,l)
);
}
);
width = 1240;
},
{
layerId = "58E9293A-5120-4E1E-8451-D6ECB5204CAC";
shapes = (
{
closed = 1;
nodes = (
(824,600,l),
(1380,600,l),
(1325,664,l),
(1314,607,ls),
(1245,251,o),
(976,93,o),
(716,93,cs),
(427,93,o),
(224,284,o),
(311,729,cs),
(399,1185,o),
(675,1367,o),
(964,1367,cs),
(1196,1367,o),
(1374,1244,o),
(1376,992,c),
(1509,1010,l),
(1523,1309,o),
(1281,1484,o),
(981,1484,cs),
(618,1484,o),
(267,1220,o),
(172,729,cs),
(77,241,o),
(327,-24,o),
(691,-24,cs),
(1018,-24,o),
(1373,193,o),
(1456,624,cs),
(1473,710,l),
(845,710,l)
);
},
{
closed = 1;
nodes = (
(689,1722,o),
(784,1643,o),
(1001,1643,cs),
(1218,1643,o),
(1346,1722,o),
(1375,1883,c),
(1279,1883,l),
(1261,1790,o),
(1181,1731,o),
(1018,1731,cs),
(854,1731,o),
(800,1790,o),
(818,1883,c),
(722,1883,l)
);
}
);
width = 1555;
}
);
unicode = 286;
},
{
glyphname = Gcaron;
lastChange = "2024-04-27 00:07:48 +0000";
layers = (
{
layerId = "DA5CBF49-7F7A-4926-B587-2652260B0ABD";
shapes = (
{
closed = 1;
nodes = (
(660,536,l),
(921,536,l),
(846,609,l),
(846,497,ls),
(846,311,o),
(761,249,o),
(642,249,cs),
(475,249,o),
(408,373,o),
(408,738,cs),
(408,1076,o),
(475,1200,o),
(642,1200,cs),
(751,1200,o),
(807,1148,o),
(831,1016,c),
(1138,1046,l),
(1094,1366,o),
(909,1484,o),
(639,1484,cs),
(280,1484,o),
(71,1267,o),
(71,730,cs),
(71,193,o),
(280,-24,o),
(639,-24,cs),
(909,-24,o),
(1145,115,o),
(1145,545,cs),
(1145,793,l),
(660,793,l)
);
},
{
closed = 1;
nodes = (
(483,1878,l),
(644,1674,l),
(596,1674,l),
(757,1878,l),
(1041,1878,l),
(813,1620,l),
(427,1620,l),
(199,1878,l)
);
}
);
width = 1240;
},
{
layerId = "DC524FA5-69B0-4541-AEAA-64C37A6100D8";
shapes = (
{
closed = 1;
nodes = (
(804,600,l),
(1360,600,l),
(1293,664,l),
(1293,607,ls),
(1293,251,o),
(1055,93,o),
(795,93,cs),
(506,93,o),
(266,284,o),
(266,729,cs),
(266,1185,o),
(506,1367,o),
(795,1367,cs),
(1027,1367,o),
(1229,1244,o),
(1280,992,c),
(1410,1010,l),
(1366,1309,o),
(1090,1484,o),
(790,1484,cs),
(427,1484,o),
(127,1220,o),
(127,729,cs),
(127,241,o),
(429,-24,o),
(793,-24,cs),
(1120,-24,o),
(1432,193,o),
(1432,624,cs),
(1432,710,l),
(804,710,l)
);
},
{
closed = 1;
nodes = (
(535,1883,l),
(810,1674,l),
(748,1674,l),
(1024,1883,l),
(1171,1883,l),
(857,1650,l),
(701,1650,l),
(388,1883,l)
);
}
);
width = 1555;
},
{
layerId = "0C0B9A44-4D66-4C06-AB4A-20867B2FE8E0";
shapes = (
{
closed = 1;
nodes = (
(818,533,l),
(1137,533,l),
(1099,609,l),
(1099,549,ls),
(1099,369,o),
(995,257,o),
(788,257,cs),
(559,257,o),
(438,394,o),
(438,732,cs),
(438,1076,o),
(567,1203,o),
(788,1203,cs),
(964,1203,o),
(1059,1122,o),
(1090,995,c),
(1410,1030,l),
(1376,1318,o),
(1134,1484,o),
(785,1484,cs),
(350,1484,o),
(101,1227,o),
(101,732,cs),
(101,213,o),
(376,-24,o),
(785,-24,cs),
(1145,-24,o),
(1420,160,o),
(1420,595,cs),
(1420,790,l),
(818,790,l)
);
},
{
closed = 1;
nodes = (
(601,1908,l),
(801,1662,l),
(733,1662,l),
(934,1908,l),
(1248,1908,l),
(960,1620,l),
(574,1620,l),
(287,1908,l)
);
}
);
width = 1555;
},
{
layerId = "2B3680FA-30B6-467C-955F-2315D5D255F4";
shapes = (
{
closed = 1;
nodes = (
(646,613,l),
(1067,613,l),
(996,664,l),
(996,552,ls),
(996,221,o),
(868,95,o),
(660,95,cs),
(419,95,o),
(258,231,o),
(257,721,cs),
(256,1211,o),
(423,1366,o),
(650,1366,cs),
(823,1366,o),
(962,1276,o),
(992,999,c),
(1116,1011,l),
(1091,1326,o),
(893,1483,o),
(651,1483,cs),
(337,1483,o),
(122,1261,o),
(122,729,cs),
(122,197,o),
(338,-24,o),
(653,-24,cs),
(920,-24,o),
(1122,153,o),
(1122,549,cs),
(1122,723,l),
(646,723,l)
);
},
{
closed = 1;
nodes = (
(429,1883,l),
(648,1679,l),
(592,1679,l),
(811,1883,l),
(942,1883,l),
(678,1650,l),
(562,1650,l),
(298,1883,l)
);
}
);
width = 1240;
},
{
layerId = "8B99F5F8-0F2E-47D1-851D-9A55DF2AB712";
shapes = (
{
closed = 1;
nodes = (
(659,536,l),
(920,536,l),
(859,609,l),
(840,507,ls),
(803,321,o),
(704,249,o),
(585,249,cs),
(418,249,o),
(376,373,o),
(446,738,cs),
(512,1076,o),
(603,1200,o),
(770,1200,cs),
(879,1200,o),
(925,1148,o),
(923,1016,c),
(1236,1046,l),
(1255,1366,o),
(1072,1484,o),
(802,1484,cs),
(443,1484,o),
(216,1287,o),
(112,750,cs),
(7,213,o),
(190,-24,o),
(549,-24,cs),
(819,-24,o),
(1057,85,o),
(1140,515,cs),
(1194,793,l),
(709,793,l)
);
},
{
closed = 1;
nodes = (
(743,1878,l),
(864,1674,l),
(816,1674,l),
(1017,1878,l),
(1301,1878,l),
(1023,1620,l),
(637,1620,l),
(459,1878,l)
);
}
);
width = 1240;
},
{
layerId = "8D453742-7B49-41B2-AE2A-3EBD26173AE1";
shapes = (
{
closed = 1;
nodes = (
(817,533,l),
(1136,533,l),
(1112,609,l),
(1101,549,ls),
(1066,369,o),
(940,257,o),
(733,257,cs),
(504,257,o),
(410,394,o),
(475,732,cs),
(542,1076,o),
(696,1203,o),
(917,1203,cs),
(1093,1203,o),
(1172,1122,o),
(1178,995,c),
(1505,1030,l),
(1527,1318,o),
(1317,1484,o),
(968,1484,cs),
(533,1484,o),
(235,1227,o),
(138,732,cs),
(37,213,o),
(266,-24,o),
(675,-24,cs),
(1035,-24,o),
(1346,160,o),
(1431,595,cs),
(1469,790,l),
(867,790,l)
);
},
{
closed = 1;
nodes = (
(867,1908,l),
(1019,1662,l),
(951,1662,l),
(1200,1908,l),
(1514,1908,l),
(1170,1620,l),
(784,1620,l),
(553,1908,l)
);
}
);
width = 1555;
},
{
layerId = "FCEBCCDD-9F1F-4D06-95BC-5606E8CBB848";
shapes = (
{
closed = 1;
nodes = (
(667,613,l),
(1088,613,l),
(1027,664,l),
(1005,552,ls),
(941,221,o),
(788,95,o),
(580,95,cs),
(339,95,o),
(205,231,o),
(299,721,cs),
(393,1211,o),
(591,1366,o),
(818,1366,cs),
(991,1366,o),
(1117,1276,o),
(1093,999,c),
(1215,1011,l),
(1251,1326,o),
(1073,1483,o),
(831,1483,cs),
(517,1483,o),
(271,1271,o),
(168,739,cs),
(64,207,o),
(245,-24,o),
(560,-24,cs),
(827,-24,o),
(1052,143,o),
(1129,539,cs),
(1165,723,l),
(689,723,l)
);
},
{
closed = 1;
nodes = (
(697,1883,l),
(876,1679,l),
(820,1679,l),
(1079,1883,l),
(1210,1883,l),
(901,1650,l),
(785,1650,l),
(566,1883,l)
);
}
);
width = 1240;
},
{
layerId = "58E9293A-5120-4E1E-8451-D6ECB5204CAC";
shapes = (
{
closed = 1;
nodes = (
(824,600,l),
(1380,600,l),
(1325,664,l),
(1314,607,ls),
(1245,251,o),
(976,93,o),
(716,93,cs),
(427,93,o),
(224,284,o),
(311,729,cs),
(399,1185,o),
(675,1367,o),
(964,1367,cs),
(1196,1367,o),
(1374,1244,o),
(1376,992,c),
(1509,1010,l),
(1523,1309,o),
(1281,1484,o),
(981,1484,cs),
(618,1484,o),
(267,1220,o),
(172,729,cs),
(77,241,o),
(327,-24,o),
(691,-24,cs),
(1018,-24,o),
(1373,193,o),
(1456,624,cs),
(1473,710,l),
(845,710,l)
);
},
{
closed = 1;
nodes = (
(804,1883,l),
(1038,1674,l),
(976,1674,l),
(1293,1883,l),
(1440,1883,l),
(1081,1650,l),
(925,1650,l),
(657,1883,l)
);
}
);
width = 1555;
}
);
unicode = 486;
},
{
glyphname = Gcircumflex;
lastChange = "2024-04-27 00:07:48 +0000";
layers = (
{
layerId = "DA5CBF49-7F7A-4926-B587-2652260B0ABD";
shapes = (
{
closed = 1;
nodes = (
(660,536,l),
(921,536,l),
(846,609,l),
(846,497,ls),
(846,311,o),
(761,249,o),
(642,249,cs),
(475,249,o),
(408,373,o),
(408,738,cs),
(408,1076,o),
(475,1200,o),
(642,1200,cs),
(751,1200,o),
(807,1148,o),
(831,1016,c),
(1138,1046,l),
(1094,1366,o),
(909,1484,o),
(639,1484,cs),
(280,1484,o),
(71,1267,o),
(71,730,cs),
(71,193,o),
(280,-24,o),
(639,-24,cs),
(909,-24,o),
(1145,115,o),
(1145,545,cs),
(1145,793,l),
(660,793,l)
);
},
{
closed = 1;
nodes = (
(483,1620,l),
(644,1824,l),
(596,1824,l),
(757,1620,l),
(1041,1620,l),
(813,1878,l),
(427,1878,l),
(199,1620,l)
);
}
);
width = 1240;
},
{
layerId = "DC524FA5-69B0-4541-AEAA-64C37A6100D8";
shapes = (
{
closed = 1;
nodes = (
(804,600,l),
(1360,600,l),
(1293,664,l),
(1293,607,ls),
(1293,251,o),
(1055,93,o),
(795,93,cs),
(506,93,o),
(266,284,o),
(266,729,cs),
(266,1185,o),
(506,1367,o),
(795,1367,cs),
(1027,1367,o),
(1229,1244,o),
(1280,992,c),
(1410,1010,l),
(1366,1309,o),
(1090,1484,o),
(790,1484,cs),
(427,1484,o),
(127,1220,o),
(127,729,cs),
(127,241,o),
(429,-24,o),
(793,-24,cs),
(1120,-24,o),
(1432,193,o),
(1432,624,cs),
(1432,710,l),
(804,710,l)
);
},
{
closed = 1;
nodes = (
(535,1650,l),
(810,1859,l),
(748,1859,l),
(1024,1650,l),
(1171,1650,l),
(857,1883,l),
(701,1883,l),
(388,1650,l)
);
}
);
width = 1555;
},
{
layerId = "0C0B9A44-4D66-4C06-AB4A-20867B2FE8E0";
shapes = (
{
closed = 1;
nodes = (
(818,533,l),
(1137,533,l),
(1099,609,l),
(1099,549,ls),
(1099,369,o),
(995,257,o),
(788,257,cs),
(559,257,o),
(438,394,o),
(438,732,cs),
(438,1076,o),
(567,1203,o),
(788,1203,cs),
(964,1203,o),
(1059,1122,o),
(1090,995,c),
(1410,1030,l),
(1376,1318,o),
(1134,1484,o),
(785,1484,cs),
(350,1484,o),
(101,1227,o),
(101,732,cs),
(101,213,o),
(376,-24,o),
(785,-24,cs),
(1145,-24,o),
(1420,160,o),
(1420,595,cs),
(1420,790,l),
(818,790,l)
);
},
{
closed = 1;
nodes = (
(601,1620,l),
(801,1866,l),
(733,1866,l),
(934,1620,l),
(1248,1620,l),
(960,1908,l),
(574,1908,l),
(287,1620,l)
);
}
);
width = 1555;
},
{
layerId = "2B3680FA-30B6-467C-955F-2315D5D255F4";
shapes = (
{
closed = 1;
nodes = (
(646,613,l),
(1067,613,l),
(996,664,l),
(996,552,ls),
(996,221,o),
(868,95,o),
(660,95,cs),
(419,95,o),
(258,231,o),
(257,721,cs),
(256,1211,o),
(423,1366,o),
(650,1366,cs),
(823,1366,o),
(962,1276,o),
(992,999,c),
(1116,1011,l),
(1091,1326,o),
(893,1483,o),
(651,1483,cs),
(337,1483,o),
(122,1261,o),
(122,729,cs),
(122,197,o),
(338,-24,o),
(653,-24,cs),
(920,-24,o),
(1122,153,o),
(1122,549,cs),
(1122,723,l),
(646,723,l)
);
},
{
closed = 1;
nodes = (
(429,1650,l),
(648,1854,l),
(592,1854,l),
(811,1650,l),
(942,1650,l),
(678,1883,l),
(562,1883,l),
(298,1650,l)
);
}
);
width = 1240;
},
{
layerId = "8B99F5F8-0F2E-47D1-851D-9A55DF2AB712";
shapes = (
{
closed = 1;
nodes = (
(659,536,l),
(920,536,l),
(859,609,l),
(840,507,ls),
(803,321,o),
(704,249,o),
(585,249,cs),
(418,249,o),
(376,373,o),
(446,738,cs),
(512,1076,o),
(603,1200,o),
(770,1200,cs),
(879,1200,o),
(925,1148,o),
(923,1016,c),
(1236,1046,l),
(1255,1366,o),
(1072,1484,o),
(802,1484,cs),
(443,1484,o),
(216,1287,o),
(112,750,cs),
(7,213,o),
(190,-24,o),
(549,-24,cs),
(819,-24,o),
(1057,85,o),
(1140,515,cs),
(1194,793,l),
(709,793,l)
);
},
{
closed = 1;
nodes = (
(693,1620,l),
(894,1824,l),
(846,1824,l),
(967,1620,l),
(1251,1620,l),
(1073,1878,l),
(687,1878,l),
(409,1620,l)
);
}
);
width = 1240;
},
{
layerId = "8D453742-7B49-41B2-AE2A-3EBD26173AE1";
shapes = (
{
closed = 1;
nodes = (
(817,533,l),
(1136,533,l),
(1112,609,l),
(1101,549,ls),
(1066,369,o),
(940,257,o),
(733,257,cs),
(504,257,o),
(410,394,o),
(475,732,cs),
(542,1076,o),
(696,1203,o),
(917,1203,cs),
(1093,1203,o),
(1172,1122,o),
(1178,995,c),
(1505,1030,l),
(1527,1318,o),
(1317,1484,o),
(968,1484,cs),
(533,1484,o),
(235,1227,o),
(138,732,cs),
(37,213,o),
(266,-24,o),
(675,-24,cs),
(1035,-24,o),
(1346,160,o),
(1431,595,cs),
(1469,790,l),
(867,790,l)
);
},
{
closed = 1;
nodes = (
(811,1620,l),
(1059,1866,l),
(991,1866,l),
(1144,1620,l),
(1458,1620,l),
(1226,1908,l),
(840,1908,l),
(497,1620,l)
);
}
);
width = 1555;
},
{
layerId = "FCEBCCDD-9F1F-4D06-95BC-5606E8CBB848";
shapes = (
{
closed = 1;
nodes = (
(667,613,l),
(1088,613,l),
(1027,664,l),
(1005,552,ls),
(941,221,o),
(788,95,o),
(580,95,cs),
(339,95,o),
(205,231,o),
(299,721,cs),
(393,1211,o),
(591,1366,o),
(818,1366,cs),
(991,1366,o),
(1117,1276,o),
(1093,999,c),
(1215,1011,l),
(1251,1326,o),
(1073,1483,o),
(831,1483,cs),
(517,1483,o),
(271,1271,o),
(168,739,cs),
(64,207,o),
(245,-24,o),
(560,-24,cs),
(827,-24,o),
(1052,143,o),
(1129,539,cs),
(1165,723,l),
(689,723,l)
);
},
{
closed = 1;
nodes = (
(652,1650,l),
(910,1854,l),
(854,1854,l),
(1034,1650,l),
(1165,1650,l),
(946,1883,l),
(830,1883,l),
(521,1650,l)
);
}
);
width = 1240;
},
{
layerId = "58E9293A-5120-4E1E-8451-D6ECB5204CAC";
shapes = (
{
closed = 1;
nodes = (
(824,600,l),
(1380,600,l),
(1325,664,l),
(1314,607,ls),
(1245,251,o),
(976,93,o),
(716,93,cs),
(427,93,o),
(224,284,o),
(311,729,cs),
(399,1185,o),
(675,1367,o),
(964,1367,cs),
(1196,1367,o),
(1374,1244,o),
(1376,992,c),
(1509,1010,l),
(1523,1309,o),
(1281,1484,o),
(981,1484,cs),
(618,1484,o),
(267,1220,o),
(172,729,cs),
(77,241,o),
(327,-24,o),
(691,-24,cs),
(1018,-24,o),
(1373,193,o),
(1456,624,cs),
(1473,710,l),
(845,710,l)
);
},
{
closed = 1;
nodes = (
(759,1650,l),
(1074,1859,l),
(1012,1859,l),
(1248,1650,l),
(1395,1650,l),
(1126,1883,l),
(970,1883,l),
(612,1650,l)
);
}
);
width = 1555;
}
);
unicode = 284;
},
